<?xml version="1.0" encoding="utf-8"?>
<!-- Generator: Adobe Illustrator 24.1.2, SVG Export Plug-In . SVG Version: 6.00 Build 0)  -->
<svg version="1.1" id="Layer_1" xmlns="http://www.w3.org/2000/svg" xmlns:xlink="http://www.w3.org/1999/xlink" x="0px" y="0px"
	 viewBox="0 0 9 8" style="enable-background:new 0 0 9 8;" xml:space="preserve">
<style type="text/css">
	.st0{fill-rule:evenodd;clip-rule:evenodd;fill:#FBB03B;}
</style>
<desc></desc>
<path id="Shape" class="st0" d="M1.6,3C1.2,3,1,3.3,1,3.6s0.2,0.6,0.6,0.6l5.2,0l-2,2C4.6,6.4,4.6,6.8,4.8,7c0.2,0.2,0.6,0.2,0.8,0
	l2.9-3c0.1-0.1,0.2-0.3,0.2-0.4c0-0.1-0.1-0.3-0.2-0.4l-2.9-3C5.4-0.1,5-0.1,4.8,0.2C4.6,0.4,4.6,0.8,4.8,1l2,2L1.6,3z"/>
</svg>
