<?xml version="1.0" encoding="UTF-8"?>
<svg width="512pt" height="512pt" version="1.1" viewBox="0 0 512 512" xmlns="http://www.w3.org/2000/svg">
 <path d="m378.88 239.7c18.09 0 26.625 5.207 36.523 11.18 10.582 6.3984 22.527 13.652 45.398 13.652 4.6914 0 8.5352-3.8398 8.5352-8.5352 0-4.6914-3.8398-8.5352-8.5352-8.5352-18.09 0-26.625-5.207-36.523-11.18-10.582-6.3984-22.527-13.652-45.398-13.652s-34.816 7.2539-45.398 13.652c-6.9102 4.1797-13.227 7.9375-22.613 9.8125l-54.871-54.871c-19.543-19.543-41.129-34.559-64.258-44.715-20.223-8.875-38.656-13.141-54.785-12.543l-4.6094-4.6094 0.17188-0.17188c3.3281-3.3281 3.3281-8.7031 0-12.031l-17.152-17.152c-6.3984-6.3984-16.727-6.3984-23.125 0l-30.039 30.039c-6.3984 6.3984-6.3984 16.727 0 23.125l17.152 17.152c1.707 1.707 3.8398 2.4766 6.0586 2.4766s4.3516-0.85156 6.0586-2.4766l0.17188-0.17187 4.6094 4.6094c-0.59766 16.129 3.668 34.559 12.543 54.785 2.3906 5.5469 5.1211 10.922 8.1055 16.215-8.1055-2.0469-13.996-5.5469-20.309-9.3867-10.582-6.3984-22.527-13.652-45.398-13.652-4.6914 0-8.5352 3.8398-8.5352 8.5352 0 4.6914 3.8398 8.5352 8.5352 8.5352 18.09 0 26.625 5.207 36.523 11.18 9.8125 5.9727 20.992 12.629 41.047 13.484 7.2539 10.238 15.445 20.055 24.746 29.355l6.8281 6.8281c-6.9102 3.5-14.848 5.8867-27.223 5.8867-18.09 0-26.625-5.207-36.523-11.18-10.574-6.4922-22.52-13.742-45.391-13.742-4.6914 0-8.5352 3.8398-8.5352 8.5352 0 4.6914 3.8398 8.5352 8.5352 8.5352 18.09 0 26.625 5.207 36.523 11.18 10.582 6.3984 22.527 13.652 45.398 13.652 19.031 0 30.465-5.0352 39.852-10.41l28.414 28.414c-14.422 2.2188-23.551 7.6797-31.742 12.629-9.8984 5.9727-18.434 11.18-36.523 11.18s-26.625-5.207-36.523-11.18c-10.582-6.3984-22.527-13.652-45.398-13.652-4.6914 0-8.5352 3.8398-8.5352 8.5352 0 4.6914 3.8398 8.5352 8.5352 8.5352 18.09 0 26.625 5.207 36.523 11.18 10.582 6.3984 22.527 13.652 45.398 13.652s34.816-7.2539 45.398-13.652c9.8984-5.9727 18.434-11.18 36.523-11.18 0.85156 0 1.6211 0.085937 2.4766 0.085937l47.617 47.617c7.6797 7.6797 17.664 11.434 27.734 11.434 10.07 0 20.055-3.8398 27.734-11.434l46.848-46.848c3.3281-0.51172 7.082-0.85156 11.434-0.85156 18.09 0 26.625 5.207 36.523 11.18 10.582 6.3984 22.527 13.652 45.398 13.652 4.6914 0 8.5352-3.8398 8.5352-8.5352 0-4.6914-3.8398-8.5352-8.5352-8.5352-18.09 0-26.625-5.207-36.523-11.18-10.582-6.3984-22.527-13.652-45.398-13.652-0.42578 0-0.85156 0.085938-1.2812 0.085938 3.4141-13.055 0.17188-27.477-9.9844-37.719l-2.8164-2.8164c4.0117-0.85156 8.6172-1.3672 14.164-1.3672 18.09 0 26.625 5.207 36.523 11.18 10.582 6.3984 22.527 13.652 45.398 13.652 4.6914 0 8.5352-3.8398 8.5352-8.5352 0-4.6914-3.8398-8.5352-8.5352-8.5352-18.09 0-26.625-5.207-36.523-11.18-10.582-6.3984-22.527-13.652-45.398-13.652-11.777 0-20.652 1.9609-27.902 4.6914l-26.281-26.281c6.9961-2.5586 12.457-5.8867 17.664-9.0469 9.7227-6.0586 18.34-11.262 36.43-11.262zm-304.12-98.137 29.012-29.012 10.582 10.582-28.758 28.758-0.25781 0.25391zm36.266 23.809-7.3398-7.3398 16.555-16.555 7.3398 7.3398c1.793 1.793 4.2656 2.7305 6.7422 2.4766 14.164-1.1953 31.148 2.4766 50.434 10.922 21.164 9.3008 41.047 23.125 59.051 41.129l43.52 43.52c-11.945-1.4492-19.113-5.7188-27.051-10.582-10.582-6.3984-22.527-13.652-45.398-13.652s-34.816 7.2539-45.398 13.652c-8.9609 5.4609-16.895 10.156-31.66 11.008-5.207-8.0195-9.8125-16.215-13.566-24.746-8.4492-19.285-12.117-36.266-10.922-50.434 0.42578-2.4688-0.51172-4.9453-2.3047-6.7383zm197.46 227.93c-8.6172 8.6172-22.699 8.6172-31.316 0l-22.699-22.699c9.8984 5.8867 21.676 11.863 42.41 11.863 11.094 0 19.625-1.707 26.625-4.1797zm47.02-78.336c7.5938 7.5938 8.5352 19.371 2.7305 27.988-10.496 2.6445-17.922 7.082-24.746 11.266-9.8984 5.9727-18.434 11.18-36.523 11.18-18.09 0-26.625-5.207-36.523-11.18-8.875-5.375-18.859-11.348-35.328-13.055l-36.777-36.777c6.8281-3.3281 14.594-5.7188 26.711-5.7188 18.09 0 26.625 5.207 36.523 11.18 10.582 6.3984 22.527 13.652 45.398 13.652s34.816-7.2539 45.398-13.652c1.707-1.0234 3.4141-2.0469 5.1211-2.9883zm-20.566-20.566c-0.51172 0.25781-1.0234 0.59766-1.4492 0.85156-9.8984 5.9727-18.434 11.18-36.523 11.18-18.09 0-26.625-5.207-36.523-11.18-10.582-6.3984-22.527-13.652-45.398-13.652-18.688 0-30.039 4.8633-39.34 10.156l-10.07-10.07c-5.9727-5.9727-11.266-12.203-16.297-18.516 12.969-2.3906 21.504-7.5078 29.184-12.203 9.8984-5.9727 18.434-11.18 36.523-11.18 18.09 0 26.625 5.207 36.523 11.18 10.582 6.3984 22.527 13.652 45.398 13.652 2.8164 0 5.375-0.085938 7.8516-0.33984z" fill="#fff"/>
</svg>
