<svg id="Layer_1" data-name="Layer 1" xmlns="http://www.w3.org/2000/svg" viewBox="0 0 407.31 323"><path d="M405.63,302.15a21.78,21.78,0,0,0-3.56-3.5l-1.05-.89c-.64-2.05-2.16-3.08-4.53-3.08-.37,0-.76,0-1.17.05l-.47,0c-.51,0-1,.07-1.54.07-1.66,0-2.09-.32-2.34-1.95l-1.58-6.29a2.14,2.14,0,0,0-.62-1c-.34-.31-.67-.64-1-1a15.79,15.79,0,0,0-2.74-2.36c-4.17-2.7-5.68-7.11-7-11.78-2.18-7.89-4.25-15.82-6.32-23.74-1.1-4.23-2.21-8.47-3.33-12.69a4,4,0,0,0-.86-1.53c-.28-7.2-1.55-14.69-8-21.09-4.19-4.15-9.16-6.28-14-8.35-1.63-.7-3.25-1.4-4.85-2.18C335,198.09,328.43,194.62,323,190s-5-11.2-3.49-19.88c.66-3.81,1.14-7.69,1.61-11.45q.3-2.44.63-4.89l.48-1.59c2.75-.45,5.93-1.46,7.16-4.18,1.45-3.21-.67-6.91-2.38-9.4a54.32,54.32,0,0,0-7.17-7.94c-1.1-1.07-2.2-2.14-3.5-3.46-1.49-1.14-3-2.31-4.43-3.48a121,121,0,0,0-10.38-7.68c-6.34-4-13.27-8-21.21-12-6.52-3.33-13.58-4.73-20.42-6.08-2.07-.41-4.14-.82-6.2-1.29-5.89-1.33-11.71-1.36-17.34-1.38-2.33,0-4.65,0-7-.13l-2.61-.12c-3.46-.16-6.93-.32-10.4-.34h-.41c-3.37,0-6.7.23-9.52.45l-3.29.26c-6.1.48-12.4,1-18.59,1.69-7.44.85-15.4,1.92-25.06,3.37-4.21.63-8.45,1.46-12.54,2.27l-3.15.61c-2.83.55-5.65,1.12-8.48,1.68-4.71,1-9.42,1.89-14.15,2.75a13.5,13.5,0,0,1-2.35.21c-3.61,0-7-1.58-9.94-4.7-5.56-5.81-7.74-13.68-9.35-20.59-.45-1.94-.75-4-1-6a52.64,52.64,0,0,0-2-9.58A122.8,122.8,0,0,0,90.62,54c-.89-1.82-1.78-3.63-2.62-5.47a1.9,1.9,0,0,0-.44-.61L84.7,45l1-3.83.45-.47a2.1,2.1,0,0,0,.57-1.62l1-1.45c1.11-1.19,2.31-2.3,3.51-3.42,3.74-3.49,7.6-7.09,9.33-12.59L103.33,19c2.4-2.28,4.8-4.57,7.27-6.79,1.33-1.19,2.61-2.5,2.34-4.26s-2-2.75-3.8-3.55a2,2,0,0,0-.87-.19,2.28,2.28,0,0,0-.45,0l-4.54,1-.08-3.21a2.06,2.06,0,0,0-.86-1.64A2.05,2.05,0,0,0,101.1,0a2.32,2.32,0,0,0-.58.08c-.65.19-1.33.33-2,.48a14.78,14.78,0,0,0-5.17,1.77,41.81,41.81,0,0,0-9,8L83,11.91c-2.45,3-4.66,6.23-6.79,9.36-1.73,2.52-3.51,5.13-5.38,7.55l-1.33,1.76-1.74-.37A4.74,4.74,0,0,1,66,28.08c-.63-2.22-2.14-2.46-2.76-2.46-1.48,0-2.42,1.12-3.43,2.31l-.59.69c-.39.43-.73.86-1,1.26-.78,1-1.15,1.42-1.88,1.66a13.72,13.72,0,0,0-3,1.59,2.67,2.67,0,0,0-.78,1c-4.88,7.77-12.18,12.6-19.92,17.71q-1.91,1.26-3.8,2.53A95.23,95.23,0,0,0,14.46,66.29c-1.92,1.95-1.8,5.4-1.71,8.18l0,.63c.12,3.68,6.76,8.21,9.23,8.77a29.18,29.18,0,0,0,6.34.69,42,42,0,0,0,14-2.73,23.9,23.9,0,0,1,7.52-1.28,18.29,18.29,0,0,1,2.23.13c4.71.58,5.18,1.7,7.17,6.38L60,88.83a149.14,149.14,0,0,1,6.31,18.94c3,10.44,6,21.24,12.75,30.58,2.25,3.13,4.76,6.08,7.19,8.94,1.68,2,3.37,4,5,6,4.72,6,9.35,12.27,13.44,17.77.56.76.63,1-1.27,3.23-6.67,7.71-14.79,14.78-26.34,22.93a51.12,51.12,0,0,0-7.84,7.35c-.74.8-1.48,1.59-2.23,2.37-3.08,3.18-6.12,6.4-9.16,9.61-5.9,6.25-12,12.71-18.26,18.77A174.2,174.2,0,0,1,22.73,249.1l-1.47,1.11a19.61,19.61,0,0,1-3.93,2.07,23.94,23.94,0,0,0-4.67,2.49,48.93,48.93,0,0,0-5.92,5.46C6,261,5.21,261.81,4.5,262.5L.71,265.83A2.11,2.11,0,0,0,.1,268c1.52,4.83,4.48,7.34,9.05,7.67.46,0,.91.05,1.35.05a13.22,13.22,0,0,0,10.38-4.63c.26-.29.53-.56.81-.83a11.1,11.1,0,0,0,2.12-2.63c.25-.46.49-.94.72-1.41,1.54-3.07,2.63-5,5.33-5.48a2,2,0,0,0,.56-.19,10.87,10.87,0,0,0,1.27-.78c.18-.13.43-.3.61-.41.05.08.11.18.18.32a2.09,2.09,0,0,0,1.77,1.13h.1a2.07,2.07,0,0,0,1.76-1,111,111,0,0,1,38.17-36.25,29.48,29.48,0,0,0,5-3.91,31.75,31.75,0,0,1,3.3-2.79c4.42-3.11,8.56-6.62,12.58-10,7-5.93,14.23-12.06,22.91-16a26.27,26.27,0,0,1,11-2.61,25.39,25.39,0,0,1,7.62,1.24c1.92.59,3,1.17,3.31,1.77a4.12,4.12,0,0,1-.28,2.68c-1.62,4.8-3.53,9.61-5.38,14.27-1.24,3.14-2.49,6.28-3.67,9.44-1.09,2.93-2,5.94-2.9,8.85-.39,1.31-.8,2.61-1.21,3.91a2,2,0,0,0,.09,1.5l5.6,12.5a2,2,0,0,0,.36.55l.18.2a2.13,2.13,0,0,0,1.41,2c14.08,4.91,26.25,13,35.29,19.42a26,26,0,0,1,7.11,8.41c2.53,4.55,6.15,6.55,10.29,8.52,2.93,1.39,5.53,4,8.17,6.8.17.17.53.6.48.95s-.38.77-1.22,1.27c-6.78,4-13.68,8.22-21.08,12.9a8.08,8.08,0,0,0-2.4,2.69c-.14.23-.29.46-.44.68l-.87.58c-.94.64-1.89,1.28-2.76,2a6,6,0,0,0-2.15,5.48,5.34,5.34,0,0,0,3.34,4.17,21,21,0,0,0,7.59,1.86,10.32,10.32,0,0,0,7.2-2.89,11,11,0,0,1,.92-.68,6.93,6.93,0,0,0,2.75-2.8c1.44-3.25,3.39-4.46,7.22-4.46H194c2.13,0,4.48-1.1,7.38-3.48a44,44,0,0,0,4.82-4.84c.62-.69,1.23-1.38,1.92-2.1l5.26-6,1.51-1.48c1.25-.86,2.5-1.7,3.76-2.54,2.85-1.9,5.8-3.87,8.6-6,4.37-3.32,8.7-6.7,13-10.08,8.07-6.31,16.41-12.83,24.9-18.79,7.13-5,7.94-11.59,7.75-17.95-.18-5.73-.41-10.42-.73-14.78a13.43,13.43,0,0,0-.93-3.53c-.13-.33-.25-.66-.37-1-.13-1.87-.3-3.74-.47-5.6-.38-4.33-.79-8.81-.79-13.17,0-4,1.77-7.51,5.86-11.45,10.86,12.68,25.87,22,45.82,28.45,15.33,5,27.27,14,36.49,27.66l2.2,8.43c1.9,7.26,3.79,14.51,5.77,21.74,1.43,5.2,2.89,9.75,4.49,13.92a21.74,21.74,0,0,0,7.95,10.35,64.54,64.54,0,0,1,7.34,6.39c1.8,1.73,3.66,3.52,5.66,5.14a10.17,10.17,0,0,0,4.8,1.78c.6.12,1.19.22,1.61.33l3.83,1.39a2,2,0,0,0,.72.13,2.11,2.11,0,0,0,1.63-.78C405.78,311.85,409.49,307.29,405.63,302.15ZM50,53.27l.55-2.52a4.79,4.79,0,0,1,8.68-2.15l.65,1.31ZM243.67,232a55.08,55.08,0,0,1-.83,8.39c-1,5.26-1.94,9.94-4.36,14a19.34,19.34,0,0,1-2.91,3.76c-3.43,3.43-6.93,6.79-10.42,10.16s-7.06,6.82-10.53,10.28c-.46.47-.92.9-1.38,1.31-1.8,1.56-3.27,2.28-4.63,2.28a6.29,6.29,0,0,1-4.08-2,4.32,4.32,0,0,0-1.05-.68l-.78-.32-.47-.17c-.34-.33-.71-.67-1.09-1s-.79-.71-1.15-1.08a4.36,4.36,0,0,1-.75-1,12.76,12.76,0,0,0-2.26-6.41,22.72,22.72,0,0,0-5.78-5.37l-1.5-1.06q-2-1.43-4.13-2.77c-1.11-.72-2.23-1.42-3.35-2.13-2.94-1.85-6-3.78-8.79-5.86-6.75-5-13.44-10.32-19.91-15.46l-4.43-3.52c-1.34-1.06-2.69-2.76-1.26-6.48l.32-.83c.23-.62.47-1.25.73-1.88a15.16,15.16,0,0,1,1.15-2.29c6.16-9.69,12.8-20.06,19.6-30.24a3.89,3.89,0,0,1,2.41-1v-2.1l0,2.1c2.9,0,5.9.3,8.79.57,1.19.11,2.37.21,3.82.31l4.52-.23c3.42-.18,7-.37,10.6-.39,2.51,0,5.1.2,7.61.4,1.2.09,2.39.18,3.58.25h.13a2.2,2.2,0,0,0,.36,0l30.63-5.31v7.37c0,1.29-.16,2.59-.27,3.89l-.17,2.28c-.08,1.08-.13,2.15-.14,3.21a28,28,0,0,0,.13,3.31c.22,2.21.47,4.41.73,6.62A135.74,135.74,0,0,1,243.67,232Z" fill="#716558" opacity="0.2"/></svg>