<svg xmlns="http://www.w3.org/2000/svg" viewBox="0 0 119 118"><circle cx="59.69" cy="59.37" r="56.58" fill="#fff"/><circle cx="59.69" cy="59.37" r="51.57" fill="#b4bf80"/><circle cx="79.84" cy="98.06" r="2.41" fill="#b4bf80"/><path d="M79.84,100.85a3,3,0,0,1-.88-.14,2.79,2.79,0,0,1-.37-5.14,2.74,2.74,0,0,1,2.12-.15,2.7,2.7,0,0,1,1.61,1.39,2.74,2.74,0,0,1,.16,2.12,2.78,2.78,0,0,1-1.39,1.62h0A2.74,2.74,0,0,1,79.84,100.85Zm0-4.82a2.09,2.09,0,0,0-.91.21A2,2,0,0,0,78,99a2,2,0,0,0,1.18,1,2,2,0,0,0,1.55-.11h0a2,2,0,0,0,.9-2.73,2,2,0,0,0-1.17-1A2.05,2.05,0,0,0,79.83,96Z" fill="#fff"/><path d="M89.08,92A8.93,8.93,0,0,1,80.6,80.31,8.93,8.93,0,1,1,93.09,91.08h0A8.87,8.87,0,0,1,89.08,92Zm0-17a8,8,0,1,0,3.62,15.2h0a8,8,0,0,0-1.09-14.79A8.17,8.17,0,0,0,89.06,75.08Z" fill="#fff"/><circle cx="92.4" cy="78.42" r="0.99" fill="#f7f7f8"/><path d="M83.62,91.08a3.31,3.31,0,0,0-3.15-5.76L66.1,95.61a3.3,3.3,0,0,0,4.1,5.17C70.52,100.56,83.37,91.26,83.62,91.08Z" fill="#b4bf80" stroke="#b4bf80" stroke-miterlimit="10" stroke-width="2"/><circle cx="90.12" cy="83.49" r="0.99" fill="#f7f7f8"/><circle cx="89.48" cy="88.55" r="0.99" fill="#f7f7f8"/><circle cx="88.86" cy="72.64" r="0.99" fill="#f7f7f8"/><circle cx="80.85" cy="77.72" r="0.89" fill="#fff"/><circle cx="86.17" cy="77.68" r="0.89" fill="#fff"/><circle cx="94.97" cy="82.43" r="0.89" fill="#fff"/><circle cx="94.6" cy="86.3" r="0.89" fill="#fff"/><circle cx="84.05" cy="73.58" r="0.89" fill="#fff"/><circle cx="70.87" cy="85.8" r="1.35" fill="#f7f7f8"/><circle cx="77.39" cy="102.25" r="1.35" fill="#f7f7f8"/><circle cx="89.48" cy="97.42" r="1.35" fill="#f7f7f8"/><circle cx="57.63" cy="102.04" r="1.35" fill="#f7f7f8"/><path d="M33,84.18H28.21V79.6a12.11,12.11,0,0,1-6.57-3.09c-1.6-1.59-2.78-4.06-3.53-7.35l-.1-.44,5.79-1.21.11.39a11.12,11.12,0,0,0,2.36,4.68A5.37,5.37,0,0,0,30,73.84a5.23,5.23,0,0,0,3.81-1.47,4.9,4.9,0,0,0,1.5-3.73,4.32,4.32,0,0,0-1.23-3.25,12.87,12.87,0,0,0-2-1.4,33.93,33.93,0,0,0-3.42-1.76c-3-1.34-4.91-2.55-5.88-3.71a9,9,0,0,1-2.28-6.14,9,9,0,0,1,.55-3.16,8.73,8.73,0,0,1,1.57-2.66,9.79,9.79,0,0,1,2.53-2.06,13.29,13.29,0,0,1,3-1.26v-4.5H33v4.47A9.53,9.53,0,0,1,37.19,45a14,14,0,0,1,3.33,4.2l.21.39-5.16,2.89-.22-.4c-1.24-2.26-2.8-3.36-4.76-3.36a4.24,4.24,0,0,0-3,1.06,3.25,3.25,0,0,0-1.15,2.57,3.13,3.13,0,0,0,.92,2.33,14.75,14.75,0,0,0,4,2.35A43.82,43.82,0,0,1,36,59.36a12.4,12.4,0,0,1,2.77,2.18,9.86,9.86,0,0,1,2.65,6.92,11.06,11.06,0,0,1-2.38,7,11.51,11.51,0,0,1-6,4Zm-3.93-.9h3V78.74l.33-.09a10.68,10.68,0,0,0,5.82-3.74,10.23,10.23,0,0,0,2.19-6.45,9,9,0,0,0-2.42-6.31,11.59,11.59,0,0,0-2.57-2,40.45,40.45,0,0,0-4.44-2.29,15.83,15.83,0,0,1-4.3-2.54,4,4,0,0,1-1.18-3A4.19,4.19,0,0,1,27,49.08a5.16,5.16,0,0,1,3.57-1.28c2.17,0,4,1.16,5.33,3.43l3.58-2a12.53,12.53,0,0,0-2.86-3.54A8.9,8.9,0,0,0,32.51,44L32.14,44V39.65h-3v4.29l-.33.09a12.33,12.33,0,0,0-3.14,1.25,8.92,8.92,0,0,0-2.3,1.87,7.77,7.77,0,0,0-1.41,2.38,8.24,8.24,0,0,0-.49,2.85,8.11,8.11,0,0,0,2.06,5.55c.88,1,2.75,2.21,5.57,3.48a33.54,33.54,0,0,1,3.51,1.81,12.53,12.53,0,0,1,2.13,1.52,5.23,5.23,0,0,1,1.51,3.9A5.85,5.85,0,0,1,34.45,73,6.19,6.19,0,0,1,30,74.74a6.23,6.23,0,0,1-4.36-1.51,11.26,11.26,0,0,1-2.48-4.67l-4.08.85a13.71,13.71,0,0,0,3.19,6.47,11.53,11.53,0,0,0,6.45,2.9l.38.06Z" fill="#fff"/><path d="M69.48,93.05a.35.35,0,0,1-.3-.16l-.92-1.27a.37.37,0,0,1,.61-.43l.92,1.27a.37.37,0,0,1-.09.52A.36.36,0,0,1,69.48,93.05Z" fill="#fff"/><path d="M88.67,77h0a.38.38,0,0,1-.35-.4l.19-4a.35.35,0,0,1,.39-.35.37.37,0,0,1,.36.39l-.19,4A.38.38,0,0,1,88.67,77Z" fill="#fff"/><path d="M87.06,80a.39.39,0,0,1-.34-.21L86,78.35a.37.37,0,0,1,.17-.5.38.38,0,0,1,.5.17l.7,1.44a.38.38,0,0,1-.17.5A.35.35,0,0,1,87.06,80Z" fill="#fff"/><path d="M85.24,76.32a.35.35,0,0,1-.33-.2l-1-2a.37.37,0,0,1,.16-.5.37.37,0,0,1,.51.16l1,2a.37.37,0,0,1-.16.51A.33.33,0,0,1,85.24,76.32Z" fill="#fff"/><circle cx="95.71" cy="91.5" r="0.89" fill="#fff"/><path d="M95.41,91.59a.36.36,0,0,1-.24-.09l-1.72-1.44a.38.38,0,0,1,.49-.57l1.71,1.43a.38.38,0,0,1,0,.53A.38.38,0,0,1,95.41,91.59Z" fill="#fff"/><path d="M91.28,80.44a.32.32,0,0,1-.19,0,.37.37,0,0,1-.14-.51l.54-1a.39.39,0,0,1,.52-.14.37.37,0,0,1,.14.51l-.55,1A.37.37,0,0,1,91.28,80.44Z" fill="#fff"/><path d="M83.14,79.09a.29.29,0,0,1-.16,0l-1.32-.6a.37.37,0,0,1-.19-.49.39.39,0,0,1,.5-.19l1.32.6a.38.38,0,0,1-.15.72Z" fill="#fff"/><circle cx="88.3" cy="92.61" r="0.89" fill="#fff"/><path d="M88.57,92l-.11,0a.36.36,0,0,1-.24-.47l.43-1.38a.38.38,0,1,1,.72.22l-.44,1.38A.38.38,0,0,1,88.57,92Z" fill="#fff"/><path d="M83.47,90.91a3.3,3.3,0,0,0-3.15-5.75L66,95.45a3.31,3.31,0,0,0,4.11,5.17Z" fill="#b4bf80"/><path d="M68.14,101.69a3.24,3.24,0,0,1-.62,0,3.69,3.69,0,0,1-2.44-1.52,3.73,3.73,0,0,1,.58-5L80.15,84.74a3.76,3.76,0,0,1,3.59,6.54l-5.49,4L70.32,101A3.72,3.72,0,0,1,68.14,101.69Zm12.4-16.13L66.22,95.82a2.85,2.85,0,0,0,3.57,4.43c.18-.12,4.3-3.1,7.93-5.73l5.49-4h0a2.85,2.85,0,0,0-2.67-5Z" fill="#fff"/><path d="M70.33,102.1a.39.39,0,0,1-.35-.23l-.8-2a.37.37,0,0,1,.2-.49.37.37,0,0,1,.49.21l.81,2a.37.37,0,0,1-.21.49A.32.32,0,0,1,70.33,102.1Z" fill="#fff"/><path d="M74.36,90a.37.37,0,0,1-.3-.15l-1.18-1.51a.38.38,0,0,1,.59-.47l1.18,1.52a.38.38,0,0,1-.06.53A.4.4,0,0,1,74.36,90Z" fill="#fff"/><path d="M79.45,87.14a.37.37,0,0,1-.34-.22L78.19,85a.36.36,0,0,1,.17-.5.37.37,0,0,1,.5.18l.93,1.92a.37.37,0,0,1-.18.5A.32.32,0,0,1,79.45,87.14Z" fill="#fff"/><path d="M76.15,89.36a.37.37,0,0,1-.31-.17l-1.32-1.94a.38.38,0,0,1,.1-.52.37.37,0,0,1,.52.1l1.32,1.94a.37.37,0,0,1-.1.52A.4.4,0,0,1,76.15,89.36Z" fill="#fff"/><path d="M81.93,86a.37.37,0,0,1-.37-.37V83.36a.38.38,0,0,1,.38-.38h0a.38.38,0,0,1,.37.37v2.27a.38.38,0,0,1-.38.37Z" fill="#fff"/><path d="M67,102.59a.25.25,0,0,1-.12,0,.37.37,0,0,1-.24-.47l.63-1.9a.37.37,0,0,1,.71.23l-.63,1.9A.37.37,0,0,1,67,102.59Z" fill="#fff"/><path d="M83.57,87.44a.36.36,0,0,1-.33-.2.37.37,0,0,1,.14-.51L85.6,85.5a.38.38,0,0,1,.36.66l-2.21,1.23A.41.41,0,0,1,83.57,87.44Z" fill="#fff"/><rect x="71.22" y="96.85" width="0.75" height="3.58" transform="translate(-47.93 74.78) rotate(-42.74)" fill="#fff"/><path d="M81.73,94.82a.37.37,0,0,1-.31-.17l-1-1.49a.37.37,0,0,1,.09-.52.38.38,0,0,1,.53.1l1,1.49a.37.37,0,0,1-.1.52A.4.4,0,0,1,81.73,94.82Z" fill="#fff"/><path d="M83.67,93.05a.38.38,0,0,1-.3-.16l-1.45-2a.38.38,0,1,1,.6-.45l1.45,2a.36.36,0,0,1-.08.52A.35.35,0,0,1,83.67,93.05Z" fill="#fff"/><path d="M67.94,94.43a.38.38,0,0,1-.3-.15l-1.39-1.87a.38.38,0,0,1,.6-.45l1.4,1.87a.37.37,0,0,1-.08.52A.34.34,0,0,1,67.94,94.43Z" fill="#fff"/><path d="M64.64,97.62a.37.37,0,0,1-.2-.69l1.27-.8a.4.4,0,0,1,.52.12.38.38,0,0,1-.12.52l-1.27.8A.35.35,0,0,1,64.64,97.62Z" fill="#fff"/><path d="M65.9,97.8h0l-2.2-.18a.36.36,0,0,1-.34-.4.37.37,0,0,1,.4-.35l2.2.18a.38.38,0,0,1,0,.75Z" fill="#fff"/><path d="M86.33,89.78h-.09l-1.74-.45a.38.38,0,0,1-.27-.46.38.38,0,0,1,.46-.27l1.74.45a.38.38,0,0,1,.27.46A.38.38,0,0,1,86.33,89.78Z" fill="#fff"/><path d="M66.94,96.35a.41.41,0,0,1-.18,0l-2.21-1.14a.38.38,0,0,1-.16-.5.37.37,0,0,1,.51-.16l2.21,1.14a.37.37,0,0,1,.16.5A.39.39,0,0,1,66.94,96.35Z" fill="#fff"/><circle cx="76.17" cy="97.73" r="2.41" fill="#b4bf80"/><path d="M76.18,100.51a2.77,2.77,0,1,1,1.25-.29h0A2.79,2.79,0,0,1,76.18,100.51Zm0-4.82a2.1,2.1,0,0,0-.91.22,2,2,0,0,0,1.83,3.63h0a2,2,0,0,0,.9-2.73,2.09,2.09,0,0,0-1.82-1.12Z" fill="#fff"/><circle cx="63.01" cy="105.25" r="2.56" fill="#b4bf80"/><path d="M63,108.18a2.93,2.93,0,1,1,1.31-.31A2.93,2.93,0,0,1,63,108.18Zm0-5.12a2.14,2.14,0,0,0-1,.23,2.18,2.18,0,0,0-1,2.94,2.18,2.18,0,0,0,2.93,1h0a2.19,2.19,0,0,0-1-4.14Z" fill="#fff"/><circle cx="73.16" cy="97.74" r="2.56" fill="#b4bf80"/><path d="M73.16,100.68a2.91,2.91,0,0,1-.92-.15,2.93,2.93,0,0,1-1.87-3.72,2.94,2.94,0,0,1,5.41-.4,2.95,2.95,0,0,1-2.62,4.27Zm0-5.13a2.28,2.28,0,0,0-1,.23,2.14,2.14,0,0,0-1.09,1.27,2.18,2.18,0,0,0,1.39,2.76,2.15,2.15,0,0,0,1.67-.12h0a2.19,2.19,0,0,0-.3-4A2,2,0,0,0,73.16,95.55Z" fill="#fff"/><ellipse cx="80.04" cy="89.06" rx="0.61" ry="0.47" transform="translate(-31.49 45.49) rotate(-26.71)" fill="#fff"/><ellipse cx="82.82" cy="88.5" rx="0.61" ry="0.47" transform="translate(-30.94 46.67) rotate(-26.71)" fill="#fff"/><ellipse cx="74.23" cy="91.31" rx="0.61" ry="0.47" transform="translate(-33.12 43.11) rotate(-26.71)" fill="#fff"/><ellipse cx="68.98" cy="96.55" rx="0.61" ry="0.47" transform="translate(-36.04 41.31) rotate(-26.71)" fill="#fff"/><ellipse cx="71.25" cy="93.34" rx="0.61" ry="0.47" transform="translate(-34.35 41.99) rotate(-26.71)" fill="#fff"/><ellipse cx="77.79" cy="92.69" rx="0.61" ry="0.47" transform="translate(-33.36 44.86) rotate(-26.71)" fill="#fff"/><circle cx="102.22" cy="72.02" r="2.26" fill="#b4bf80"/><path d="M102.22,74.66a2.64,2.64,0,1,1,1.18-.28h0A2.56,2.56,0,0,1,102.22,74.66Zm0-4.53a1.89,1.89,0,0,0-.84.2,1.91,1.91,0,0,0-1,1.1,1.89,1.89,0,0,0,1.2,2.38,1.92,1.92,0,0,0,1.45-.1h0a1.89,1.89,0,0,0,.83-2.54,1.85,1.85,0,0,0-1.09-.94A1.8,1.8,0,0,0,102.21,70.13Z" fill="#fff"/><circle cx="103.09" cy="68.71" r="2.56" fill="#b4bf80"/><path d="M103.09,71.65a3,3,0,0,1-.93-.15,2.87,2.87,0,0,1-1.7-1.47,2.91,2.91,0,0,1-.16-2.24,2.87,2.87,0,0,1,1.47-1.7,2.94,2.94,0,1,1,2.64,5.25h0A2.94,2.94,0,0,1,103.09,71.65Zm0-5.13A2.2,2.2,0,0,0,101,68a2.19,2.19,0,0,0,3.06,2.64h0a2.2,2.2,0,0,0,1.09-1.27,2.18,2.18,0,0,0-1.39-2.76A2,2,0,0,0,103.09,66.52Z" fill="#fff"/><path d="M72.4,92.49a.37.37,0,0,1-.31-.16l-1.45-2.14a.37.37,0,0,1,.1-.52.38.38,0,0,1,.52.1l1.45,2.14a.36.36,0,0,1-.1.52A.37.37,0,0,1,72.4,92.49Z" fill="#fff"/><path d="M55.7,22.82A5,5,0,0,1,52,20.92h0c-1.44-2.67-5.35-1.88-6.77-2A11.44,11.44,0,0,1,43,18.79c-.05,0,2.1-.6,2.5-.69,1.73-.37,6.89-2.11,9.1-1.19,1.29.53,3.26,2.64,3.27,4.23a1.52,1.52,0,0,1-1,1.46A2.92,2.92,0,0,1,55.7,22.82Zm-7-4.67c1.58.21,3.19.65,4.1,2.35h0c.24.44,2.23,1.89,3.71,1.27a.62.62,0,0,0,.44-.63c0-1.1-1.6-2.94-2.71-3.4S50.82,17.79,48.67,18.15Z" fill="#fff"/><path d="M61.81,22.17A5,5,0,0,1,58,20.06h0c-1.72-3.69-6.11-4.13-6.16-4.13l-1.34-.13a11.74,11.74,0,0,1,3.19-.68,17.1,17.1,0,0,1,7.11,1.08c1.25.61,3.1,2.82,3,4.41A1.52,1.52,0,0,1,62.76,22,2.83,2.83,0,0,1,61.81,22.17Zm-3-2.49c.21.46,2.12,2,3.63,1.48a.62.62,0,0,0,.47-.6c.06-1.1-1.42-3-2.51-3.55a19.77,19.77,0,0,0-5.29-1,7.82,7.82,0,0,1,3.7,3.7Z" fill="#fff"/><path d="M49.26,30.28l2.08-.6a8.33,8.33,0,0,0,5.2-5.07c.27-.84,2.39-3,4.47-2.53a1.5,1.5,0,0,1,1.23,1.25c.29,1.57-1.27,4-2.44,4.76-1.65,1.07-6.78,2.17-8.34,2.17Zm11.16-7.36a4.1,4.1,0,0,0-3,2h0A7.81,7.81,0,0,1,54.18,29a19.54,19.54,0,0,0,5.13-1.7c1-.66,2.24-2.75,2-3.84a.62.62,0,0,0-.55-.53A1.61,1.61,0,0,0,60.42,22.92Z" fill="#fff"/><path d="M60.64,30.16a25.2,25.2,0,0,1-4.14.35,5.64,5.64,0,0,1-1.75-.08l1.84-.5s4.24-1,5.68-4.8h0c.31-.83,2.55-2.87,4.59-2.31A1.52,1.52,0,0,1,68,24.14c.21,1.58-1.47,3.93-2.68,4.63A18.65,18.65,0,0,1,60.64,30.16Zm-1-.74A19.7,19.7,0,0,0,64.9,28c1-.61,2.38-2.64,2.24-3.73a.62.62,0,0,0-.51-.57c-1.56-.42-3.34,1.28-3.52,1.76h0A7.8,7.8,0,0,1,59.69,29.42Z" fill="#fff"/><path d="M68.53,23.54c-2,0-3.72-2.2-3.88-3h0c-.62-3.07-3.45-4.67-4.51-5.28-.4-.22-1.72-.79-1.91-1a11.48,11.48,0,0,1,3,.34c1.25.3,5.29,1.32,7.1,2.82,1.07.89,2.35,3.48,1.89,5a1.51,1.51,0,0,1-1.37,1.11Zm-3-3.21c.1.5,1.57,2.47,3.18,2.3a.61.61,0,0,0,.6-.47c.31-1.06-.67-3.28-1.6-4a20.13,20.13,0,0,0-5.08-2.3,7.91,7.91,0,0,1,2.9,4.51Z" fill="#fff"/><path d="M70.07,30.25c-2.48.81-7.78.91-8.47.92a6.55,6.55,0,0,1-1.48-.2l1.79-.37c.05,0,4.32-.75,6-4.45h0c.37-.81,2.73-2.7,4.74-2a1.52,1.52,0,0,1,1.08,1.39c.1,1.59-1.73,3.82-3,4.44A6.88,6.88,0,0,1,70.07,30.25Zm-5,0a19.53,19.53,0,0,0,5.3-1.09c1.08-.54,2.55-2.48,2.48-3.57a.61.61,0,0,0-.48-.6c-1.45-.5-3.39,1-3.62,1.52h0A7.84,7.84,0,0,1,65.05,30.26Z" fill="#fff"/><path d="M74.54,25h-.18c-2.12-.2-3.49-2.88-3.49-3.77h0c0-3.13-2.45-5.55-3.38-6.35-.35-.3-1.21-1-1.21-1a9.38,9.38,0,0,1,2.08.72c1,.41,5.18,2.46,6.67,4.28.88,1.08,1.63,3.87.89,5.27A1.5,1.5,0,0,1,74.54,25ZM69.8,16.22a7.92,7.92,0,0,1,2,5h0c0,.55,1.14,2.73,2.67,2.87a.62.62,0,0,0,.68-.35c.52-1,0-3.34-.79-4.27A20.12,20.12,0,0,0,69.8,16.22Z" fill="#fff"/><path d="M76,32.25c-2.15.63-7.26,0-8.38-.11a4.55,4.55,0,0,1-1.79-.63l1.75,0A8.16,8.16,0,0,0,73.86,28h0c.48-.74,3.11-2.23,5-1.23a1.49,1.49,0,0,1,.85,1.54c-.14,1.58-2.3,3.5-3.62,3.92Zm-5.6-.63a18.5,18.5,0,0,0,5.4-.25c1.15-.36,2.9-2.05,3-3.15a.62.62,0,0,0-.38-.66c-1.36-.72-3.51.48-3.81.94A7.75,7.75,0,0,1,70.4,31.62Z" fill="#fff"/><path d="M80.4,27.81a1.87,1.87,0,0,1-.4,0c-2.07-.45-3.11-3.29-3-4.17h0c.38-3.11-1.62-5.64-2.45-6.55-.31-.34-.94-1.17-.94-1.17s.67.28,1.06.45,5.49,3.49,6.75,5.48c.74,1.17,1.14,4,.23,5.33A1.48,1.48,0,0,1,80.4,27.81Zm-3.85-9.29a7.88,7.88,0,0,1,1.35,5.19h0c-.07.55.79,2.85,2.3,3.18a.61.61,0,0,0,.71-.26c.63-.9.39-3.32-.25-4.34A20.14,20.14,0,0,0,76.55,18.52Z" fill="#fff"/><path d="M80.83,35a2.57,2.57,0,0,1-.44.08c-2.17.26-8.54-1.43-9.26-1.66A5,5,0,0,1,70,33l1.87,0A9.42,9.42,0,0,0,79,30.5h0c.61-.64,3.47-1.61,5.13-.28a1.52,1.52,0,0,1,.55,1.67C84.3,33.27,82.24,34.61,80.83,35ZM74.94,33.4a19.14,19.14,0,0,0,5.35.77c1.2-.14,3.23-1.47,3.54-2.53a.6.6,0,0,0-.25-.72c-1.25-1-3.56-.16-3.92.21h0A7.76,7.76,0,0,1,74.94,33.4Z" fill="#fff"/><path d="M85.22,30.83a1.62,1.62,0,0,1-.63-.13c-2-.77-2.56-3.73-2.31-4.59h0c.86-3-.92-5.72-1.59-6.75a10.39,10.39,0,0,1-.93-1.59,9.11,9.11,0,0,1,1.4.86c.44.28,4.84,4.24,5.76,6.41.55,1.28.5,4.16-.61,5.3A1.46,1.46,0,0,1,85.22,30.83ZM82.64,21a8,8,0,0,1,.51,5.33h0c-.16.53.33,2.94,1.77,3.5a.6.6,0,0,0,.74-.14c.77-.79.91-3.22.44-4.33A20.48,20.48,0,0,0,82.64,21Z" fill="#fff"/><path d="M85.48,38.83a3.58,3.58,0,0,1-1.07.13c-3.39-.33-8.14-3-8.66-3.31s-1.08-.74-1.08-.74l1.59.42s4.21,1.41,7.43-1.08h0c.7-.55,3.67-1.11,5.12.44a1.52,1.52,0,0,1,.31,1.73C88.61,37.56,86.87,38.49,85.48,38.83Zm-6.23-2.28a19.45,19.45,0,0,0,5.19,1.51c1.21,0,3.4-1,3.85-2a.59.59,0,0,0-.14-.74c-1.1-1.18-3.5-.66-3.91-.35A7.77,7.77,0,0,1,79.25,36.55Z" fill="#fff"/><path d="M90,35.14a1.74,1.74,0,0,1-.8-.21c-1.86-1-2.07-4-1.72-4.84h0c1.23-2.88-.21-5.8-.75-6.9-.2-.41-.66-1.65-.66-1.65s.72.68,1,.95,4.46,4.84,5.11,7.1c.39,1.34,0,4.2-1.26,5.19A1.51,1.51,0,0,1,90,35.14Zm-1.69-4.7c-.2.47-.09,2.93,1.32,3.69a.61.61,0,0,0,.76-.05c.86-.69,1.3-3.08,1-4.24a20.55,20.55,0,0,0-2.9-4.76,7.89,7.89,0,0,1-.15,5.36Z" fill="#fff"/><path d="M90.56,42.52a5.26,5.26,0,0,1-1.83.37c-2.19-.07-7.63-3-8.21-3.36s-1.21-.85-1.21-.85l1.34.31s4.14,1.66,7.37-.82h0c.7-.54,3.67-1.09,5.12.47a1.5,1.5,0,0,1,.3,1.73A5.07,5.07,0,0,1,90.56,42.52Zm-7-2.06A19.54,19.54,0,0,0,88.75,42c1.21,0,3.41-1,3.87-2a.6.6,0,0,0-.14-.75c-1.1-1.18-3.51-.67-3.91-.36A7.78,7.78,0,0,1,83.57,40.46Z" fill="#fff"/><path d="M93.91,39.74a1.58,1.58,0,0,1-.92-.32c-1.74-1.22-1.6-4.23-1.16-5h0c1.54-2.72.45-5.78,0-6.94a10.52,10.52,0,0,1-.75-2.22,22.4,22.4,0,0,1,1.64,1.87c.65.72,3.44,5,3.83,7.34.24,1.37-.5,4.16-1.84,5A1.59,1.59,0,0,1,93.91,39.74Zm-1.3-4.88c-.25.45-.43,2.9.89,3.82a.63.63,0,0,0,.77,0c.93-.59,1.64-2.91,1.43-4.1a19.9,19.9,0,0,0-2.33-5.06,7.81,7.81,0,0,1-.76,5.3Z" fill="#fff"/><path d="M48.4,28.91a9.36,9.36,0,0,1-3.2-.44c-.4-.16-1.06-.3-1-.39S45,28,45.32,28a6.82,6.82,0,0,0,5-3.29c.81-1.5,3.1-2.15,4.75-2.2.3,0,1.31-.08,1.54.87C57,24.72,55,27.05,53.8,28,52.79,28.7,50.47,28.91,48.4,28.91Zm2.81-4c-.62.89-1.3,2.5-2.74,3.09,1.89,0,4-.18,4.79-.78,1.12-.82,2.76-2.88,2.16-3.63S51.82,24,51.21,24.92Z" fill="#fff"/><path d="M99.18,47.12a.36.36,0,0,1-.5-.06L92.94,40c-.38-.47-.1-.66.41-1.08l.39.1c1-.12,1.27-1,1.65-.51l5.48,6.8a.36.36,0,0,1-.05.5Zm-4.67-7.93c-.06,0-.24,0-.31,0l-.37.08c-.14.11-.24,0-.19.1L99,46.07l.79-.64-5-6.2A.93.93,0,0,0,94.51,39.19Z" fill="#fff"/><path d="M48.54,24.46A2.72,2.72,0,0,1,48,24.4a25.24,25.24,0,0,0-7.13-.07l1.31-.75a22.53,22.53,0,0,0,4.76-2.9h0a3.68,3.68,0,0,1,3.36-.62,2.33,2.33,0,0,1,1.66,1.52,1.74,1.74,0,0,1-.47,1.7A4.27,4.27,0,0,1,48.54,24.46Zm-3.49-1.25a15,15,0,0,1,3.1.31,3.28,3.28,0,0,0,2.64-.85.81.81,0,0,0,.27-.84A1.48,1.48,0,0,0,50,20.92a2.79,2.79,0,0,0-2.52.45h0a16,16,0,0,1-2.86,1.85Z" fill="#fff"/><path d="M45.66,72.58c-.41-.93-.83-1.86-1.25-2.79C44,71.24,44.51,72.35,45.66,72.58Z" fill="#716558"/><path d="M46.62,73.53a.88.88,0,0,1,0-.16Z" fill="#716558"/><path d="M29.32,68.8,27,71.2l-.09-.09,2.38-2.36Z" fill="#716558"/><path d="M54.19,90.87a4.67,4.67,0,0,1-1.69-.42,1.21,1.21,0,0,1-.75-.93,1.34,1.34,0,0,1,.48-1.22c.2-.16.41-.3.62-.45l.19-.13a1.3,1.3,0,0,0,.1-.15,2,2,0,0,1,.54-.6c1.65-1,3.19-2,4.7-2.88.19-.11.27-.22.28-.28s-.08-.18-.11-.21a6.53,6.53,0,0,0-1.83-1.52,4.54,4.54,0,0,1-2.29-1.9,5.78,5.78,0,0,0-1.59-1.88A31.78,31.78,0,0,0,45,74a.47.47,0,0,1-.32-.45l0,0a.83.83,0,0,1-.08-.12l-1.25-2.79a.42.42,0,0,1,0-.33l.27-.88c.2-.65.41-1.32.65-2s.54-1.41.82-2.11c.41-1,.84-2.11,1.2-3.18a.93.93,0,0,0,.06-.6c-.07-.14-.31-.27-.74-.4a5.59,5.59,0,0,0-1.7-.28,5.84,5.84,0,0,0-2.45.59A22.15,22.15,0,0,0,36.26,65c-.9.76-1.82,1.54-2.81,2.24a8.11,8.11,0,0,0-.74.62,5.94,5.94,0,0,1-1.1.87,24.82,24.82,0,0,0-8.52,8.09.47.47,0,0,1-.39.22h0a.5.5,0,0,1-.39-.25l0-.08-.14.1-.28.17a.28.28,0,0,1-.13,0c-.6.11-.84.54-1.19,1.23-.05.1-.1.21-.16.31a2.54,2.54,0,0,1-.47.59l-.18.18a3,3,0,0,1-2.32,1h-.3a2.17,2.17,0,0,1-2-1.72.48.48,0,0,1,.14-.49l.84-.74.51-.51a10.87,10.87,0,0,1,1.31-1.22,5.91,5.91,0,0,1,1-.56,4,4,0,0,0,.87-.46l.33-.24a39.85,39.85,0,0,0,3.77-3.08c1.39-1.35,2.75-2.79,4.07-4.19L30,65c.17-.18.34-.35.5-.53a11.34,11.34,0,0,1,1.75-1.64,31.53,31.53,0,0,0,5.88-5.12c.43-.49.41-.55.28-.72-.91-1.23-1.94-2.62-3-4-.35-.45-.73-.89-1.1-1.34-.55-.63-1.11-1.29-1.61-2a21.4,21.4,0,0,1-2.84-6.83,34.81,34.81,0,0,0-1.41-4.22l-.17-.4c-.45-1-.55-1.29-1.6-1.42a4.19,4.19,0,0,0-.5,0,5.43,5.43,0,0,0-1.68.28,9.16,9.16,0,0,1-3.13.61,6.69,6.69,0,0,1-1.41-.15c-.55-.13-2-1.14-2.06-2V35.4a2.44,2.44,0,0,1,.38-1.82,20.64,20.64,0,0,1,3.2-2.66l.85-.57a13.79,13.79,0,0,0,4.45-4,.47.47,0,0,1,.17-.22,3.25,3.25,0,0,1,.67-.36c.16-.05.25-.15.42-.37l.23-.28.14-.16c.22-.26.43-.51.76-.51a.64.64,0,0,1,.62.55,1,1,0,0,0,.38.47l.39.09.29-.4c.42-.54.82-1.12,1.2-1.68s1-1.42,1.52-2.09l.31-.36a9.28,9.28,0,0,1,2-1.78A3.5,3.5,0,0,1,37,18.9l.45-.1.13,0a.47.47,0,0,1,.28.09.45.45,0,0,1,.19.37l0,.72,1-.22h.1a.45.45,0,0,1,.2,0c.39.18.78.39.84.79s-.22.69-.52,1c-.55.5-1.08,1-1.62,1.52l-.61.58a6.57,6.57,0,0,1-2.08,2.81c-.27.25-.53.49-.78.76l-.23.32a.46.46,0,0,1-.13.36l-.1.11-.23.85.64.66a.45.45,0,0,1,.1.14c.19.41.39.82.58,1.22a26.53,26.53,0,0,1,1.29,2.93A10.76,10.76,0,0,1,37,35.91c.07.44.14.9.24,1.34a9.56,9.56,0,0,0,2.08,4.59,3,3,0,0,0,2.22,1,2.44,2.44,0,0,0,.53,0c1-.19,2.1-.4,3.15-.61l1.9-.37.7-.14c.91-.18,1.86-.37,2.8-.51,2.15-.32,3.93-.56,5.59-.75,1.38-.16,2.79-.27,4.15-.38l.73,0c.63-.05,1.38-.11,2.13-.11h.09c.77,0,1.55,0,2.32.08l.58,0,1.56,0a17.08,17.08,0,0,1,3.87.31l1.38.28A17.06,17.06,0,0,1,77.58,42c1.77.9,3.32,1.78,4.73,2.68a26.69,26.69,0,0,1,2.32,1.71l1,.78.78.77A12.85,12.85,0,0,1,88,49.72a2.29,2.29,0,0,1,.53,2.1,2,2,0,0,1-1.59.93l-.11.36c0,.36-.1.73-.14,1.09-.11.84-.22,1.71-.36,2.56-.34,1.93-.48,3.38.78,4.43a19.15,19.15,0,0,0,4,2.42c.36.18.72.33,1.08.49A9.5,9.5,0,0,1,95.27,66a6.49,6.49,0,0,1,1.79,4.71.81.81,0,0,1,.19.34L98,73.84c.46,1.77.92,3.54,1.41,5.3A4.15,4.15,0,0,0,101,81.77a3.14,3.14,0,0,1,.61.53l.23.21a.48.48,0,0,1,.13.23l.36,1.41c0,.36.15.43.52.43h.71a1,1,0,0,1,1,.68l.23.2a5,5,0,0,1,.8.79c.86,1.14,0,2.16-.41,2.71a.48.48,0,0,1-.36.17.41.41,0,0,1-.16,0l-.86-.31-.36-.07a2.3,2.3,0,0,1-1.07-.4c-.44-.36-.86-.76-1.26-1.15a15.27,15.27,0,0,0-1.64-1.42,4.87,4.87,0,0,1-1.78-2.31c-.35-.93-.68-2-1-3.11-.44-1.61-.86-3.23-1.28-4.85l-.5-1.88a15,15,0,0,0-8.14-6.17A22,22,0,0,1,76.51,61a3.49,3.49,0,0,0-1.3,2.56c0,1,.09,2,.17,2.94,0,.42.08.83.11,1.25a2,2,0,0,0,.08.22,3,3,0,0,1,.21.79c.07,1,.12,2,.16,3.3a4.21,4.21,0,0,1-1.73,4c-1.89,1.33-3.76,2.79-5.56,4.2-1,.75-1.93,1.51-2.9,2.25-.63.47-1.29.91-1.92,1.34l-.84.56-.34.33-1.17,1.35c-.16.16-.29.31-.43.46A10.09,10.09,0,0,1,60,87.68a2.78,2.78,0,0,1-1.64.77h-.1a1.5,1.5,0,0,0-1.61,1,1.58,1.58,0,0,1-.61.62l-.21.15A2.28,2.28,0,0,1,54.19,90.87Zm-.76-29.54a.88.88,0,0,0-.54.22c-1.52,2.27-3,4.59-4.38,6.75a3.47,3.47,0,0,0-.25.51l-.17.42-.07.18a1.11,1.11,0,0,0,.28,1.45l1,.78c1.45,1.15,2.94,2.34,4.45,3.46.62.46,1.3.89,2,1.31l.75.47.92.62.33.23A5.18,5.18,0,0,1,59,78.93a2.91,2.91,0,0,1,.51,1.43,1,1,0,0,0,.16.23l.26.24a2.61,2.61,0,0,1,.24.22l.11,0,.17.07a1.67,1.67,0,0,1,.24.15,1.4,1.4,0,0,0,.91.44,1.65,1.65,0,0,0,1-.51,4.11,4.11,0,0,0,.31-.29c.77-.77,1.56-1.53,2.35-2.29s1.56-1.5,2.32-2.27a3.85,3.85,0,0,0,.65-.84,9.29,9.29,0,0,0,1-3.12,12.11,12.11,0,0,0,.18-1.87,29.09,29.09,0,0,0-.29-4.27c-.05-.49-.11-1-.16-1.47,0-.25,0-.49,0-.74l0-.72,0-.51q0-.43.06-.87V60.34l-6.83,1.19h-.11c-.27,0-.54,0-.8-.06-.56,0-1.14-.08-1.7-.08-.81,0-1.6,0-2.37.08l-1,.05-.85-.07c-.64-.06-1.31-.12-2-.12v0Z" fill="#716558"/><path d="M37.59,19.25l0,1.28,1.57-.33c.73.32.75.48.21,1-.79.72-1.55,1.46-2.33,2.19-.44,1.56-1.76,2.42-2.79,3.51l-.37.51v.17l-.18.19L33.41,29l.69.71.14.15a44.58,44.58,0,0,1,1.86,4.11,31.82,31.82,0,0,1,.68,3.42A10,10,0,0,0,39,42.17a3.55,3.55,0,0,0,2.56,1.19,4.3,4.3,0,0,0,.61,0c1.69-.31,3.37-.67,5.05-1,1.16-.23,2.32-.47,3.49-.64,1.85-.28,3.71-.54,5.57-.75,1.62-.19,3.25-.31,4.87-.44.7-.05,1.39-.1,2.09-.1h.09c1,0,1.92.06,2.88.11a29.23,29.23,0,0,1,5.35.32,24.48,24.48,0,0,1,5.83,1.61c1.6.81,3.18,1.69,4.69,2.65,1.15.73,2.19,1.64,3.28,2.47A21.73,21.73,0,0,1,87.61,50c1,1.46.65,2.14-1,2.34-.06.23-.13.45-.2.68-.17,1.22-.3,2.45-.5,3.67-.31,1.76-.6,3.59.93,4.87A19.6,19.6,0,0,0,90.87,64c1.4.69,2.89,1.1,4.07,2.27a6.13,6.13,0,0,1,1.66,4.55.9.9,0,0,1,.2.28c.72,2.71,1.41,5.43,2.16,8.14a4.52,4.52,0,0,0,1.75,2.89,6.32,6.32,0,0,1,.77.7c.12.46.23.93.35,1.4a.85.85,0,0,0,1,.79l.48,0h.23c.31,0,.52.07.59.47a7.89,7.89,0,0,1,1.07,1c.6.79.15,1.46-.39,2.13l-.86-.31a3.61,3.61,0,0,1-1.29-.39c-1-.83-1.87-1.85-2.93-2.6a4.37,4.37,0,0,1-1.61-2.09c-.38-1-.7-2-1-3.06-.62-2.27-1.21-4.54-1.8-6.81A15.61,15.61,0,0,0,86.88,67a21.16,21.16,0,0,1-10.32-6.58,4.33,4.33,0,0,0-1.82,3.23c0,1.43.18,2.85.28,4.28a4.92,4.92,0,0,1,.29,1c.08,1.09.13,2.19.16,3.28a3.72,3.72,0,0,1-1.53,3.61c-2.9,2-5.65,4.3-8.48,6.45-.89.68-1.85,1.28-2.77,1.92l-.37.36-1.2,1.37a15.71,15.71,0,0,1-1.45,1.49,2.41,2.41,0,0,1-1.35.67h-.09a2,2,0,0,0-2,1.28c-.11.25-.45.4-.69.6a1.82,1.82,0,0,1-1.31.54A4.3,4.3,0,0,1,52.67,90a.79.79,0,0,1-.14-1.36c.27-.22.56-.4.85-.6s.31-.54.55-.69q2.32-1.47,4.69-2.87c.58-.34.65-.82.27-1.23a7.15,7.15,0,0,0-2-1.61A4.14,4.14,0,0,1,54.84,80a6.28,6.28,0,0,0-1.73-2,31.93,31.93,0,0,0-8-4.4.88.88,0,0,0,0-.16l-.18-.2c-.42-.93-.84-1.86-1.25-2.79.3-1,.56-1.9.91-2.83.66-1.77,1.42-3.51,2-5.3.33-1,0-1.3-1-1.6a6.4,6.4,0,0,0-1.84-.29,6.3,6.3,0,0,0-2.64.62c-3.12,1.4-5.3,4-8,5.84-.63.45-1.14,1.09-1.81,1.48a25,25,0,0,0-8.67,8.24c-.14-.26-.28-.35-.42-.35s-.45.23-.67.34c-1,.19-1.28,1-1.68,1.78a4.17,4.17,0,0,1-.59.68,2.48,2.48,0,0,1-2,.88h-.26a1.71,1.71,0,0,1-1.61-1.39l.84-.74A20.39,20.39,0,0,1,18.13,76c.58-.43,1.35-.59,1.93-1a43.23,43.23,0,0,0,4.13-3.36c2.11-2,4.09-4.23,6.13-6.35a18.06,18.06,0,0,1,2.18-2.11,32.82,32.82,0,0,0,6-5.19c.33-.39.69-.78.3-1.31-1-1.33-2-2.67-3-4-.88-1.12-1.87-2.16-2.7-3.32-2.35-3.27-2.63-7.36-4.2-11-.6-1.37-.68-1.92-2.15-2.1a4.93,4.93,0,0,0-.55,0,5.63,5.63,0,0,0-1.83.31,9.16,9.16,0,0,1-3,.58A6,6,0,0,1,20,37c-.48-.11-1.68-1-1.69-1.51s-.07-1.31.24-1.62a20.56,20.56,0,0,1,3.14-2.6c2-1.35,4.1-2.54,5.42-4.66h0a.59.59,0,0,0,0-.08,2.92,2.92,0,0,1,.56-.31c.41-.13.55-.44.85-.78S29,25,29.15,25s.12.06.17.21A1.57,1.57,0,0,0,30,26l.77.17h0l.47-.63c.95-1.22,1.74-2.57,2.71-3.77l.3-.34a8.84,8.84,0,0,1,1.91-1.69,5.36,5.36,0,0,1,1.47-.45M62.15,61.06c-.85-.05-1.69-.14-2.53-.14h0c-1.12,0-2.24.09-3.36.14-.93-.08-1.86-.19-2.79-.2h0a1.24,1.24,0,0,0-.93.43c-1.49,2.23-2.94,4.49-4.38,6.76a4,4,0,0,0-.3.58c-.08.2-.16.41-.23.62a1.57,1.57,0,0,0,.42,2c1.81,1.43,3.6,2.87,5.45,4.24.87.65,1.81,1.21,2.73,1.8l.91.61.33.24a4.68,4.68,0,0,1,1.18,1.08A2.49,2.49,0,0,1,59,80.4a.62.62,0,0,0,.09.26,1.64,1.64,0,0,0,.21.25c.16.17.35.32.5.48a1.56,1.56,0,0,0,.41.2.35.35,0,0,1,.13.08,1.84,1.84,0,0,0,1.22.55,2.12,2.12,0,0,0,1.34-.62c.11-.1.22-.2.33-.32,1.54-1.53,3.14-3,4.68-4.56a5.27,5.27,0,0,0,.72-.93,9.62,9.62,0,0,0,1-3.27,12.87,12.87,0,0,0,.19-2,45.31,45.31,0,0,0-.45-5.8q0-.34,0-.69c0-.23,0-.46,0-.69,0-.46.08-.92.1-1.39V59.32h-.19l-.15.53-7,1.22M37.59,18.31a.82.82,0,0,0-.26,0l-.41.1a3.56,3.56,0,0,0-1.31.46,9.39,9.39,0,0,0-2.1,1.86l-.07.07-.24.28c-.57.71-1.07,1.44-1.56,2.14s-.77,1.14-1.18,1.67l-.11.15a.41.41,0,0,1-.13-.16A1.12,1.12,0,0,0,29.15,24a1.47,1.47,0,0,0-1.12.68.86.86,0,0,1-.13.14l-.25.31c-.12.15-.16.2-.2.21a4,4,0,0,0-.78.41,1,1,0,0,0-.33.4v0A13.66,13.66,0,0,1,22.05,30l-.85.57a21.64,21.64,0,0,0-3.28,2.72,2.8,2.8,0,0,0-.51,2.17v.13c0,1.13,1.74,2.25,2.43,2.41a6.91,6.91,0,0,0,1.51.16,9.87,9.87,0,0,0,3.29-.63,4.67,4.67,0,0,1,1.52-.26l.44,0c.78.1.79.12,1.23,1.14a4.34,4.34,0,0,0,.17.4A33.42,33.42,0,0,1,29.39,43a21.59,21.59,0,0,0,2.91,7c.51.71,1.08,1.38,1.63,2,.37.43.75.88,1.1,1.32,1,1.3,2,2.66,2.92,3.87l-.16.19,0,0a31.34,31.34,0,0,1-5.8,5,12.38,12.38,0,0,0-1.82,1.71l-.49.52c-.69.71-1.37,1.43-2,2.15-1.31,1.39-2.67,2.83-4.06,4.18a38.86,38.86,0,0,1-3.71,3l-.34.25a4.66,4.66,0,0,1-.78.41,5.4,5.4,0,0,0-1.13.6,12.08,12.08,0,0,0-1.38,1.27l-.49.5-.83.73a.93.93,0,0,0-.28,1,2.61,2.61,0,0,0,2.44,2l.33,0a3.44,3.44,0,0,0,2.68-1.2l.15-.16a3,3,0,0,0,.56-.7c.06-.11.11-.21.16-.32.34-.67.49-.91.86-1a.73.73,0,0,0,.25-.08l.12-.07a.89.89,0,0,0,.5.18h.05a.93.93,0,0,0,.78-.43,24.36,24.36,0,0,1,8.36-7.94A6.67,6.67,0,0,0,33,68.16a8.5,8.5,0,0,1,.69-.58c1-.7,1.94-1.5,2.84-2.26a21.65,21.65,0,0,1,5-3.49,5.45,5.45,0,0,1,2.26-.55,5.3,5.3,0,0,1,1.56.26,2.07,2.07,0,0,1,.44.17,2.19,2.19,0,0,1-.07.23C45.4,63,45,64.06,44.56,65.09c-.27.69-.56,1.41-.82,2.12s-.46,1.35-.66,2c-.09.29-.17.58-.27.87a1,1,0,0,0,0,.67l1.25,2.79a1,1,0,0,0,.1.17.92.92,0,0,0,.61.7,31.59,31.59,0,0,1,7.76,4.27A5.42,5.42,0,0,1,54,80.41a5,5,0,0,0,2.5,2.09A5.51,5.51,0,0,1,58,83.75c-1.48.87-3,1.82-4.61,2.83a2.2,2.2,0,0,0-.68.74l0,.07-.12.08a5.61,5.61,0,0,0-.65.47,1.77,1.77,0,0,0-.65,1.65,1.66,1.66,0,0,0,1,1.3,5,5,0,0,0,1.86.45,2.78,2.78,0,0,0,1.93-.77s.1-.07.15-.11a2,2,0,0,0,.78-.82,1.05,1.05,0,0,1,1.18-.72h.06a3.31,3.31,0,0,0,2-.88,11,11,0,0,0,1.13-1.13l.4-.45,0,0,.24-.27L63,85.09l.14-.14.15-.14.8-.53c.64-.43,1.3-.88,1.94-1.36,1-.74,2-1.51,2.91-2.25,1.79-1.4,3.65-2.86,5.54-4.18a4.64,4.64,0,0,0,1.93-4.41c0-1.28-.09-2.34-.17-3.32a3.18,3.18,0,0,0-.23-.91L76,67.69c0-.4-.06-.8-.1-1.2-.09-1-.17-1.94-.17-2.89a2.72,2.72,0,0,1,.82-1.86,22.54,22.54,0,0,0,10.09,6.1,14.72,14.72,0,0,1,7.86,5.92c.16.61.32,1.21.47,1.81.42,1.59.85,3.24,1.29,4.86a32.28,32.28,0,0,0,1,3.14,5.26,5.26,0,0,0,1.94,2.53,14.18,14.18,0,0,1,1.58,1.38c.41.4.83.8,1.29,1.18a2.72,2.72,0,0,0,1.29.49l.32.07.82.29a.87.87,0,0,0,.32.06.91.91,0,0,0,.72-.35,2.51,2.51,0,0,0,.42-3.29,5,5,0,0,0-.87-.86l-.13-.11a1.41,1.41,0,0,0-1.41-.88h-.76s0,0,0-.08l-.35-1.4a.91.91,0,0,0-.28-.46c-.07-.07-.13-.14-.2-.2a4.19,4.19,0,0,0-.69-.6A3.67,3.67,0,0,1,99.86,79c-.49-1.76-1-3.58-1.42-5.33-.24-.93-.49-1.86-.73-2.79a1.42,1.42,0,0,0-.19-.39,6.9,6.9,0,0,0-1.92-4.87,9.85,9.85,0,0,0-3.26-2c-.37-.16-.72-.31-1.06-.48a19,19,0,0,1-3.87-2.36c-1.07-.89-.94-2.16-.62-4,.15-.87.26-1.74.36-2.58,0-.35.09-.7.14-1v-.05A2.24,2.24,0,0,0,89,52a2.7,2.7,0,0,0-.57-2.55,12.92,12.92,0,0,0-1.66-1.85c-.25-.23-.49-.47-.72-.71l-.11-.1-1-.76a27.72,27.72,0,0,0-2.36-1.75c-1.43-.91-3-1.79-4.78-2.7a17.61,17.61,0,0,0-4.67-1.4l-1.38-.28a17.53,17.53,0,0,0-4-.32c-.5,0-1,0-1.54,0l-.57,0c-.77,0-1.56-.07-2.35-.07h-.09c-.77,0-1.53,0-2.16.1l-.75.06c-1.36.11-2.77.22-4.15.37-1.67.19-3.45.43-5.61.76-.95.14-1.9.33-2.81.51L47,41.4l-1.91.37c-1,.21-2.09.42-3.14.61a2.18,2.18,0,0,1-.44,0,2.6,2.6,0,0,1-1.88-.9,9.21,9.21,0,0,1-2-4.38c-.09-.41-.16-.84-.22-1.3A12.79,12.79,0,0,0,37,33.62a28.79,28.79,0,0,0-1.32-3c-.19-.4-.39-.8-.57-1.21a1.05,1.05,0,0,0-.2-.27l0,0-.09-.1-.31-.31.13-.48,0,0a.91.91,0,0,0,.25-.53l.15-.2c.22-.24.47-.46.72-.7a7.24,7.24,0,0,0,2.17-2.89l.52-.5c.53-.5,1.07-1,1.62-1.51a1.58,1.58,0,0,0,.67-1.37c-.11-.69-.77-1-1.12-1.15a1,1,0,0,0-.39-.08.62.62,0,0,0-.19,0l-.46.1v-.15a1,1,0,0,0-.38-.74.94.94,0,0,0-.56-.18ZM62.15,62h.16l6.28-1.09V62c0,.27,0,.55,0,.82s0,.35,0,.53,0,.5,0,.75a6.35,6.35,0,0,0,0,.78c0,.5.1,1,.16,1.49a30.33,30.33,0,0,1,.28,4.2,11.34,11.34,0,0,1-.17,1.8,8.8,8.8,0,0,1-.92,3,3.94,3.94,0,0,1-.58.75c-.76.76-1.55,1.52-2.31,2.26s-1.58,1.52-2.36,2.3a3.58,3.58,0,0,1-.29.27,1.31,1.31,0,0,1-.72.4A1.14,1.14,0,0,1,61,81a1.25,1.25,0,0,0-.35-.23l-.21-.09h0a1.54,1.54,0,0,0-.19-.17L60,80.26l0-.05a3.31,3.31,0,0,0-.57-1.54A5.61,5.61,0,0,0,58,77.35l-.2-.15-.13-.09c-.31-.21-.62-.42-.94-.62s-.5-.33-.76-.48c-.67-.43-1.31-.84-1.93-1.29-1.5-1.12-3-2.31-4.45-3.46l-1-.77c-.16-.12-.38-.29-.14-.91l.08-.2.15-.39a3,3,0,0,1,.22-.44c1.36-2.14,2.83-4.43,4.34-6.69a.39.39,0,0,1,.18-.06c.63,0,1.26.06,1.92.12l.8.07h.11l1-.05c.76,0,1.54-.08,2.3-.08h0c.54,0,1.09,0,1.66.08l.81.06Z" fill="#fff"/><path d="M26.18,30.67l2.21-.75-.15-.29a1.08,1.08,0,0,0-1.16-.42,1.09,1.09,0,0,0-.77.9Z" fill="#fff"/><path d="M59.69,4.43A54.94,54.94,0,1,1,4.75,59.37,54.94,54.94,0,0,1,59.69,4.43m0-2.23a57.17,57.17,0,1,0,57.17,57.17A57.23,57.23,0,0,0,59.69,2.2Z" fill="#b4bf80"/></svg>