<?xml version="1.0" encoding="utf-8"?>
<!-- Generator: Adobe Illustrator 28.3.0, SVG Export Plug-In . SVG Version: 6.00 Build 0)  -->
<svg version="1.1" id="Layer_1" xmlns="http://www.w3.org/2000/svg" xmlns:xlink="http://www.w3.org/1999/xlink" x="0px" y="0px"
	 viewBox="0 0 273.9 43.2" style="enable-background:new 0 0 273.9 43.2;" xml:space="preserve">
<style type="text/css">
	.st0{fill:#962932;}
	.st1{fill:#EFEFEF;}
</style>
<g>
	<path class="st0" d="M1.9,21.5c0-10.8,7.2-17.1,15.9-17.1c4.7,0,8.1,2,10.3,4.2l-3.9,4.5c-1.7-1.4-3.4-2.3-6.2-2.3
		c-5.1,0-8.6,4-8.6,10.5c0,6.7,3.1,10.6,9.2,10.6c1.4,0,2.7-0.4,3.5-1v-5.6h-5.4v-6h11.9v15c-2.3,2.2-6.2,4-10.8,4
		C8.9,38.2,1.9,32.4,1.9,21.5z"/>
	<path class="st0" d="M33.3,25.2c0-8.1,5.8-13,11.7-13c7.1,0,10.6,5.2,10.6,11.9c0,1.3-0.1,2.6-0.3,3.4H40.5
		c0.8,3.8,3.6,5.1,6.4,5.1c1.9,0,3.6-0.5,5.4-1.6l2.4,4.5c-2.5,1.8-5.9,2.8-8.8,2.8C38.8,38.2,33.3,33.4,33.3,25.2z M40.5,22.3h8.8
		c0-2.6-1.1-4.5-4.1-4.5C43.2,17.8,41.1,18.9,40.5,22.3z"/>
	<path class="st0" d="M60.7,12.8h6l0.5,3.2h0.2c2.1-2,4.6-3.8,8-3.8c5.4,0,7.7,3.8,7.7,10v15.4h-7.4V23.1c0-3.6-0.9-4.7-3-4.7
		c-1.9,0-3,0.9-4.6,2.4v16.8h-7.4V12.8z"/>
	<path class="st0" d="M88,25.2c0-8.1,5.1-13,10.3-13c2.8,0,4.4,1,6.1,2.6l-0.3-3.8V2.5h7.4v35.1h-6l-0.5-2.5h-0.2
		c-1.8,1.8-4.2,3-6.6,3C92,38.2,88,33.3,88,25.2z M104.1,29.9V19.8c-1.3-1.2-2.8-1.6-4.1-1.6c-2.4,0-4.5,2.2-4.5,6.9
		c0,4.9,1.7,7.1,4.5,7.1C101.6,32.2,102.9,31.6,104.1,29.9z"/>
	<path class="st0" d="M116.5,25.2c0-8.1,5.8-13,11.7-13c7.1,0,10.6,5.2,10.6,11.9c0,1.3-0.1,2.6-0.3,3.4h-14.8
		c0.8,3.8,3.6,5.1,6.4,5.1c1.9,0,3.6-0.5,5.4-1.6l2.4,4.5c-2.5,1.8-5.9,2.8-8.8,2.8C121.9,38.2,116.5,33.4,116.5,25.2z M123.6,22.3
		h8.8c0-2.6-1.1-4.5-4.1-4.5C126.4,17.8,124.3,18.9,123.6,22.3z"/>
	<path class="st0" d="M143.8,12.8h6l0.5,4.4h0.2c1.8-3.4,4.5-5,7.1-5c1.4,0,2.2,0.2,3,0.5l-1.4,6.2c-0.8-0.2-1.5-0.3-2.5-0.3
		c-1.8,0-4.2,1.2-5.5,4.6v14.4h-7.4V12.8z"/>
	<path class="st1" d="M165,4.8h4.2V34h14.4v3.5H165V4.8z"/>
	<path class="st1" d="M188.2,5.6c0-1.6,1.1-2.7,2.8-2.7c1.6,0,2.8,1.1,2.8,2.7c0,1.7-1.2,2.7-2.8,2.7C189.3,8.3,188.2,7.2,188.2,5.6
		z M188.9,13.3h4.1v24.3h-4.1V13.3z"/>
	<path class="st1" d="M201.2,13.3h3.4l0.4,3.5h0.1c2.3-2.3,4.8-4.1,8.2-4.1c5.1,0,7.4,3.3,7.4,9.5v15.4h-4.1V22.7
		c0-4.6-1.4-6.5-4.6-6.5c-2.5,0-4.2,1.3-6.7,3.8v17.6h-4.1V13.3z"/>
	<path class="st1" d="M228.5,2h4.1V26h0.1L243,13.3h4.6l-8.1,9.8l9.2,14.5h-4.5l-7.1-11.7l-4.5,5.3v6.4h-4.1V2z"/>
	<path class="st1" d="M250.6,34.7l1.9-2.4c2.1,1.8,4.3,2.7,7.3,2.7c3.2,0,4.8-1.7,4.8-3.8c0-2.5-2.8-3.5-5.5-4.5
		c-3.7-1.3-7.2-3.1-7.2-7.1c0-3.9,3.1-6.9,8.4-6.9c3,0,5.7,1.2,7.6,2.8l-1.9,2.4c-1.7-1.2-3.5-1.9-5.7-1.9c-3,0-4.5,1.7-4.5,3.5
		c0,2.2,2.2,3.1,5.2,4.2c3.8,1.3,7.5,3,7.5,7.4c0,4-3.2,7.2-8.9,7.2C256.1,38.2,252.8,36.9,250.6,34.7z"/>
</g>
</svg>
