<?xml version="1.0" encoding="utf-8"?>
<!-- Generator: Adobe Illustrator 28.3.0, SVG Export Plug-In . SVG Version: 6.00 Build 0)  -->
<svg version="1.1" id="Layer_1" xmlns="http://www.w3.org/2000/svg" xmlns:xlink="http://www.w3.org/1999/xlink" x="0px" y="0px"
	 viewBox="0 0 237 47.5" style="enable-background:new 0 0 237 47.5;" xml:space="preserve">
<style type="text/css">
	.st0{fill:#007BB1;}
	.st1{fill:#FFFFFC;}
</style>
<g>
	<path class="st0" d="M2.2,5.3h9.9c10.7,0,17.7,5.3,17.7,17.4c0,12.1-6.9,17.8-17.2,17.8H2.2V5.3z M11.6,34.1c6,0,10-2.9,10-11.3
		c0-8.4-4-11-10-11h-1.5v22.4H11.6z"/>
	<path class="st0" d="M36.4,5.3h12.7c7.5,0,13.6,2.6,13.6,11c0,5.2-2.5,8.5-6.3,10.2l8,14.1h-8.9l-6.8-12.7h-4.4v12.7h-7.9V5.3z
		 M48.5,21.5c4.2,0,6.4-1.8,6.4-5.2s-2.3-4.6-6.4-4.6h-4.1v9.9H48.5z"/>
	<path class="st0" d="M67.9,23.1c0-11.7,7.8-18.5,17.2-18.5c5.1,0,8.7,2.1,11.1,4.6L92,14c-1.8-1.6-3.6-2.5-6.6-2.5
		c-5.5,0-9.3,4.3-9.3,11.3c0,7.2,3.3,11.4,9.9,11.4c1.5,0,2.9-0.4,3.8-1.1v-6h-5.8v-6.5h12.9v16.2c-2.4,2.4-6.7,4.3-11.6,4.3
		C75.4,41.1,67.9,34.9,67.9,23.1z"/>
	<path class="st1" d="M104.7,5.1h4.5v31.6h15.5v3.8h-20V5.1z"/>
	<path class="st1" d="M130.9,5.1h4.5v35.4h-4.5V5.1z"/>
	<path class="st1" d="M145.1,5.1h4.9l12.6,22c1.3,2.4,2.6,5,3.8,7.6h0.2c-0.3-3.7-0.6-7.6-0.6-11.2V5.1h4.3v35.4h-4.9l-12.6-22
		c-1.3-2.4-2.7-5-3.8-7.6h-0.2c0.3,3.6,0.6,7.3,0.6,11.1v18.5h-4.3V5.1z"/>
	<path class="st1" d="M180.1,5.1h4.5v17.8h0.2l14.7-17.8h5.1l-11.1,13.5l12.8,21.9h-5l-10.6-18.4l-6.1,7.2v11.2h-4.5V5.1z"/>
	<path class="st1" d="M208.3,35.9l2.5-2.9c2.5,2.6,6.2,4.3,9.9,4.3c4.6,0,7.4-2.3,7.4-5.8c0-3.6-2.5-4.8-5.9-6.3l-5.1-2.2
		c-3.4-1.5-7.2-4-7.2-9.1c0-5.4,4.6-9.4,11.1-9.4c4.3,0,8,1.8,10.5,4.3l-2.4,2.9c-2.2-1.9-4.9-3.2-8-3.2c-3.9,0-6.6,2-6.6,5.2
		c0,3.4,3.1,4.7,5.9,5.9l5,2.2c4.2,1.8,7.3,4.2,7.3,9.5c0,5.6-4.5,10.1-12,10.1C215.6,41.1,211.4,39.2,208.3,35.9z"/>
</g>
</svg>
