<?xml version="1.0" encoding="UTF-8"?>
<svg width="393px" height="50px" viewBox="0 0 393 50" version="1.1" xmlns="http://www.w3.org/2000/svg" xmlns:xlink="http://www.w3.org/1999/xlink">
    <title>Group</title>
    <g id="Page-1" stroke="none" stroke-width="1" fill="none" fill-rule="evenodd">
        <g id="logo-globalwaters--hover" transform="translate(0.710000, 0.000000)" fill="#1468B3" fill-rule="nonzero">
            <g id="Group">
                <path d="M327.28,35.38 C327.65,34.55 328.33,34.38 329.17,34.42 C330.29,34.47 331.41,34.37 332.53,34.45 C333.4,34.51 333.92,34.18 333.95,33.35 C333.99,32.41 333.2,32.52 332.6,32.51 C330.36,32.49 328.12,32.51 325.88,32.49 C325.21,32.48 324.29,32.63 324.35,31.59 C324.4,30.62 325.29,30.83 325.96,30.71 C326.91,30.54 328.68,31.31 328.64,30.07 C328.59,28.65 326.8,29.61 325.81,29.35 C325.61,29.3 325.38,29.38 325.18,29.34 C324.28,29.13 322.67,29.94 322.73,28.33 C322.79,26.97 324.27,27.09 325.39,27.1 C328.47,27.12 331.55,27.11 334.63,27.11 C335.05,27.11 335.47,27.12 335.89,27.11 C336.39,27.1 336.98,27.08 337.01,26.45 C337.05,25.66 336.39,25.67 335.82,25.67 C333.37,25.67 330.92,25.69 328.47,25.66 C327.69,25.65 326.5,25.96 326.55,24.73 C326.59,23.7 327.69,23.98 328.43,23.94 C328.78,23.92 329.13,23.93 329.48,23.94 C329.99,23.94 330.55,23.88 330.61,23.28 C330.68,22.52 330.07,22.42 329.48,22.42 C327.73,22.42 325.98,22.41 324.23,22.42 C323.56,22.42 322.83,22.37 322.83,21.56 C322.83,20.76 323.54,20.67 324.22,20.68 C325.9,20.7 327.58,20.68 329.26,20.69 C329.92,20.7 330.5,20.69 330.63,19.82 C330.78,18.8 330.09,18.88 329.46,18.84 C328.84,18.8 328.22,18.56 328.25,17.93 C328.28,17.19 328.95,16.98 329.65,17 C330.16,17.01 330.69,16.96 330.65,16.26 C330.6,15.57 330.03,15.62 329.55,15.61 C328.78,15.59 328.01,15.61 327.24,15.6 C326.63,15.6 326.1,15.42 326.04,14.72 C325.99,13.98 326.66,13.85 327.16,13.68 C327.54,13.55 327.99,13.65 328.41,13.61 C328.95,13.56 329.36,13.26 329.46,12.75 C329.55,12.29 329.24,12.04 328.76,11.9 C327.37,11.5 327.84,10.7 328.52,10.1 C329.09,9.6 329.41,7.98 330.69,9.35 C333.48,12.35 336.46,15.2 339.04,18.36 C342.23,22.27 342.05,28.47 339.23,32.64 C337.46,35.26 335.2,36.98 332.09,37.56 C331.44,37.68 330.56,38.3 330.61,36.79 C330.64,36.11 329.83,36.12 329.27,36.16 C328.45,36.23 327.74,36.09 327.28,35.34 C327.27,35.32 327.28,35.38 327.28,35.38 Z M334.21,23.95 C334.63,23.95 335.05,23.95 335.47,23.95 C336.1,23.94 336.9,23.97 336.85,23.11 C336.8,22.27 335.99,22.37 335.37,22.36 C334.67,22.35 333.97,22.35 333.27,22.36 C332.66,22.37 331.82,22.24 331.8,23.1 C331.77,24.15 332.71,23.9 333.37,23.95 C333.65,23.97 333.93,23.95 334.21,23.95 Z M333.43,19.59 C333.4,19.08 333.1,18.84 332.65,18.82 C332.06,18.8 331.75,19.11 331.89,19.71 C331.99,20.15 332.01,20.72 332.71,20.65 C333.38,20.6 333.18,19.93 333.43,19.59 Z" id="Shape"></path>
                <path d="M322.22,23.93 C322.92,23.93 323.62,23.92 324.31,23.93 C324.88,23.94 325.26,24.19 325.23,24.8 C325.2,25.39 324.83,25.64 324.25,25.64 C322.99,25.64 321.74,25.63 320.48,25.65 C319.81,25.66 319.12,25.6 319.14,24.75 C319.16,23.86 319.91,23.93 320.53,23.93 C321.09,23.92 321.65,23.93 322.2,23.93 C322.22,23.92 322.22,23.93 322.22,23.93 Z" id="Path"></path>
                <path d="M323.03,31.58 C322.87,32.47 322.24,32.51 321.6,32.51 C321.02,32.51 320.42,32.41 320.41,31.69 C320.39,30.89 320.98,30.72 321.67,30.7 C322.38,30.7 322.85,30.95 323.03,31.58 Z" id="Path"></path>
                <path d="M325.69,16.93 C326.27,17.01 326.82,17.26 326.8,17.9 C326.77,18.67 326.11,18.9 325.46,18.83 C324.9,18.77 324.33,18.48 324.44,17.79 C324.54,17.18 325.06,16.93 325.69,16.93 Z" id="Path"></path>
                <path d="M327.28,35.38 C327.28,35.38 327.27,35.33 327.27,35.33 C326.54,34.87 326.57,35.69 326.23,35.92 C325.73,36.25 325.18,36.33 324.76,35.77 C324.54,35.47 324.54,35.09 324.78,34.8 C325.21,34.27 325.76,34.31 326.24,34.7 C326.58,34.95 326.55,35.71 327.28,35.38 Z" id="Path"></path>
                <path d="M321.12,22.39 C320.58,22.4 320.16,22.21 320.12,21.61 C320.07,21.04 320.41,20.71 320.95,20.66 C321.51,20.6 321.89,20.9 321.95,21.45 C322.01,22 321.7,22.34 321.12,22.39 Z" id="Path"></path>
                <path d="M334.21,23.95 C333.93,23.95 333.65,23.97 333.37,23.95 C332.71,23.9 331.77,24.15 331.8,23.1 C331.82,22.24 332.66,22.37 333.27,22.36 C333.97,22.35 334.67,22.35 335.37,22.36 C335.99,22.36 336.8,22.27 336.85,23.11 C336.9,23.98 336.11,23.95 335.47,23.95 C335.05,23.96 334.63,23.95 334.21,23.95 Z" id="Path"></path>
                <path d="M333.43,19.59 C333.18,19.93 333.38,20.59 332.7,20.66 C332,20.73 331.98,20.16 331.88,19.72 C331.74,19.12 332.06,18.81 332.64,18.83 C333.1,18.84 333.41,19.09 333.43,19.59 Z" id="Path"></path>
                <path d="M57.35,35.3 C57.72,34.47 58.4,34.3 59.24,34.34 C60.36,34.39 61.48,34.29 62.6,34.37 C63.47,34.43 63.99,34.1 64.02,33.27 C64.06,32.33 63.27,32.44 62.67,32.43 C60.43,32.41 58.19,32.43 55.95,32.41 C55.28,32.4 54.36,32.55 54.42,31.51 C54.47,30.54 55.36,30.75 56.03,30.63 C56.98,30.46 58.75,31.23 58.71,29.99 C58.66,28.57 56.87,29.53 55.88,29.27 C55.68,29.22 55.45,29.3 55.25,29.26 C54.35,29.05 52.74,29.86 52.8,28.25 C52.86,26.89 54.34,27.01 55.46,27.02 C58.54,27.04 61.62,27.03 64.7,27.03 C65.12,27.03 65.54,27.04 65.96,27.03 C66.46,27.02 67.05,27 67.08,26.37 C67.12,25.58 66.46,25.59 65.89,25.59 C63.44,25.59 60.99,25.61 58.54,25.58 C57.76,25.57 56.57,25.88 56.62,24.65 C56.66,23.62 57.76,23.9 58.5,23.86 C58.85,23.84 59.2,23.85 59.55,23.86 C60.06,23.86 60.62,23.8 60.68,23.2 C60.75,22.44 60.14,22.34 59.55,22.34 C57.8,22.34 56.05,22.33 54.3,22.34 C53.63,22.34 52.9,22.29 52.9,21.48 C52.9,20.68 53.61,20.59 54.29,20.6 C55.97,20.62 57.65,20.6 59.33,20.61 C59.99,20.62 60.57,20.61 60.7,19.74 C60.85,18.72 60.16,18.8 59.53,18.76 C58.91,18.72 58.29,18.48 58.32,17.85 C58.35,17.11 59.02,16.9 59.72,16.92 C60.23,16.93 60.76,16.88 60.72,16.18 C60.67,15.49 60.1,15.54 59.62,15.53 C58.85,15.51 58.08,15.53 57.31,15.52 C56.7,15.52 56.17,15.34 56.11,14.64 C56.06,13.9 56.73,13.77 57.23,13.6 C57.61,13.47 58.06,13.57 58.48,13.53 C59.02,13.48 59.43,13.18 59.53,12.67 C59.62,12.21 59.31,11.96 58.83,11.82 C57.44,11.42 57.91,10.62 58.59,10.02 C59.16,9.52 59.48,7.9 60.76,9.27 C63.55,12.27 66.53,15.12 69.11,18.28 C72.29,22.16 72.11,28.37 69.29,32.54 C67.52,35.16 65.26,36.88 62.15,37.46 C61.5,37.58 60.62,38.2 60.67,36.69 C60.7,36.01 59.89,36.02 59.33,36.06 C58.51,36.13 57.8,35.99 57.34,35.24 C57.34,35.24 57.35,35.3 57.35,35.3 Z M64.28,23.87 C64.7,23.87 65.12,23.87 65.54,23.87 C66.17,23.86 66.97,23.89 66.92,23.03 C66.87,22.19 66.06,22.29 65.44,22.28 C64.74,22.27 64.04,22.27 63.34,22.28 C62.73,22.29 61.89,22.16 61.87,23.02 C61.84,24.07 62.78,23.82 63.44,23.87 C63.72,23.89 64,23.87 64.28,23.87 Z M63.5,19.51 C63.47,19 63.17,18.76 62.72,18.74 C62.13,18.72 61.82,19.03 61.96,19.63 C62.06,20.07 62.08,20.64 62.78,20.57 C63.45,20.52 63.25,19.86 63.5,19.51 Z" id="Shape"></path>
                <path d="M52.29,23.85 C52.99,23.85 53.69,23.84 54.38,23.85 C54.95,23.86 55.33,24.11 55.3,24.72 C55.27,25.31 54.9,25.56 54.32,25.56 C53.06,25.56 51.81,25.55 50.55,25.57 C49.88,25.58 49.19,25.52 49.21,24.67 C49.23,23.78 49.98,23.85 50.6,23.85 C51.16,23.84 51.72,23.85 52.27,23.85 C52.29,23.85 52.29,23.85 52.29,23.85 Z" id="Path"></path>
                <path d="M53.11,31.5 C52.95,32.39 52.32,32.43 51.68,32.43 C51.1,32.43 50.5,32.33 50.49,31.61 C50.47,30.81 51.06,30.64 51.75,30.62 C52.45,30.62 52.92,30.87 53.11,31.5 Z" id="Path"></path>
                <path d="M55.76,16.85 C56.34,16.93 56.89,17.18 56.87,17.82 C56.84,18.59 56.18,18.82 55.53,18.75 C54.97,18.69 54.4,18.4 54.51,17.71 C54.61,17.1 55.13,16.85 55.76,16.85 Z" id="Path"></path>
                <path d="M57.35,35.3 C57.35,35.3 57.34,35.25 57.34,35.25 C56.61,34.79 56.64,35.61 56.3,35.84 C55.8,36.17 55.25,36.25 54.83,35.69 C54.61,35.39 54.61,35.01 54.85,34.72 C55.28,34.19 55.83,34.23 56.31,34.62 C56.65,34.87 56.63,35.63 57.35,35.3 Z" id="Path"></path>
                <path d="M51.2,22.31 C50.66,22.32 50.24,22.13 50.2,21.53 C50.15,20.96 50.49,20.63 51.03,20.58 C51.59,20.52 51.97,20.82 52.03,21.37 C52.08,21.93 51.77,22.26 51.2,22.31 Z" id="Path"></path>
                <path d="M64.28,23.87 C64,23.87 63.72,23.89 63.44,23.87 C62.78,23.82 61.84,24.07 61.87,23.02 C61.89,22.16 62.73,22.29 63.34,22.28 C64.04,22.27 64.74,22.27 65.44,22.28 C66.06,22.28 66.87,22.19 66.92,23.03 C66.97,23.9 66.18,23.87 65.54,23.87 C65.12,23.88 64.7,23.87 64.28,23.87 Z" id="Path"></path>
                <path d="M63.5,19.51 C63.25,19.85 63.45,20.51 62.77,20.58 C62.07,20.65 62.05,20.08 61.95,19.64 C61.81,19.04 62.13,18.73 62.71,18.75 C63.17,18.76 63.48,19.01 63.5,19.51 Z" id="Path"></path>
                <path d="M17.43,19.15 L29.48,19.15 L29.48,36.39 C27.61,36.99 25.7,37.44 23.76,37.75 C21.82,38.06 19.57,38.21 17.02,38.21 C11.65,38.21 7.48,36.61 4.48,33.42 C1.49,30.23 -7.99360578e-15,25.76 -7.99360578e-15,20 C-7.99360578e-15,16.31 0.74,13.09 2.22,10.31 C3.7,7.54 5.83,5.42 8.61,3.96 C11.39,2.5 14.65,1.77 18.38,1.77 C22.16,1.77 25.69,2.47 28.95,3.86 L27.35,7.5 C24.15,6.14 21.07,5.46 18.11,5.46 C13.79,5.46 10.42,6.75 8,9.31 C5.57,11.88 4.36,15.44 4.36,20 C4.36,24.78 5.53,28.41 7.86,30.89 C10.19,33.37 13.63,34.6 18.15,34.6 C20.61,34.6 23.01,34.32 25.35,33.75 L25.35,22.84 L17.42,22.84 L17.42,19.15 L17.43,19.15 Z" id="Path"></path>
                <polygon id="Path" points="41.41 37.73 37.39 37.73 37.39 0 41.41 0 41.41 37.73"></polygon>
                <path d="M92.3,10.72 C95.79,10.72 98.5,11.91 100.43,14.3 C102.36,16.69 103.33,20.06 103.33,24.42 C103.33,28.78 102.36,32.17 100.41,34.59 C98.46,37.01 95.76,38.21 92.3,38.21 C90.57,38.21 88.99,37.89 87.56,37.25 C86.13,36.61 84.93,35.63 83.96,34.3 L83.67,34.3 L82.82,37.72 L79.93,37.72 L79.93,0 L83.95,0 L83.95,9.16 C83.95,11.21 83.89,13.06 83.76,14.69 L83.95,14.69 C85.84,12.04 88.62,10.72 92.3,10.72 Z M91.72,14.09 C88.97,14.09 86.99,14.88 85.78,16.45 C84.57,18.03 83.96,20.68 83.96,24.41 C83.96,28.14 84.58,30.82 85.83,32.42 C87.07,34.03 89.07,34.83 91.82,34.83 C94.29,34.83 96.14,33.93 97.35,32.13 C98.56,30.33 99.17,27.74 99.17,24.36 C99.17,20.9 98.56,18.32 97.35,16.63 C96.13,14.94 94.26,14.09 91.72,14.09 Z" id="Shape"></path>
                <path d="M126.71,37.73 L125.91,33.95 L125.72,33.95 C124.39,35.62 123.07,36.74 121.76,37.33 C120.44,37.92 118.8,38.21 116.83,38.21 C114.2,38.21 112.13,37.53 110.64,36.17 C109.14,34.81 108.4,32.88 108.4,30.38 C108.4,25.01 112.69,22.2 121.27,21.94 L125.78,21.79 L125.78,20.14 C125.78,18.05 125.33,16.52 124.43,15.52 C123.53,14.52 122.1,14.03 120.13,14.03 C117.92,14.03 115.41,14.71 112.61,16.07 L111.36,13 C112.67,12.29 114.1,11.73 115.66,11.33 C117.22,10.93 118.78,10.72 120.35,10.72 C123.52,10.72 125.87,11.42 127.39,12.83 C128.92,14.24 129.68,16.49 129.68,19.59 L129.68,37.73 L126.71,37.73 L126.71,37.73 Z M117.61,34.89 C120.11,34.89 122.08,34.2 123.51,32.83 C124.94,31.46 125.66,29.53 125.66,27.06 L125.66,24.66 L121.64,24.83 C118.44,24.94 116.13,25.44 114.72,26.32 C113.31,27.2 112.6,28.57 112.6,30.43 C112.6,31.88 113.04,32.99 113.92,33.75 C114.8,34.51 116.03,34.89 117.61,34.89 Z" id="Shape"></path>
                <polygon id="Path" points="142.01 37.73 137.99 37.73 137.99 0 142.01 0"></polygon>
                <path d="M172.24,37.73 L167.37,22.14 C167.06,21.19 166.49,19.02 165.65,15.64 L165.46,15.64 C164.81,18.47 164.25,20.65 163.76,22.19 L158.74,37.73 L154.08,37.73 L146.83,11.16 L151.05,11.16 C152.76,17.84 154.07,22.92 154.97,26.41 C155.87,29.9 156.38,32.25 156.51,33.47 L156.7,33.47 C156.88,32.55 157.16,31.36 157.56,29.89 C157.96,28.43 158.3,27.27 158.59,26.41 L163.46,11.16 L167.82,11.16 L172.57,26.41 C173.47,29.19 174.09,31.53 174.41,33.42 L174.6,33.42 C174.66,32.84 174.84,31.94 175.12,30.73 C175.4,29.52 177.09,23 180.18,11.16 L184.35,11.16 L177,37.73 L172.24,37.73 L172.24,37.73 Z" id="Path"></path>
                <path d="M205.51,37.73 L204.71,33.95 L204.52,33.95 C203.19,35.62 201.87,36.74 200.56,37.33 C199.24,37.92 197.6,38.21 195.63,38.21 C193,38.21 190.93,37.53 189.44,36.17 C187.94,34.81 187.2,32.88 187.2,30.38 C187.2,25.01 191.49,22.2 200.07,21.94 L204.58,21.79 L204.58,20.14 C204.58,18.05 204.13,16.52 203.23,15.52 C202.33,14.52 200.9,14.03 198.93,14.03 C196.72,14.03 194.21,14.71 191.41,16.07 L190.16,13 C191.47,12.29 192.9,11.73 194.46,11.33 C196.02,10.93 197.58,10.72 199.15,10.72 C202.32,10.72 204.67,11.42 206.19,12.83 C207.72,14.24 208.48,16.49 208.48,19.59 L208.48,37.73 L205.51,37.73 L205.51,37.73 Z M196.41,34.89 C198.91,34.89 200.88,34.2 202.31,32.83 C203.74,31.46 204.46,29.53 204.46,27.06 L204.46,24.66 L200.44,24.83 C197.24,24.94 194.93,25.44 193.52,26.32 C192.11,27.2 191.4,28.57 191.4,30.43 C191.4,31.88 191.84,32.99 192.72,33.75 C193.6,34.51 194.83,34.89 196.41,34.89 Z" id="Shape"></path>
                <path d="M225.36,34.89 C226.07,34.89 226.76,34.84 227.42,34.73 C228.08,34.62 228.61,34.52 229,34.4 L229,37.48 C228.56,37.69 227.92,37.86 227.07,38 C226.22,38.14 225.46,38.21 224.78,38.21 C219.64,38.21 217.07,35.5 217.07,30.09 L217.07,14.28 L213.26,14.28 L213.26,12.34 L217.07,10.67 L218.77,5 L221.1,5 L221.1,11.16 L228.81,11.16 L228.81,14.29 L221.1,14.29 L221.1,29.93 C221.1,31.53 221.48,32.76 222.24,33.62 C223,34.48 224.04,34.89 225.36,34.89 Z" id="Path"></path>
                <path d="M245.54,38.21 C241.61,38.21 238.51,37.01 236.24,34.62 C233.97,32.23 232.83,28.91 232.83,24.66 C232.83,20.38 233.88,16.97 235.99,14.45 C238.1,11.93 240.93,10.67 244.49,10.67 C247.82,10.67 250.45,11.77 252.39,13.96 C254.33,16.15 255.3,19.04 255.3,22.63 L255.3,25.18 L236.99,25.18 C237.07,28.3 237.86,30.67 239.35,32.28 C240.84,33.9 242.95,34.7 245.67,34.7 C248.53,34.7 251.36,34.1 254.16,32.91 L254.16,36.5 C252.74,37.11 251.39,37.55 250.12,37.82 C248.86,38.08 247.33,38.21 245.54,38.21 Z M244.45,14.04 C242.32,14.04 240.61,14.74 239.35,16.13 C238.08,17.52 237.33,19.44 237.11,21.9 L251,21.9 C251,19.36 250.43,17.42 249.3,16.07 C248.16,14.71 246.55,14.04 244.45,14.04 Z" id="Shape"></path>
                <path d="M274.29,10.67 C275.47,10.67 276.53,10.77 277.47,10.96 L276.91,14.69 C275.81,14.45 274.84,14.33 274,14.33 C271.85,14.33 270.01,15.2 268.48,16.95 C266.95,18.7 266.19,20.87 266.19,23.47 L266.19,37.73 L262.17,37.73 L262.17,11.15 L265.49,11.15 L265.95,16.07 L266.14,16.07 C267.13,14.34 268.31,13.01 269.7,12.07 C271.1,11.14 272.63,10.67 274.29,10.67 Z" id="Path"></path>
                <path d="M299.58,30.48 C299.58,32.95 298.66,34.86 296.82,36.2 C294.98,37.54 292.39,38.21 289.06,38.21 C285.54,38.21 282.79,37.65 280.82,36.54 L280.82,32.8 C282.1,33.45 283.47,33.96 284.93,34.33 C286.39,34.7 287.8,34.89 289.16,34.89 C291.26,34.89 292.88,34.56 294.01,33.88 C295.14,33.21 295.71,32.19 295.71,30.81 C295.71,29.78 295.26,28.89 294.36,28.16 C293.46,27.42 291.71,26.56 289.11,25.55 C286.64,24.63 284.88,23.82 283.84,23.14 C282.8,22.45 282.02,21.67 281.51,20.8 C281,19.93 280.75,18.88 280.75,17.67 C280.75,15.5 281.63,13.79 283.39,12.54 C285.15,11.29 287.57,10.66 290.64,10.66 C293.5,10.66 296.3,11.24 299.03,12.41 L297.6,15.68 C294.93,14.58 292.52,14.03 290.35,14.03 C288.44,14.03 287,14.33 286.03,14.93 C285.06,15.53 284.58,16.35 284.58,17.4 C284.58,18.11 284.76,18.72 285.12,19.22 C285.48,19.72 286.07,20.2 286.88,20.65 C287.69,21.1 289.24,21.76 291.54,22.61 C294.69,23.76 296.82,24.91 297.93,26.08 C299.03,27.25 299.58,28.72 299.58,30.48 Z" id="Path"></path>
                <path d="M305.55,35.16 C305.55,34.08 305.8,33.26 306.29,32.7 C306.78,32.14 307.49,31.86 308.41,31.86 C309.35,31.86 310.08,32.14 310.6,32.7 C311.13,33.26 311.39,34.08 311.39,35.16 C311.39,36.21 311.12,37.02 310.59,37.58 C310.06,38.14 309.33,38.43 308.41,38.43 C307.58,38.43 306.9,38.18 306.36,37.67 C305.82,37.16 305.55,36.32 305.55,35.16 Z" id="Path"></path>
                <path d="M361.46,10.67 C362.64,10.67 363.7,10.77 364.64,10.96 L364.08,14.69 C362.98,14.45 362.01,14.33 361.17,14.33 C359.02,14.33 357.18,15.2 355.65,16.95 C354.12,18.7 353.36,20.87 353.36,23.47 L353.36,37.73 L349.34,37.73 L349.34,11.15 L352.66,11.15 L353.12,16.07 L353.31,16.07 C354.3,14.34 355.48,13.01 356.87,12.07 C358.26,11.14 359.79,10.67 361.46,10.67 Z" id="Path"></path>
                <path d="M391.35,11.15 L391.35,13.7 L386.43,14.28 C386.88,14.85 387.29,15.59 387.64,16.5 C388,17.41 388.17,18.44 388.17,19.59 C388.17,22.19 387.28,24.27 385.5,25.82 C383.72,27.37 381.28,28.15 378.18,28.15 C377.39,28.15 376.64,28.09 375.95,27.96 C374.24,28.87 373.38,30 373.38,31.38 C373.38,32.11 373.68,32.65 374.28,32.99 C374.88,33.34 375.9,33.51 377.36,33.51 L382.06,33.51 C384.94,33.51 387.15,34.12 388.69,35.33 C390.23,36.54 391.01,38.3 391.01,40.62 C391.01,43.56 389.83,45.8 387.47,47.35 C385.11,48.89 381.67,49.67 377.14,49.67 C373.66,49.67 370.99,49.02 369.1,47.73 C367.22,46.44 366.27,44.61 366.27,42.25 C366.27,40.63 366.79,39.24 367.82,38.06 C368.85,36.88 370.31,36.08 372.18,35.66 C371.5,35.35 370.93,34.88 370.47,34.23 C370.01,33.58 369.78,32.83 369.78,31.98 C369.78,31.01 370.04,30.16 370.56,29.43 C371.08,28.7 371.89,28 373.01,27.32 C371.64,26.75 370.52,25.79 369.65,24.43 C368.78,23.07 368.35,21.52 368.35,19.77 C368.35,16.86 369.22,14.62 370.97,13.04 C372.72,11.46 375.19,10.68 378.39,10.68 C379.78,10.68 381.03,10.84 382.15,11.16 L391.35,11.16 L391.35,11.15 Z M370.16,42.19 C370.16,43.63 370.77,44.72 371.98,45.46 C373.19,46.2 374.93,46.58 377.19,46.58 C380.57,46.58 383.07,46.07 384.69,45.06 C386.31,44.05 387.13,42.68 387.13,40.95 C387.13,39.51 386.69,38.51 385.8,37.96 C384.91,37.4 383.24,37.12 380.78,37.12 L375.96,37.12 C374.13,37.12 372.71,37.56 371.69,38.43 C370.67,39.3 370.16,40.56 370.16,42.19 Z M372.34,19.66 C372.34,21.52 372.87,22.93 373.92,23.88 C374.97,24.83 376.43,25.31 378.31,25.31 C382.24,25.31 384.2,23.4 384.2,19.59 C384.2,15.6 382.21,13.6 378.24,13.6 C376.35,13.6 374.89,14.11 373.88,15.13 C372.85,16.15 372.34,17.66 372.34,19.66 Z" id="Shape"></path>
            </g>
        </g>
    </g>
</svg>