<?xml version="1.0" encoding="UTF-8"?>
<svg width="161px" height="20px" viewBox="0 0 161 20" version="1.1" xmlns="http://www.w3.org/2000/svg" xmlns:xlink="http://www.w3.org/1999/xlink">
    <g id="Page-1" stroke="none" stroke-width="1" fill="none" fill-rule="evenodd">
        <g id="Links-Component-Dark---Hover" transform="translate(-1017.000000, -362.000000)">
            <g id="urbanlinks_darkfooter_hover" transform="translate(1017.000000, 362.000000)" fill="#98BFE8" fill-rule="nonzero">
                <path d="M7.80970149,19.5843284 C5.16641791,19.5843284 3.24402985,18.8033582 1.92238806,17.3014925 C0.600746269,15.7996269 0,13.3966418 0,10.2126866 L0,0.540671642 L4.98619403,0.540671642 L4.98619403,10.8134328 C4.98619403,12.4955224 5.22649254,13.6369403 5.64701493,14.3578358 C6.12761194,15.0787313 6.96865672,15.4391791 7.80970149,15.3791045 C8.65074627,15.4391791 9.49179104,15.0787313 9.97238806,14.3578358 C10.4529851,13.6970149 10.633209,12.4955224 10.633209,10.8134328 L10.633209,0.540671642 L15.4391791,0.540671642 L15.4391791,10.2126866 C15.4391791,13.3966418 14.8384328,15.7996269 13.5768657,17.3014925 C12.3152985,18.8033582 10.4529851,19.644403 7.80970149,19.5843284 Z" id="Path"></path>
                <path d="M19.5242537,19.2839552 L19.5242537,0.540671642 L26.6130597,0.540671642 C27.5742537,0.540671642 28.5354478,0.660820896 29.4365672,0.841044776 C30.2776119,1.02126866 31.1186567,1.32164179 31.8395522,1.86231343 C32.5003731,2.34291045 33.1011194,3.00373134 33.4615672,3.72462687 C33.8820896,4.62574627 34.1223881,5.64701493 34.0623134,6.66828358 C34.1223881,7.80970149 33.8220149,9.01119403 33.2212687,10.0324627 C32.680597,10.8735075 31.9597015,11.594403 31.0585821,12.1350746 L35.1436567,19.4041045 L29.5567164,19.4041045 L26.3126866,13.0962687 L24.4503731,13.0962687 L24.4503731,19.4041045 L19.5242537,19.4041045 L19.5242537,19.2839552 Z M24.4503731,9.07126866 L26.2526119,9.07126866 C28.2350746,9.07126866 29.2563433,8.23022388 29.2563433,6.60820896 C29.3164179,5.94738806 29.0160448,5.28656716 28.4753731,4.9261194 C27.7544776,4.56567164 27.0335821,4.44552239 26.2526119,4.44552239 L24.4503731,4.44552239 L24.4503731,9.07126866 Z" id="Shape"></path>
                <path d="M37.666791,19.2839552 L37.666791,0.540671642 L44.3951493,0.540671642 C45.2962687,0.540671642 46.2574627,0.600746269 47.1585821,0.780970149 C47.9395522,0.901119403 48.7205224,1.14141791 49.3813433,1.50186567 C49.9820896,1.86231343 50.5227612,2.34291045 50.883209,2.94365672 C51.3037313,3.66455224 51.4839552,4.44552239 51.4839552,5.22649254 C51.4839552,5.64701493 51.4238806,6.00746269 51.3037313,6.42798507 C51.1835821,6.84850746 51.0033582,7.26902985 50.8231343,7.62947761 C50.6429104,7.98992537 50.4026119,8.35037313 50.1022388,8.65074627 C49.8018657,8.9511194 49.5014925,9.13134328 49.1410448,9.31156716 L49.1410448,9.43171642 C50.0421642,9.67201493 50.8231343,10.2126866 51.4238806,10.8735075 C52.0847015,11.7145522 52.4451493,12.7358209 52.3850746,13.8171642 C52.4451493,15.4992537 51.6041045,17.061194 50.2223881,18.0223881 C49.5014925,18.5029851 48.7205224,18.8634328 47.8794776,19.0436567 C46.9182836,19.2839552 45.9570896,19.3440299 44.9958955,19.3440299 L37.666791,19.2839552 Z M42.6529851,7.86977612 L44.275,7.86977612 C44.9358209,7.92985075 45.5365672,7.74962687 46.0772388,7.3891791 C46.4977612,7.02873134 46.6779851,6.54813433 46.6779851,6.00746269 C46.7380597,5.52686567 46.4977612,5.04626866 46.0772388,4.74589552 C45.5365672,4.44552239 44.8757463,4.32537313 44.275,4.38544776 L42.5929104,4.38544776 L42.6529851,7.86977612 Z M42.6529851,15.4391791 L44.6955224,15.4391791 C46.6179104,15.4391791 47.5791045,14.7182836 47.5791045,13.3365672 C47.6391791,12.7358209 47.338806,12.1951493 46.858209,11.8347015 C46.1973881,11.4742537 45.4164179,11.3541045 44.6955224,11.4141791 L42.6529851,11.4141791 L42.6529851,15.4391791 Z" id="Shape"></path>
                <path d="M52.9257463,19.2839552 L58.6328358,0.540671642 L64.6402985,0.540671642 L70.3473881,19.2839552 L65.1208955,19.2839552 L64.2197761,15.3190299 L58.9932836,15.3190299 L58.0921642,19.2839552 L52.9257463,19.2839552 Z M60.1347015,10.1526119 L59.8343284,11.4141791 L63.3186567,11.4141791 L63.0182836,10.0925373 C62.7779851,9.19141791 62.5376866,8.23022388 62.2973881,7.1488806 C62.0570896,6.06753731 61.816791,5.10634328 61.5764925,4.14514925 L61.4563433,4.14514925 C61.2160448,5.10634328 61.0358209,6.12761194 60.7955224,7.1488806 C60.6152985,8.23022388 60.375,9.19141791 60.1347015,10.1526119 Z" id="Shape"></path>
                <path d="M72.1496269,19.2839552 L72.1496269,0.540671642 L77.2559701,0.540671642 L81.4011194,8.89104478 L83.2033582,13.0962687 L83.3235075,13.0962687 C83.2634328,12.6156716 83.2033582,12.075 83.1432836,11.4742537 C83.083209,10.8735075 83.0231343,10.2727612 82.9630597,9.67201493 C82.9029851,9.07126866 82.8429104,8.41044776 82.7828358,7.80970149 C82.7227612,7.20895522 82.7227612,6.60820896 82.7227612,6.00746269 L82.7227612,0.600746269 L87.4686567,0.600746269 L87.4686567,19.3440299 L82.3022388,19.3440299 L78.1570896,10.9335821 L76.3548507,6.72835821 L76.2347015,6.72835821 C76.3548507,7.80970149 76.475,8.9511194 76.6552239,10.2727612 C76.7753731,11.4742537 76.8955224,12.6757463 76.8955224,13.8772388 L76.8955224,19.2839552 L72.1496269,19.2839552 Z" id="Path"></path>
                <path d="M92.0343284,19.2839552 L92.0343284,0.360447761 L94.4373134,0.360447761 L94.4373134,17.2414179 L102.727612,17.2414179 L102.727612,19.2839552 C102.727612,19.2839552 92.0343284,19.2839552 92.0343284,19.2839552 Z" id="Path"></path>
                <polygon id="Path" points="106.091791 19.2839552 106.091791 0.360447761 108.494776 0.360447761 108.494776 19.2839552"></polygon>
                <path d="M113.661194,19.2839552 L113.661194,0.360447761 L116.124254,0.360447761 L122.972761,12.2552239 L125.015299,16.1600746 L125.135448,16.1600746 C125.075373,15.1988806 125.015299,14.1776119 124.955224,13.1563433 C124.895149,12.1350746 124.835075,11.113806 124.835075,10.0925373 L124.835075,0.360447761 L127.11791,0.360447761 L127.11791,19.2839552 L124.654851,19.2839552 L117.746269,7.32910448 L115.703731,3.42425373 L115.583582,3.42425373 C115.643657,4.38544776 115.703731,5.34664179 115.823881,6.36791045 C115.883955,7.32910448 115.94403,8.35037313 115.94403,9.37164179 L115.94403,19.2839552 L113.661194,19.2839552 Z" id="Path"></path>
                <polygon id="Path" points="132.284328 19.2839552 132.284328 0.360447761 134.687313 0.360447761 134.687313 9.85223881 134.747388 9.85223881 142.617164 0.360447761 145.320522 0.360447761 139.433209 7.56940299 146.281716 19.2839552 143.578358 19.2839552 137.931343 9.43171642 134.687313 13.2764925 134.687313 19.2839552"></polygon>
                <path d="M153.971269,19.5843284 C151.448134,19.5843284 149.105224,18.5630597 147.36306,16.7608209 L148.804851,15.0787313 C149.465672,15.7996269 150.306716,16.4003731 151.207836,16.8208955 C152.108955,17.2414179 153.070149,17.4817164 154.031343,17.4817164 C155.052612,17.541791 156.073881,17.2414179 156.975,16.6406716 C157.635821,16.1 157.996269,15.2589552 157.996269,14.4179104 C157.996269,13.9973881 157.936194,13.5768657 157.75597,13.2164179 C157.575746,12.8559701 157.395522,12.6156716 157.095149,12.3753731 C156.794776,12.075 156.434328,11.8947761 156.013806,11.7145522 L154.752239,11.113806 L152.048881,9.91231343 C151.568284,9.73208955 151.147761,9.49179104 150.667164,9.25149254 C150.186567,9.01119403 149.766045,8.65074627 149.405597,8.29029851 C149.045149,7.86977612 148.744776,7.44925373 148.504478,6.90858209 C148.264179,6.30783582 148.14403,5.70708955 148.14403,5.10634328 C148.14403,4.44552239 148.264179,3.72462687 148.564552,3.1238806 C148.864925,2.52313433 149.285448,1.98246269 149.826119,1.50186567 C150.366791,1.02126866 151.027612,0.660820896 151.748507,0.420522388 C152.529478,0.180223881 153.310448,0.0600746269 154.151493,0.0600746269 C155.232836,0.0600746269 156.314179,0.240298507 157.335448,0.720895522 C158.236567,1.14141791 159.077612,1.68208955 159.738433,2.40298507 L158.416791,3.96492537 C157.876119,3.42425373 157.215299,3.00373134 156.554478,2.64328358 C155.773507,2.34291045 154.992537,2.16268657 154.151493,2.16268657 C153.250373,2.10261194 152.349254,2.40298507 151.628358,2.88358209 C150.967537,3.3641791 150.60709,4.14514925 150.667164,4.9261194 C150.667164,5.34664179 150.727239,5.70708955 150.967537,6.06753731 C151.147761,6.36791045 151.38806,6.66828358 151.688433,6.90858209 C151.988806,7.1488806 152.349254,7.3891791 152.709701,7.56940299 C153.070149,7.74962687 153.430597,7.92985075 153.851119,8.05 L156.554478,9.19141791 C157.095149,9.43171642 157.575746,9.67201493 158.056343,9.97238806 C158.53694,10.2727612 158.957463,10.633209 159.31791,10.9936567 C159.678358,11.4141791 159.978731,11.8947761 160.158955,12.3753731 C160.339179,12.9761194 160.459328,13.5768657 160.459328,14.1776119 C160.459328,14.8985075 160.339179,15.619403 160.038806,16.2802239 C159.738433,16.9410448 159.31791,17.541791 158.777239,18.0223881 C158.176493,18.5630597 157.515672,18.9835821 156.734701,19.2238806 C155.773507,19.4641791 154.872388,19.5843284 153.971269,19.5843284 Z" id="Path"></path>
            </g>
        </g>
    </g>
</svg>
