<?xml version="1.0" encoding="UTF-8"?>
<svg width="216px" height="28px" viewBox="0 0 216 28" version="1.1" xmlns="http://www.w3.org/2000/svg" xmlns:xlink="http://www.w3.org/1999/xlink">
    <g id="Page-1" stroke="none" stroke-width="1" fill="none" fill-rule="evenodd">
        <g id="Links-Component-Dark---Hover" transform="translate(-287.000000, -209.000000)">
            <g id="bio_diversity_links_logo" transform="translate(287.000000, 209.000000)" fill-rule="nonzero">
                <path d="M0,20.7388704 L0,0.358803987 L3.73156146,0 L3.73156146,7.03255814 C4.73621262,6.74551495 5.66910299,6.45847176 6.53023256,6.31495017 C9.97475083,5.5255814 12.9887043,7.75016611 13.9215947,10.9076412 C15.213289,15.213289 13.0604651,19.6624585 8.97009967,20.6671096 C7.60664452,21.0259136 6.09966777,20.8106312 4.66445183,20.8106312 C3.22923588,20.8106312 1.65049834,20.7388704 0,20.7388704 Z M3.80332226,17.366113 C5.09501661,17.5096346 6.38671096,17.5813953 7.60664452,17.4378738 C9.90299003,17.0790698 11.1229236,14.5674419 10.4770764,12.055814 C10.261794,10.620598 9.04186047,9.47242525 7.60664452,9.40066445 C6.24318937,9.25714286 4.87973422,9.61594684 3.73156146,10.3335548 L3.80332226,17.366113 Z" id="Shape" fill="#007BB1"></path>
                <path d="M56.5475083,20.523588 L53.3182724,20.882392 L52.8877076,19.8777409 C49.2996678,21.3847176 45.8551495,21.6717608 43.4152824,18.0119601 C41.6212625,15.5003322 41.6212625,12.1275748 43.3435216,9.54418605 C45.5681063,6.02790698 48.869103,5.4538206 52.744186,6.81727575 L52.744186,0.430564784 L56.5475083,0 L56.5475083,20.523588 Z M52.744186,10.1182724 C50.7348837,8.89833887 48.0079734,9.25714286 46.7880399,10.8358804 C45.5681063,12.4146179 45.6398671,15.4285714 47.0033223,16.7202658 C48.3667774,18.0119601 51.0219269,17.9401993 52.8159468,16.5767442 L52.8159468,10.1182724 L52.744186,10.1182724 Z" id="Shape" fill="#007BB1"></path>
                <path d="M86.1847176,15.0697674 C86.2564784,16.4332226 88.1940199,17.4378738 89.5574751,17.5813953 C91.2079734,17.6531561 92.8584718,17.2943522 94.3654485,16.5049834 L95.7289037,15.7873754 C95.5853821,17.0790698 95.4418605,18.2990033 95.2983389,19.6624585 C94.3654485,19.9495017 93.3607973,20.3800664 92.2843854,20.5953488 C89.9880399,21.241196 87.5481728,20.882392 85.4671096,19.7342193 C82.9554817,18.2272425 81.6637874,15.4285714 82.0943522,12.5581395 C82.4531561,9.61594684 84.5342193,7.10431894 87.476412,6.38671096 C91.4950166,5.16677741 95.2265781,7.17607973 96.0877076,10.979402 C96.2312292,11.7687708 96.30299,12.5581395 96.30299,13.3475083 L86.1847176,15.0697674 Z M85.7541528,12.5581395 L92.7149502,11.4099668 C92.1408638,9.61594684 91.1362126,9.04186047 88.9833887,9.25714286 C87.2611296,9.40066445 85.8259136,10.8358804 85.7541528,12.5581395 L85.7541528,12.5581395 Z" id="Shape" fill="#007BB1"></path>
                <path d="M148.47309,15.572093 L151.558804,6.67375415 L155.433887,6.67375415 C152.778738,13.6345515 150.195349,20.4518272 147.540199,27.3408638 L143.952159,27.6996678 C144.095681,27.269103 144.167442,27.0538206 144.239203,26.7667774 C144.88505,24.9727575 145.602658,23.2504983 146.176744,21.4564784 C146.320266,20.882392 146.320266,20.3083056 146.176744,19.7342193 C144.669767,15.7156146 143.09103,11.7687708 141.512292,7.82192691 C141.368771,7.46312292 141.225249,7.17607973 141.081728,6.67375415 L145.243854,6.67375415 C146.176744,9.61594684 147.181395,12.6299003 148.186047,15.572093 L148.47309,15.572093 Z" id="Path" fill="#007BB1"></path>
                <path d="M119.69701,6.88903654 L119.69701,10.3335548 C119.194684,10.0465116 118.620598,9.83122924 118.118272,9.68770764 C117.328904,9.47242525 116.539535,9.32890365 115.678405,9.25714286 C115.104319,9.18538206 114.601993,9.54418605 114.458472,10.1182724 C114.458472,10.1182724 114.458472,10.1182724 114.458472,10.1182724 C114.31495,10.6923588 114.601993,11.2664452 115.17608,11.4099668 C116.10897,11.7687708 117.113621,12.1275748 118.046512,12.5581395 C120.271096,13.4192691 121.275748,14.854485 121.132226,16.648505 C120.988704,18.8730897 119.266445,20.5953488 117.04186,20.882392 C114.889037,21.241196 112.592691,20.8106312 110.72691,19.6624585 C110.72691,19.0883721 110.72691,18.5142857 110.72691,17.8684385 C110.72691,17.2225914 110.65515,16.7202658 110.583389,15.930897 L112.162126,16.7920266 C113.238538,17.5096346 114.530233,17.7966777 115.821927,17.7966777 C116.467774,17.7249169 117.185382,17.5813953 117.328904,16.7920266 C117.472425,16.1461794 117.04186,15.4285714 116.396013,15.2850498 C115.463123,14.9262458 114.530233,14.4956811 113.597342,14.1368771 C111.300997,13.1322259 110.511628,11.9840532 110.798671,9.90299003 C111.157475,7.9654485 112.736213,6.45847176 114.673754,6.17142857 C116.324252,5.88438538 118.118272,6.09966777 119.69701,6.88903654 Z" id="Path" fill="#007BB1"></path>
                <path d="M132.972757,9.75946844 L130.963455,9.75946844 L130.963455,6.60199336 L132.900997,6.45847176 L132.900997,2.51162791 L136.560797,2.15282392 L136.560797,6.53023256 L139.933555,6.53023256 L139.933555,9.75946844 L136.704319,9.75946844 C136.632558,10.1182724 136.632558,10.4053156 136.632558,10.7641196 C136.632558,12.2710963 136.632558,13.7780731 136.632558,15.2850498 C136.632558,16.7920266 137.206645,17.2943522 138.713621,17.2943522 L140.220598,17.2943522 C140.077076,18.3707641 139.933555,19.4471761 139.790033,20.4518272 C136.919601,21.241196 133.977409,19.9495017 133.259801,17.5813953 C133.044518,17.007309 132.972757,16.3614618 132.972757,15.7156146 C132.972757,13.7063123 132.972757,11.8405316 132.972757,9.75946844 Z" id="Path" fill="#007BB1"></path>
                <polygon id="Path" fill="#007BB1" points="71.1149502 6.67375415 74.0571429 13.7063123 74.2724252 13.7780731 77.2863787 6.67375415 81.1614618 6.67375415 74.1289037 21.0976744 66.7375415 6.74551495"></polygon>
                <path d="M99.4604651,6.53023256 L103.120266,6.17142857 L103.120266,8.68305648 L103.335548,8.82657807 C104.555482,6.88903654 106.277741,6.09966777 108.574086,6.17142857 L108.143522,9.83122924 L107.06711,9.83122924 C105.057807,9.75946844 103.263787,11.2664452 103.192027,13.3475083 C103.192027,13.4192691 103.192027,13.5627907 103.192027,13.6345515 C103.120266,15.572093 103.192027,17.5096346 103.192027,19.4471761 C103.192027,19.7342193 103.192027,20.0930233 103.120266,20.4518272 L99.4604651,20.4518272 L99.4604651,6.53023256 Z" id="Path" fill="#007BB1"></path>
                <path d="M190.381395,0.574086379 L191.888372,0.358803987 L191.888372,12.6299003 L192.175415,12.7016611 C192.462458,12.4863787 192.749502,12.2710963 193.036545,12.055814 C194.687043,10.620598 196.337542,9.18538206 198.059801,7.75016611 C199.423256,6.60199336 199.423256,6.60199336 201.504319,6.74551495 L194.328239,12.9169435 L203.657143,20.523588 C202.365449,20.5953488 201.360797,20.7388704 200.427907,19.8777409 C197.98804,17.7966777 195.476412,15.7873754 192.964784,13.7780731 C192.749502,13.6345515 192.534219,13.4910299 192.103654,13.2039867 L192.103654,20.4518272 L190.524917,20.523588 L190.524917,0.574086379 L190.381395,0.574086379 Z" id="Path" fill="#518325"></path>
                <path d="M185.214618,20.4518272 L183.779402,20.4518272 C183.779402,20.0212625 183.707641,19.6624585 183.707641,19.3036545 C183.63588,16.5049834 183.63588,13.7063123 183.56412,10.9076412 C183.56412,9.18538206 182.128904,7.82192691 180.478405,7.82192691 C180.478405,7.82192691 180.478405,7.82192691 180.478405,7.82192691 C176.531561,7.60664452 173.876412,10.1182724 173.804651,14.0651163 C173.804651,16.1461794 173.804651,18.2272425 173.804651,20.3800664 L172.154153,20.3800664 L172.154153,6.67375415 L173.804651,6.45847176 L173.804651,9.04186047 L174.019934,9.11362126 C174.235216,8.89833887 174.450498,8.75481728 174.665781,8.53953488 C176.746844,6.24318937 179.401993,5.88438538 182.272425,6.60199336 C184.066445,7.03255814 185.35814,8.61129568 185.286379,10.4053156 C185.4299,13.6345515 185.286379,16.8637874 185.286379,20.0930233 C185.286379,20.2365449 185.286379,20.3083056 185.214618,20.4518272 Z" id="Path" fill="#518325"></path>
                <path d="M29.5654485,4.16212625 C27.1973422,5.4538206 25.9056478,7.67840532 25.1880399,10.1900332 C24.4704319,8.89833887 24.7574751,6.09966777 25.9056478,4.59269103 C27.7714286,2.15282392 30.5700997,2.08106312 33.3687708,2.15282392 L32.0770764,6.24318937 C32.938206,6.60199336 33.7275748,7.03255814 34.5169435,7.53488372 C35.1627907,8.1089701 35.8086379,8.75481728 36.2392027,9.47242525 C35.3063123,8.53953488 34.1581395,7.89368771 32.8664452,7.67840532 C32.1488372,7.46312292 31.4312292,7.75016611 31.0724252,8.39601329 C30.5700997,9.40066445 29.6372093,10.0465116 28.5607973,10.3335548 C27.986711,10.4770764 27.5561462,10.979402 27.5561462,11.5534884 C27.1255814,13.9215947 28.4890365,16.2179402 30.7136213,17.007309 L31.0724252,17.2225914 C29.6372093,17.1508306 28.2737542,16.3614618 27.4843854,15.1415282 C25.1162791,11.9840532 26.1209302,8.32425249 28.2019934,5.74086379 C28.7043189,5.16677741 29.2066445,4.66445183 29.7089701,4.16212625 L29.5654485,4.16212625 Z" id="Path" fill="#518325"></path>
                <path d="M24.9727575,13.2039867 C25.6186047,15.1415282 27.0538206,16.7202658 28.9196013,17.6531561 C31.2877076,18.9448505 34.2299003,18.5142857 36.2392027,16.648505 C38.1049834,14.6392027 38.5355482,11.69701 37.2438538,9.25714286 C36.3827243,7.75016611 35.1627907,6.53023256 33.655814,5.74086379 C37.530897,6.02790698 40.6166113,10.1182724 40.2578073,14.3521595 C39.7554817,18.2990033 36.2392027,21.1694352 32.2923588,20.9541528 C28.345515,20.6671096 24.7574751,16.9355482 24.9727575,13.2039867 Z" id="Path" fill="#007BB1"></path>
                <path d="M214.851827,6.96079734 L214.851827,8.82657807 L213.918937,8.46777409 C212.483721,7.82192691 210.904983,7.67840532 209.398007,8.1089701 C208.536877,8.25249169 207.819269,8.97009967 207.675748,9.83122924 C207.603987,10.8358804 208.249834,11.338206 209.039203,11.69701 C210.330897,12.2710963 211.694352,12.7734219 212.986047,13.3475083 C214.134219,13.8498339 215.210631,14.4956811 215.712957,15.8591362 C216.358804,17.5096346 215.569435,19.4471761 213.990698,20.2365449 C211.909635,21.3129568 208.249834,21.0976744 206.168771,19.7342193 C206.09701,19.2318937 206.025249,18.7295681 205.953488,18.0119601 L206.886379,18.4425249 C208.536877,19.3036545 210.330897,19.5189369 212.124917,19.2318937 C213.129568,19.0883721 213.918937,18.4425249 214.20598,17.4378738 C214.349502,16.5049834 213.918937,15.7156146 212.770764,15.1415282 C211.766113,14.6392027 210.689701,14.2086379 209.613289,13.7780731 C208.895681,13.4910299 208.178073,13.1322259 207.532226,12.7734219 C205.451163,11.4099668 205.379402,9.04186047 207.388704,7.46312292 C208.967442,6.24318937 210.833223,6.24318937 212.699003,6.45847176 C213.488372,6.53023256 214.134219,6.74551495 214.851827,6.96079734 Z" id="Path" fill="#518325"></path>
                <polygon id="Path" fill="#007BB1" points="21.1694352 20.4518272 17.5813953 20.4518272 17.5813953 6.53023256 21.1694352 6.17142857"></polygon>
                <polygon id="Path" fill="#007BB1" points="64.441196 20.3800664 60.9249169 20.3800664 60.9249169 6.53023256 64.441196 6.17142857"></polygon>
                <polygon id="Path" fill="#007BB1" points="128.164784 6.17142857 128.164784 20.3800664 124.576744 20.3800664 124.576744 6.53023256"></polygon>
                <polygon id="Path" fill="#518325" points="159.954817 20.4518272 158.519601 20.4518272 158.519601 0.574086379 159.954817 0.287043189"></polygon>
                <polygon id="Path" fill="#518325" points="166.987375 6.38671096 166.987375 20.3800664 165.408638 20.3800664 165.408638 6.67375415"></polygon>
                <path d="M124.289701,2.5833887 C124.21794,1.43521595 125.07907,0.430564784 126.299003,0.358803987 C127.518937,0.287043189 128.451827,1.14817276 128.523588,2.36810631 C128.523588,2.43986711 128.523588,2.51162791 128.523588,2.5833887 C128.595349,3.73156146 127.734219,4.73621262 126.514286,4.80797342 C125.294352,4.87973422 124.361462,4.01860465 124.289701,2.7986711 C124.289701,2.7269103 124.289701,2.6551495 124.289701,2.5833887 Z" id="Path" fill="#007BB1"></path>
                <path d="M62.7189369,4.80797342 C61.5707641,4.73621262 60.566113,3.80332226 60.566113,2.5833887 C60.6378738,1.43521595 61.5707641,0.502325581 62.7189369,0.502325581 C63.8671096,0.502325581 64.8717608,1.50697674 64.8717608,2.6551495 C64.8717608,3.80332226 63.8671096,4.73621262 62.7189369,4.80797342 Z" id="Path" fill="#007BB1"></path>
                <path d="M19.5189369,4.80797342 C18.3707641,4.73621262 17.4378738,3.80332226 17.366113,2.6551495 C17.4378738,1.43521595 18.3707641,0.502325581 19.5906977,0.502325581 C20.7388704,0.574086379 21.6717608,1.50697674 21.7435216,2.6551495 C21.6717608,3.80332226 20.7388704,4.80797342 19.5189369,4.80797342 Z" id="Path" fill="#007BB1"></path>
                <path d="M167.41794,3.65980066 C167.41794,4.30564784 166.843854,4.80797342 166.198007,4.80797342 C165.552159,4.80797342 165.049834,4.37740864 165.049834,3.73156146 C165.049834,3.65980066 165.049834,3.65980066 165.049834,3.58803987 C165.049834,2.94219269 165.62392,2.43986711 166.269767,2.36810631 C166.843854,2.43986711 167.346179,3.01395349 167.41794,3.65980066 Z" id="Path" fill="#518325"></path>
            </g>
        </g>
    </g>
</svg>
