<?xml version="1.0" encoding="UTF-8"?>
<svg width="195px" height="31px" viewBox="0 0 195 31" version="1.1" xmlns="http://www.w3.org/2000/svg" xmlns:xlink="http://www.w3.org/1999/xlink">
    <g id="Page-1" stroke="none" stroke-width="1" fill="none" fill-rule="evenodd">
        <g id="Links-Component-Dark---Hover" transform="translate(-771.000000, -356.000000)">
            <g id="Group-2" transform="translate(771.000000, 356.000000)" fill-rule="nonzero">
                <path d="M8.2429946,4.71462141 L7.5200181,4.71462141 C7.06701781,4.69915444 6.63054649,4.88568064 6.32863429,5.22375979 L0.509182591,11.0024804 C0.181311823,11.3095013 -0.00328287936,11.739607 7.10542736e-15,12.1887728 L7.10542736e-15,29.0972585 C0.00285016107,30.034442 0.76337865,30.7926893 1.7005664,30.7926893 L6.54247241,30.7926893 C7.47966016,30.7926893 8.24018865,30.034442 8.2429946,29.0972585 L8.2429946,14.6122715 C8.23732752,13.6742192 8.99023985,12.9076589 9.92824264,12.8964752 L12.9372505,12.8964752 C13.8721421,12.8909474 14.6294416,12.1359152 14.6377727,11.2010444 L14.6377727,6.4151436 C14.6322125,5.47828388 13.8741102,4.72018155 12.9372505,4.71462141 L8.2429946,4.71462141 Z" id="Path" fill="#05A694"></path>
                <path d="M19.4134907,1.99582245 L19.4134907,15.9513055 C19.4161984,16.4671294 19.2138813,16.9629015 18.8510483,17.3295538 C18.4882153,17.6962061 17.9945889,17.9037033 17.4787648,17.9063969 L15.0552661,17.9063969 C14.5367987,17.9036805 14.0387073,18.1080903 13.6716128,18.4742289 C13.3045182,18.8403674 13.0988104,19.3379241 13.1001613,19.8563969 L13.1001613,24.1738903 C13.1141275,25.2428771 13.9861922,26.1013158 15.0552661,26.0984479 L25.7013497,26.0984479 C26.2171721,26.0997855 26.7124046,25.8961717 27.0781009,25.532385 C27.4437973,25.1685983 27.6500011,24.6744386 27.6513497,24.1586162 L27.6513497,1.99582245 C27.6712573,0.917066232 26.8156387,0.0250382967 25.7369894,0 L21.4093131,0 C20.3161455,0.0216532115 19.4351439,0.902654813 19.4134907,1.99582245 Z" id="Path" fill="#FFFFFF"></path>
                <path d="M149.727459,5.51906005 C149.727459,4.28694517 150.618452,3.5232376 151.93712,3.5232376 C153.255788,3.5232376 154.141689,4.33276762 154.141689,5.51906005 C154.141689,6.64381751 153.229893,7.55561358 152.105136,7.55561358 L151.932029,7.55561358 C150.623543,7.55561358 149.727459,6.75117493 149.727459,5.51906005 Z M151.214143,9.33250653 L152.700827,9.33250653 C153.355999,9.33250653 153.887131,9.86362774 153.887131,10.518799 L153.887131,10.518799 L153.887131,20.7015666 C153.888473,21.0161918 153.764785,21.318468 153.543266,21.5418964 C153.321747,21.7653249 153.020544,21.891603 152.705919,21.8929614 L151.214143,21.8929614 C150.899518,21.8943036 150.597242,21.7706155 150.373814,21.5490967 C150.150385,21.327578 150.024107,21.0263746 150.02276,20.7117493 L150.02276,20.7117493 L150.02276,10.5289817 C150.002698,9.88878197 150.502833,9.35227393 151.142864,9.32741514 L151.214143,9.33250653 Z" id="Shape" fill="#05A694"></path>
                <path d="M157.832942,9.33250653 L159.660749,9.33250653 C160.008279,9.34309683 160.304124,9.58858492 160.378634,9.92819843 L160.54665,10.9057441 L160.648478,10.9057441 C161.677372,9.75341828 163.136549,9.07725924 164.680854,9.03720627 C167.399653,9.03720627 168.591036,10.9922977 168.591036,14.1285901 L168.591036,21.1954308 C168.575417,21.5880679 168.260697,21.9027876 167.86806,21.9184073 L165.40383,21.9184073 C165.011193,21.9027876 164.696473,21.5880679 164.680854,21.1954308 L164.680854,14.6122715 C164.680854,12.8710183 164.217538,12.3160574 163.239992,12.3160574 C162.494331,12.3380965 161.792261,12.6725034 161.305266,13.2375979 C161.138562,13.370579 161.044238,13.5743183 161.050697,13.7874674 L161.050697,21.1546997 C161.065185,21.5427717 160.766357,21.8710298 160.378634,21.8929504 L157.878765,21.8929504 C157.485794,21.9162286 157.147379,21.6186958 157.120149,21.2259791 L157.120149,10.0656658 C157.110451,9.88061049 157.17479,9.69930234 157.298966,9.56175322 C157.423142,9.42420411 157.596949,9.34172096 157.782029,9.33250653 L157.832942,9.33250653 Z" id="Path" fill="#05A694"></path>
                <path d="M172.597955,4.24112272 L174.721062,4.24112272 C175.190649,4.24112272 175.571324,4.62179757 175.571324,5.09138381 L175.571324,5.09138381 L175.571324,14.1031332 L175.652786,14.1031332 L179.140384,9.67362924 C179.303578,9.46419282 179.552106,9.33899479 179.817538,9.33250653 L181.854091,9.33250653 C182.317923,9.32562642 182.707595,9.67967079 182.745083,10.1420366 C182.73782,10.3565183 182.662979,10.5632223 182.531245,10.7326371 L179.725893,14.0573107 C179.481182,14.3469584 179.462364,14.765131 179.68007,15.0755875 L183.208399,20.5590078 C183.46817,20.942899 183.367921,21.4646496 182.984378,21.7249347 L182.95383,21.7249347 C182.800623,21.8172235 182.623304,21.8615533 182.444692,21.8522193 L180.275762,21.8522193 C179.968501,21.8407349 179.684998,21.6838633 179.512055,21.4296345 L177.643517,18.1609661 C177.425651,17.7577027 176.923441,17.6054489 176.518321,17.8198433 L176.518321,17.8198433 C176.422704,17.875157 176.336724,17.9456605 176.263752,18.0285901 L175.836076,18.5377285 C175.702972,18.6905446 175.627348,18.8850067 175.622237,19.0875979 L175.622237,21.0223238 C175.633693,21.4881062 175.268152,21.8763515 174.802525,21.8929504 L172.633595,21.8929504 C172.170286,21.8820124 171.798872,21.5060963 171.793517,21.0426893 L171.793517,5.09138381 C171.773294,4.64229473 172.118541,4.26070603 172.567407,4.23603133 L172.597955,4.24112272 Z" id="Path" fill="#05A694"></path>
                <path d="M185.107485,19.4541775 L185.911924,18.3900783 C186.144694,18.0887067 186.569434,18.0157045 186.88947,18.2220627 C187.700517,18.7332182 188.639402,19.0050007 189.598086,19.0061358 C190.662185,19.0061358 191.08477,18.624282 191.08477,18.0285901 C191.08477,17.2648825 190.025762,16.9288512 188.707094,16.4146214 C186.925109,15.7781984 185.392603,14.6326371 185.392603,12.6775457 C185.392603,10.2998695 187.306963,8.72654557 190.234509,8.72654557 C191.609635,8.71978864 192.956015,9.1201596 194.103961,9.8772846 C194.425573,10.0893746 194.516419,10.5208911 194.307616,10.8446475 L194.307616,10.8446475 L194.277068,10.89047 L194.277068,10.931201 L193.472629,12.0003916 C193.257407,12.2923405 192.86012,12.3813501 192.540906,12.2091384 C191.878901,11.8382113 191.13074,11.6485366 190.371976,11.6592689 C189.480984,11.6592689 189.058399,12.0003916 189.058399,12.5502611 C189.058399,13.2325065 189.781376,13.5278068 191.349522,14.0369452 C193.263882,14.6530026 194.791297,15.798564 194.791297,17.8809399 C194.791297,20.177154 192.963491,21.954047 189.567538,21.954047 C188.026248,21.9439222 186.526274,21.454607 185.275501,20.5539164 C184.935897,20.2881596 184.862237,19.8037838 185.107485,19.4490862 L185.107485,19.4541775 Z" id="Path" fill="#05A694"></path>
                <path d="M143.811271,4.20547204 L145.297955,4.20547204 C145.612581,4.20412981 145.914857,4.32781788 146.138285,4.54933667 C146.361714,4.77085546 146.487992,5.07205886 146.489339,5.38668407 L146.489339,5.38668407 L146.489339,20.6608355 C146.489339,21.3160067 145.958218,21.8471279 145.303047,21.8471279 L143.811271,21.8471279 C143.1561,21.8471279 142.624979,21.3160067 142.624979,20.6608355 L142.624979,5.38668407 C142.630546,4.73466074 143.15923,4.20824579 143.811271,4.20547204 Z" id="Path" fill="#05A694"></path>
                <path d="M40.0030468,9.16449086 L39.621193,9.16449086 C39.3964521,9.15827757 39.1803912,9.25140727 39.0305925,9.41906005 L36.0114019,12.4331593 C35.8430924,12.6015666 35.7510964,12.8315566 35.7568327,13.0695822 L35.7568327,21.7911227 C35.7733316,22.2607501 36.1387516,22.6436752 36.6070938,22.6821149 L39.1527857,22.6821149 C39.6224131,22.665616 40.0053382,22.300196 40.0437779,21.8318538 L40.0437779,14.3577023 C40.0378777,13.8780815 40.4147687,13.4808791 40.894039,13.4616188 L42.4214541,13.4616188 C42.9112377,13.4561151 43.3069426,13.0604102 43.3124463,12.5706266 L43.3124463,10.0656658 C43.3057591,9.5901715 42.9364881,9.19878849 42.4621852,9.16449086 L40.0030468,9.16449086 Z" id="Path" fill="#05A694"></path>
                <path d="M44.967146,15.7171018 C44.967146,11.6439948 47.8946917,9.12885117 50.9138823,9.12885117 C54.5644045,9.12885117 56.3056578,11.766188 56.3056578,15.162141 C56.320118,15.5460373 56.291082,15.9303369 56.2191043,16.3077023 C56.1734232,16.6472962 55.8845968,16.9013766 55.5419502,16.9033943 L49.635945,16.9033943 C49.4577014,16.9020388 49.2862202,16.9715485 49.1592281,17.096631 C49.032236,17.2217135 48.9601362,17.3921218 48.9587909,17.5703655 L48.9587909,17.5703655 C48.9604294,17.6870642 48.9882691,17.8019032 49.0402531,17.9063969 C49.5952139,18.8839426 50.5676682,19.3116188 51.8048745,19.3116188 C52.5531072,19.3236627 53.293892,19.1615616 53.9687126,18.8381201 C54.2861824,18.7138002 54.6469063,18.8390816 54.8189737,19.1334204 L55.4961278,20.3655352 C55.6623134,20.6829118 55.5503302,21.0748529 55.2415586,21.2565274 C54.0354566,21.9388811 52.6763007,22.3049424 51.2906447,22.3206266 C47.7266761,22.3002611 44.9213236,19.9225849 44.967146,15.7171018 Z M52.1867283,14.2558747 C52.3636261,14.258596 52.5343575,14.1909229 52.6613531,14.0677467 C52.7883486,13.9445706 52.8612022,13.7759846 52.8638823,13.5990862 L52.8638823,13.5990862 L52.8638823,13.3903394 C52.6590314,12.5400627 51.8673943,11.9641306 50.9953445,12.0309399 C50.1493478,12.0267462 49.3748665,12.5048698 48.999522,13.2630548 C48.8475852,13.5977749 48.9927571,13.9924609 49.3253706,14.1489556 L49.3253706,14.1489556 C49.4181836,14.1895149 49.5199309,14.2053033 49.6206708,14.1947781 L52.1867283,14.2558747 Z" id="Shape" fill="#05A694"></path>
                <path d="M58.1843784,19.5152742 L58.5255011,19.0519582 C58.8514353,18.591749 59.468684,18.4456159 59.9663627,18.7108355 C60.7325269,19.1446821 61.5960042,19.3776283 62.476415,19.3879896 C63.5354228,19.3879896 63.963099,19.0061358 63.963099,18.4155352 C63.963099,17.6467363 62.8989998,17.310705 61.5396003,16.8015666 C59.757616,16.1600522 58.2251095,15.0144909 58.2251095,13.0593995 C58.2251095,10.6817232 60.1394698,9.1084805 63.0721069,9.1084805 C64.2756205,9.10702831 65.4592152,9.41563968 66.5087909,10.0045692 C66.7702537,10.1482599 66.9632261,10.3907397 67.0445557,10.6777855 C67.1258853,10.9648313 67.0887877,11.2724976 66.9415586,11.5319843 L66.9415586,11.5319843 L66.9415586,11.5319843 C66.8957361,11.5727154 66.8957361,11.6185379 66.855005,11.6592689 L66.5138823,12.1276762 C66.1933748,12.540869 65.6321032,12.6817124 65.1544829,12.468799 C64.5500594,12.1623119 63.88217,12.0018789 63.2044829,12.0003916 C62.3083993,12.0003916 61.8450834,12.3415144 61.8450834,12.8913838 C61.8450834,13.5685379 62.5629685,13.8689295 64.1362061,14.3780679 C66.0505664,14.9737598 67.5779815,16.1193211 67.5779815,18.2016971 C67.5779815,20.4928198 65.7501748,22.2748042 62.3542218,22.2748042 C60.9703206,22.2595369 59.6173947,21.8631719 58.444039,21.1292428 C57.9284612,20.7800628 57.7782658,20.0873706 58.1029163,19.5560052 C58.1436473,19.5814621 58.1436473,19.5152742 58.1843784,19.5152742 Z" id="Path" fill="#05A694"></path>
                <path d="M69.4108797,5.98746736 C69.4108797,4.75535248 70.3018719,3.99164491 71.6154489,3.99164491 C72.9290259,3.99164491 73.8251095,4.75535248 73.8251095,5.98746736 C73.8251095,7.21958225 72.9341173,8.02402089 71.6154489,8.02402089 C70.2967805,8.02402089 69.4108797,7.21958225 69.4108797,5.98746736 Z M70.8517413,9.77036554 L72.3791565,9.77036554 C72.6937808,9.77036554 72.9955189,9.89534956 73.2179919,10.1178225 C73.4404649,10.3402955 73.5654489,10.6420336 73.5654489,10.956658 L73.5654489,10.956658 L73.5654489,21.1394256 C73.5654489,21.4540499 73.4404649,21.755788 73.2179919,21.978261 C72.9955189,22.200734 72.6937808,22.3257658 72.3791565,22.3257658 L70.8924724,22.3257658 C70.2273457,22.3315432 69.6797323,21.8042955 69.6603575,21.1394256 L69.6603575,10.8599217 C69.6957689,10.2332233 70.2190192,9.74590436 70.84665,9.75509138 L70.8517413,9.77036554 Z" id="Shape" fill="#05A694"></path>
                <path d="M83.4478249,5.98746736 C83.4478249,4.75535248 84.3388171,3.99164491 85.6523941,3.99164491 C86.9659711,3.99164491 87.8620547,4.7502611 87.8620547,5.98746736 C87.8620547,7.22467363 86.9710625,8.02402089 85.6523941,8.02402089 C84.3337257,8.02402089 83.4478249,7.21958225 83.4478249,5.98746736 Z M84.8886865,9.77031773 L86.3753706,9.77031773 C87.0404973,9.76454036 87.5881107,10.291788 87.6074965,10.956658 L87.6074965,21.1088773 C87.6088387,21.4235025 87.4851506,21.7257787 87.2636318,21.9492071 C87.042113,22.1726356 86.7409096,22.2989137 86.4262844,22.3002611 L84.8988693,22.3002611 C84.584245,22.3002611 84.2825068,22.1752771 84.0600339,21.9528041 C83.8375609,21.7303311 83.7125768,21.428593 83.7125768,21.1139687 L83.7125768,21.1139687 L83.7125768,10.956658 C83.7125768,10.6420336 83.8375609,10.3402955 84.0600339,10.1178225 C84.2825068,9.89534956 84.584245,9.77031773 84.8988693,9.77031773 L84.8988693,9.77031773 L84.8886865,9.77031773 Z" id="Shape" fill="#05A694"></path>
                <path d="M89.8680599,15.7171018 C89.8680599,11.6439948 92.800697,9.12885117 95.8147962,9.12885117 C99.4704097,9.12885117 101.211663,11.766188 101.211663,15.162141 C101.217777,15.7336735 101.159711,16.3040861 101.038556,16.8626632 L94.419757,16.8626632 C94.1185472,16.8705455 93.8754542,17.1114083 93.8647962,17.4125326 C93.8596107,17.4998255 93.8753195,17.5870962 93.9106186,17.6671018 C94.419757,18.7719321 95.4838562,19.2810705 96.7974332,19.2810705 C97.5844802,19.2711578 98.3590675,19.0831681 99.063099,18.731201 C99.3335117,18.6120326 99.649984,18.7234665 99.7860755,18.9857702 L100.549783,20.3859008 C100.670496,20.6510671 100.602092,20.9640647 100.381767,21.1546997 C99.1403267,21.8690242 97.7404518,22.262739 96.3086604,22.3002611 C92.6326813,22.3409922 89.8680599,19.9225849 89.8680599,15.7171018 Z M97.245475,14.3118799 C97.5553152,14.3064429 97.8051816,14.0565764 97.8106186,13.7467363 L97.8106186,13.7467363 L97.8106186,13.6194517 C97.6738631,12.6932301 96.8328401,12.0383536 95.9013497,12.1327676 C94.991,12.1049761 94.1598231,12.6475781 93.8189737,13.4921671 C93.6888973,13.7790585 93.813719,14.1172117 94.0989998,14.2507833 L94.0989998,14.2507833 C94.1640422,14.2817214 94.2358446,14.2957316 94.3077466,14.2915144 L97.245475,14.3118799 Z" id="Shape" fill="#05A694"></path>
                <path d="M104.322499,9.77036554 L106.063752,9.77036554 C106.444412,9.75363569 106.775271,10.0293513 106.827459,10.4067885 L106.995475,11.3385117 L107.082029,11.3385117 C108.112125,10.1849134 109.573406,9.50863353 111.119496,9.46997389 C113.838295,9.46997389 115.024587,11.4250653 115.024587,14.5613577 L115.024587,21.5772846 C115.024587,21.9990686 114.682664,22.3410094 114.26088,22.3410094 L111.883203,22.3410094 C111.682005,22.342347 111.488509,22.2637181 111.345285,22.1224038 C111.202061,21.9810895 111.120842,21.7886663 111.119496,21.5874674 L111.119496,21.5874674 L111.119496,15.0755875 C111.119496,13.3343342 110.69182,12.7844648 109.673543,12.7844648 C108.945131,12.8205139 108.259788,13.1403404 107.764274,13.6754569 C107.602728,13.8321312 107.509434,14.0461581 107.504613,14.2711488 L107.504613,21.5518277 C107.505968,21.7530266 107.427339,21.9465226 107.286025,22.0897465 C107.144711,22.2329705 106.952288,22.3141895 106.751089,22.3155352 L104.403961,22.3155352 C103.986459,22.3073286 103.650758,21.9693751 103.645344,21.5518277 L103.645344,10.5340731 C103.51806,10.1063969 103.859183,9.77036554 104.32759,9.77036554 L104.322499,9.77036554 Z" id="Path" fill="#05A694"></path>
                <path d="M117.157877,15.7832898 C117.157877,11.5930809 120.25853,9.16449086 123.720671,9.16449086 C125.068048,9.13445052 126.375907,9.62079937 127.376284,10.5238903 L125.548478,12.8862924 C125.095918,12.5064488 124.525325,12.2958517 123.934509,12.2906005 C122.193256,12.2906005 121.088425,13.65 121.088425,15.732376 C121.088425,17.814752 122.233987,19.1741514 123.807224,19.1741514 C124.594723,19.1662109 125.357414,18.8976576 125.976154,18.4104439 L127.503569,20.8288512 C126.346409,21.8214833 124.862982,22.3510193 123.338817,22.3155352 C119.815579,22.3155352 117.137512,19.8971279 117.137512,15.732376 L117.157877,15.7832898 Z" id="Path" fill="#05A694"></path>
                <path d="M128.083987,15.7832898 C128.083987,11.7101828 131.016624,9.20013055 134.030723,9.20013055 C137.686337,9.20013055 139.42759,11.832376 139.42759,15.228329 C139.432743,15.7995554 139.376414,16.369678 139.259574,16.9288512 L132.844431,16.9288512 C132.663486,16.9274958 132.489415,16.9980784 132.360514,17.1250705 C132.231612,17.2520626 132.158439,17.4250609 132.157094,17.6060052 L132.157094,17.6518277 C132.162978,17.7701589 132.192403,17.8861284 132.243647,17.9929504 C132.83048,18.9115989 133.875678,19.4322408 134.962446,19.3472585 C135.69988,19.3430271 136.426405,19.1688003 137.085553,18.8381201 C137.414833,18.7064146 137.791107,18.8311225 137.976546,19.1334204 L138.612968,20.3248042 C138.784966,20.6639509 138.65362,21.07837 138.317668,21.2565274 C137.107574,21.9290883 135.750944,22.2944694 134.366754,22.3206266 C130.884248,22.3613577 128.078895,19.9836815 128.078895,15.7781984 L128.083987,15.7832898 Z M135.30866,14.3373368 C135.686789,14.3305582 135.997717,14.0372721 136.026546,13.6601828 L136.026546,13.4870757 C135.814145,12.6474526 135.019962,12.0891438 134.158008,12.1734987 C133.365277,12.1572134 132.623254,12.5621297 132.208008,13.2375979 C132.009174,13.5739432 132.118173,14.0076685 132.452394,14.2100522 L132.452394,14.2100522 C132.559327,14.2550028 132.672779,14.2825064 132.788425,14.2915144 L135.30866,14.3373368 Z" id="Shape" fill="#05A694"></path>
                <path d="M78.0407753,4.6279686 L79.5274594,4.6279686 C79.8434416,4.62399086 80.148099,4.74561772 80.3743969,4.96618662 C80.6006949,5.18675553 80.7300922,5.48819462 80.7341173,5.80417755 L80.7341173,5.80417755 L80.7341173,21.078329 C80.7341173,21.7363121 80.2007166,22.2697128 79.5427335,22.2697128 L78.0560494,22.2697128 C77.4099424,22.2614811 76.8881714,21.7397102 76.8799397,21.0936031 L76.8799397,5.8194517 C76.8797273,5.17321615 77.3947522,4.64463799 78.0407753,4.6279686 Z" id="Path" fill="#05A694"></path>
            </g>
        </g>
    </g>
</svg>
