<?xml version="1.0" encoding="UTF-8"?>
<svg width="208px" height="32px" viewBox="0 0 208 32" version="1.1" xmlns="http://www.w3.org/2000/svg" xmlns:xlink="http://www.w3.org/1999/xlink">
    <g id="Page-1" stroke="none" stroke-width="1" fill="none" fill-rule="evenodd">
        <g id="Links-Component-Dark---Hover" transform="translate(-287.000000, -356.000000)">
            <g id="learninglab_logo" transform="translate(287.000000, 356.000000)">
                <polygon id="Path" fill="#FFFFFF" fill-rule="nonzero" points="0 30.208 0 10.88 4.032 10.88 4.032 27.072 13.184 27.072 13.184 30.144 0 30.144"></polygon>
                <polygon id="Path" fill="#FFFFFF" fill-rule="nonzero" points="16.384 30.208 16.384 10.88 30.336 10.88 30.336 13.952 20.416 13.952 20.416 18.56 27.584 18.56 27.584 21.632 20.416 21.632 20.416 27.072 30.656 27.072 30.656 30.144"></polygon>
                <path d="M38.144,10.816 L43.136,10.816 L49.088,30.144 L45.12,30.144 L43.968,25.984 L37.312,25.984 L36.032,30.144 L32.064,30.144 L38.144,10.816 Z M38.208,22.976 L43.136,22.976 L40.768,14.592 L40.704,14.592 L38.208,22.976 Z" id="Shape" fill="#FFFFFF" fill-rule="nonzero"></path>
                <path d="M51.776,30.208 L51.776,10.88 L60.16,10.88 C64.96,10.88 66.88,13.44 66.88,16.576 C67.008,18.944 65.344,21.056 63.04,21.568 L67.648,30.208 L63.168,30.208 L59.264,22.336 L55.808,22.336 L55.808,30.208 L51.776,30.208 L51.776,30.208 Z M55.808,19.328 L58.752,19.328 C61.888,19.328 62.848,18.432 62.848,16.576 C62.848,14.72 61.632,13.824 59.456,13.824 L55.808,13.824 L55.808,19.328 Z" id="Shape" fill="#FFFFFF" fill-rule="nonzero"></path>
                <polygon id="Path" fill="#FFFFFF" fill-rule="nonzero" points="71.296 30.208 71.296 10.88 75.52 10.88 83.776 24.064 83.84 24.064 83.84 10.88 87.616 10.88 87.616 30.208 83.712 30.208 75.136 16.448 75.072 16.448 75.072 30.208"></polygon>
                <polygon id="Path" fill="#FFFFFF" fill-rule="nonzero" points="109.248 30.208 109.248 10.88 113.472 10.88 121.728 24.064 121.792 24.064 121.792 10.88 125.568 10.88 125.568 30.208 121.664 30.208 113.088 16.448 113.024 16.448 113.024 30.208"></polygon>
                <path d="M141.44,16.448 C140.48,14.528 139.328,13.696 137.216,13.696 C134.272,13.696 132.8,16.448 132.8,20.672 C132.8,24.704 134.464,27.328 137.28,27.328 C139.904,27.328 141.568,25.728 141.696,23.488 L137.728,23.488 L137.728,20.416 L145.6,20.416 L145.6,30.144 L142.656,30.144 L142.656,28.16 C141.248,29.696 139.264,30.528 137.152,30.4 C131.456,30.4 128.768,26.24 128.768,20.8 C128.768,15.872 130.816,10.56 137.536,10.56 C141.76,10.56 144.192,12.672 145.152,15.488 L141.44,16.448 Z" id="Path" fill="#FFFFFF" fill-rule="nonzero"></path>
                <polygon id="Path" fill="#FFFFFF" fill-rule="nonzero" points="158.464 30.208 158.464 10.88 162.496 10.88 162.496 27.072 171.648 27.072 171.648 30.144 158.464 30.144"></polygon>
                <path d="M178.88,10.816 L183.872,10.816 L189.824,30.144 L185.856,30.144 L184.704,25.984 L178.048,25.984 L176.768,30.144 L172.8,30.144 L178.88,10.816 Z M178.88,22.976 L183.744,22.976 L181.376,14.592 L181.312,14.592 L178.88,22.976 Z" id="Shape" fill="#FFFFFF" fill-rule="nonzero"></path>
                <path d="M192.512,10.88 L200.32,10.88 C204.48,10.88 207.232,12.16 207.424,15.616 C207.424,17.6 206.528,19.2 204.224,20.032 C206.976,21.056 207.872,22.208 207.872,25.152 C207.872,28.096 205.568,30.208 200.192,30.208 L192.448,30.208 L192.512,10.88 Z M196.48,18.56 L200.512,18.56 C202.432,18.56 203.392,17.536 203.392,16.192 C203.392,14.848 202.432,13.824 200.512,13.824 L196.48,13.824 L196.48,18.56 Z M196.48,27.2 L200.512,27.2 C202.816,27.2 203.84,26.24 203.84,24.384 C203.84,22.528 202.88,21.568 200.512,21.568 L196.48,21.568 L196.48,27.2 Z" id="Shape" fill="#FFFFFF" fill-rule="nonzero"></path>
                <path d="M101.76,28.8 L101.76,25.472 C101.824,24.704 102.016,23.936 102.272,23.232 C102.912,22.144 105.344,18.816 105.344,15.616 C105.344,12.288 102.4,9.088 98.176,9.344 C94.08,9.536 91.264,12.48 91.2,15.616 C91.136,18.752 93.888,22.144 94.528,23.296 C94.848,24.064 95.04,24.832 95.168,25.664 L95.232,28.992 C95.232,28.992 97.408,30.976 98.56,30.912 C99.712,30.848 101.76,28.8 101.76,28.8 Z" id="Path" stroke="#D31245" stroke-width="2"></path>
                <path d="M97.6,25.728 C97.6,25.728 96.384,18.56 96.128,18.048 C95.872,17.536 94.784,17.28 94.912,18.368 C95.04,19.392 98.112,19.776 99.136,17.152 C99.968,14.976 96.96,15.616 97.536,16.896 C98.112,18.176 100.352,19.392 101.696,18.752 C103.04,18.112 101.376,16.832 100.8,18.048 C100.224,19.264 99.264,25.6 99.264,25.6" id="Path" stroke="#D31245"></path>
                <line x1="94.784" y1="25.856" x2="102.464" y2="25.856" id="Path" stroke="#D31245" stroke-width="1.29"></line>
                <line x1="95.616" y1="27.328" x2="102.272" y2="27.328" id="Path" stroke="#D31245" stroke-width="1.29"></line>
                <line x1="95.616" y1="28.864" x2="102.272" y2="28.864" id="Path" stroke="#D31245" stroke-width="1.29"></line>
                <path d="M105.28,8.832 C104.832,8.192 104.32,7.68 103.744,7.168 L107.648,3.136 C108.608,3.904 109.504,4.864 110.208,5.888 L105.28,8.832 Z M90.944,8.64 L86.4,5.568 C87.232,4.544 88.192,3.648 89.216,2.88 L92.672,6.976 C92.032,7.488 91.456,8.064 90.944,8.64 Z M99.52,5.376 C98.752,5.248 97.92,5.248 97.152,5.312 L96.64,0.128 C97.984,-4.16333634e-17 99.328,-4.16333634e-17 100.608,0.192 L99.52,5.376 Z" id="Shape" fill="#D31245" fill-rule="nonzero"></path>
            </g>
        </g>
    </g>
</svg>
