<?xml version="1.0" encoding="utf-8"?>
<!-- Generator: Adobe Illustrator 25.1.0, SVG Export Plug-In . SVG Version: 6.00 Build 0)  -->
<svg version="1.1" id="Layer_1" xmlns="http://www.w3.org/2000/svg" xmlns:xlink="http://www.w3.org/1999/xlink" x="0px" y="0px"
	 viewBox="0 0 152.1 152.1" style="enable-background:new 0 0 152.1 152.1;" xml:space="preserve">
<style type="text/css">
	.st0{fill:#007D9D;}
	.st1{fill:#0385A6;}
	.st2{fill:#FFFFFF;}
	.st3{fill:#3EA5BB;}
	.st4{display:none;}
</style>
<g>
	<g id="Layer_2_2_">
		<g>
			<g>
				<path class="st0" d="M24.8,69.2c0,0,6.5-2.3,12-2.1c0,0,1.6,10.4,1.1,16.7c0,0,9.2-6.8,7.8-24.2c0,0,10.5-11.7,20.2-4.5
					c4.7,3.5,8.1,11.1,14.3,17.8c0.1-3.8,1-10,6.2-14.3c-2.3-3.9-12.8-18.7-31-10.3c0,0,18.1-12.6,32.5,9.1c2.3-1.6,5.5-2.7,9.5-3.3
					c0,0-16.8,3.3-15.2,20.9c6.4,6.1,15.6,10.9,31.1,10.6c0,0,7.5-22.2-9.3-37.8s-46.7-17.1-62.5,9.2C41.7,57.2,30,58.5,24.8,69.2z
					 M99.4,67.5c0.3-1.8,2.1-3,3.9-2.7c1.8,0.3,3.1,2.1,2.8,3.9c-0.3,1.8-2.1,3-3.9,2.7C100.3,71,99.1,69.3,99.4,67.5z"/>
				<g>
					<path class="st1" d="M88.8,37.7c0,0-10.2-4.4-24-0.7c0,0,8.4-9.4,19-9.3L88.8,37.7z"/>
					<path class="st1" d="M75.1,69l-6.6-9.5l-7,0.7C61.4,60.3,63.4,66.8,75.1,69z"/>
				</g>
			</g>
			<path class="st1" d="M73.7,17.7c-33.2,0-60.3,26.5-60.3,59s27.1,59,60.3,59s60.3-26.5,60.3-59C134.1,44.2,107,17.7,73.7,17.7z
				 M73.7,131c-30.6,0-55.5-24.4-55.5-54.3s24.9-54.3,55.5-54.3s55.5,24.4,55.5,54.3S104.4,131,73.7,131z"/>
			<path class="st2" d="M12.8,96.7c0,0,14.8-8.3,18.1-9.3s89.8,2.5,89.8,2.5s10.8,1.5,30.7,8.9l-19.4,5.4c0,0-11.3,1.2-19.6,7.6
				s-0.3,1.2-0.3,1.2s-32.4,24.6-75.3,3.7c0,0-13.9-6.5-17.4-9.2L12.8,96.7z"/>
			<g>
				<path class="st0" d="M25.4,108c0,0,20.6,10.7,41.8-0.2s39.1-20.4,64-13.4c0,0-18.7-1.6-32.5,7.6C84.8,111.3,55.1,127.8,25.4,108
					z"/>
				<path class="st3" d="M56.7,119.9c0,0,16.1,1.1,35.3-9.9s32-17.2,55.5-9.5c0,0-18.2-2.6-38.6,10.2
					C88.4,123.3,71.1,123.7,56.7,119.9z"/>
				<path class="st0" d="M4.1,104.9c0,0,9.7-3,25.5,1.6c15.8,4.5,27,3.9,37.4-1.1c0,0-10.2,2.5-21.4-1.5S17.1,95.5,4.1,104.9z"/>
				<path class="st3" d="M16.1,97.5c0,0,12.7-0.8,19.2,0.8c6.5,1.6,24.7,10.3,41.9,2.1c0,0-9.9,0.8-22.9-3.1
					C41.4,93.4,31.3,91,16.1,97.5z"/>
				<path class="st1" d="M26.7,92.4c0,0,8.1-2.2,17.2-0.2c9.1,2.1,27.4,10.1,44.2,3.6c0,0-8.9,1.1-23.6-4.6
					C49.8,85.6,35.2,87.4,26.7,92.4z"/>
			</g>
		</g>
	</g>
	<g id="Layer_1_2_" class="st4">
		
			<image style="display:inline;overflow:visible;enable-background:new    ;" width="182" height="150" xlink:href="173CE9F81166BF1E.png"  transform="matrix(0.8389 0 0 0.8208 0.9325 15.0456)">
		</image>
	</g>
</g>
</svg>
