<?xml version="1.0" encoding="utf-8"?>
<!-- Generator: Adobe Illustrator 26.3.1, SVG Export Plug-In . SVG Version: 6.00 Build 0)  -->
<svg version="1.1" id="Layer_1" xmlns="http://www.w3.org/2000/svg" xmlns:xlink="http://www.w3.org/1999/xlink" x="0px" y="0px"
	 viewBox="0 0 506.8 208.9" style="enable-background:new 0 0 506.8 208.9;" xml:space="preserve">
<style type="text/css">
	.st0{fill:#7ED1F5;}
	.st1{fill:#F4E50A;}
	.st2{fill:#BDD6B8;}
	.st3{fill:none;}
	.st4{font-family:'GillSans-SemiBold';}
	.st5{font-size:9.5px;}
	.st6{fill:#C7A9D1;}
	.st7{fill:none;stroke:#000000;stroke-width:8;stroke-miterlimit:10;}
	.st8{font-family:'GillSans';}
	.st9{font-size:9px;}
	.st10{fill:none;stroke:#000000;stroke-width:1.65;stroke-miterlimit:10;}
	.st11{fill:#FFFFFF;}
	.st12{font-family:'GillSansMT-Bold';}
</style>
<path class="st0" d="M158.7,134.6h-51.2c-5.7,0-10.4-4.7-10.4-10.4V85c0-5.7,4.7-10.4,10.4-10.4h51.2c5.7,0,10.4,4.7,10.4,10.4v39.2
	C169.1,129.9,164.4,134.6,158.7,134.6z"/>
<polygon class="st1" points="67.8,74.3 25.8,74.3 4.8,104.5 25.8,134.7 67.8,134.7 88.8,104.5 "/>
<path class="st0" d="M239.6,134.6h-51.2c-5.7,0-10.4-4.7-10.4-10.4V85c0-5.7,4.7-10.4,10.4-10.4h51.2c5.7,0,10.4,4.7,10.4,10.4v39.2
	C250,129.9,245.4,134.6,239.6,134.6z"/>
<ellipse class="st2" cx="462.2" cy="104.7" rx="41.2" ry="29.7"/>
<rect x="15" y="89.2" class="st3" width="62.8" height="30.4"/>
<text transform="matrix(1 0 0 1 29.6943 95.7049)" class="st4 st5">Support</text>
<text transform="matrix(1 0 0 1 18.5843 107.2049)" class="st4 st5">Conservation</text>
<text transform="matrix(1 0 0 1 22.9343 118.7049)" class="st4 st5">Enterprises</text>
<rect x="430.8" y="94.7" class="st3" width="62.8" height="22.1"/>
<text transform="matrix(1 0 0 1 437.7854 101.1328)" class="st4 st5">Biodiversity</text>
<text transform="matrix(1 0 0 1 434.3954 112.6328)" class="st4 st5">Conservation</text>
<path class="st0" d="M321.1,134.6h-51.2c-5.7,0-10.4-4.7-10.4-10.4V85c0-5.7,4.7-10.4,10.4-10.4h51.2c5.7,0,10.4,4.7,10.4,10.4v39.2
	C331.5,129.9,326.8,134.6,321.1,134.6z"/>
<rect x="183.3" y="89.2" class="st3" width="62.9" height="34.2"/>
<text transform="matrix(1 0 0 1 198.1435 95.7044)" class="st4 st5">Benefits</text>
<text transform="matrix(1 0 0 1 192.1535 107.2044)" class="st4 st5">realized by</text>
<text transform="matrix(1 0 0 1 188.4435 118.7044)" class="st4 st5">stakeholders</text>
<path class="st6" d="M402.1,134.6h-51.2c-5.7,0-10.4-4.7-10.4-10.4V85c0-5.7,4.7-10.4,10.4-10.4h51.2c5.7,0,10.4,4.7,10.4,10.4v39.2
	C412.5,129.9,407.9,134.6,402.1,134.6z"/>
<rect x="101.8" y="82.9" class="st3" width="62.8" height="45.9"/>
<text transform="matrix(1 0 0 1 115.8291 89.386)" class="st4 st5">Enabling</text>
<text transform="matrix(1 0 0 1 106.7891 100.886)" class="st4 st5">conditions in</text>
<text transform="matrix(1 0 0 1 107.1291 112.386)" class="st4 st5">place for the</text>
<text transform="matrix(1 0 0 1 111.9191 123.886)" class="st4 st5">enterprise</text>
<rect x="263.8" y="82.9" class="st3" width="62.9" height="45.9"/>
<text transform="matrix(1 0 0 1 267.1257 89.386)" class="st4 st5">Stakeholders’</text>
<text transform="matrix(1 0 0 1 276.9457 100.886)" class="st4 st5">attitudes</text>
<text transform="matrix(1 0 0 1 266.4457 112.386)" class="st4 st5">and behaviors</text>
<text transform="matrix(1 0 0 1 278.2157 123.886)" class="st4 st5">changed</text>
<rect x="343.9" y="82.9" class="st3" width="66.2" height="45.9"/>
<text transform="matrix(1 0 0 1 360.8925 89.386)" class="st4 st5">Threats</text>
<text transform="matrix(1 0 0 1 352.4525 100.886)" class="st4 st5">reduced (or </text>
<text transform="matrix(1 0 0 1 351.9925 112.386)" class="st4 st5">restoration)</text>
<text transform="matrix(1 0 0 1 347.1225 123.886)" class="st4 st5">to biodiversity</text>
<g>
	<g>
		<line class="st7" x1="81.9" y1="104.6" x2="92" y2="104.6"/>
		<g>
			<polygon points="90.4,92.4 90.4,116.7 102.5,104.6 			"/>
		</g>
	</g>
</g>
<g>
	<g>
		<line class="st7" x1="164" y1="104.6" x2="174.1" y2="104.6"/>
		<g>
			<polygon points="172.5,92.4 172.5,116.7 184.6,104.6 			"/>
		</g>
	</g>
</g>
<g>
	<g>
		<line class="st7" x1="244.8" y1="104.6" x2="254.9" y2="104.6"/>
		<g>
			<polygon points="253.3,92.4 253.3,116.7 265.5,104.6 			"/>
		</g>
	</g>
</g>
<g>
	<g>
		<line class="st7" x1="326.3" y1="104.6" x2="336.4" y2="104.6"/>
		<g>
			<polygon points="334.8,92.4 334.8,116.7 346.9,104.6 			"/>
		</g>
	</g>
</g>
<g>
	<g>
		<line class="st7" x1="407.3" y1="104.6" x2="417.4" y2="104.6"/>
		<g>
			<polygon points="415.8,92.4 415.8,116.7 428,104.6 			"/>
		</g>
	</g>
</g>
<rect x="51.5" y="16.7" class="st3" width="88.1" height="27.9"/>
<text transform="matrix(1 0 0 1 51.5098 22.8741)" class="st8 st9">Are enabling conditions </text>
<text transform="matrix(1 0 0 1 51.5098 33.6741)" class="st8 st9">in place to support a </text>
<text transform="matrix(1 0 0 1 51.5098 44.4741)" class="st8 st9">sustainable enterprise?</text>
<rect x="377.5" y="16.7" class="st3" width="88.1" height="27.9"/>
<text transform="matrix(1 0 0 1 377.5394 22.8741)" class="st8 st9">Does a reduction in </text>
<text transform="matrix(1 0 0 1 377.5394 33.6741)" class="st8 st9">threats (or restoration) </text>
<text transform="matrix(1 0 0 1 377.5394 44.4741)" class="st8 st9">lead to conservation?</text>
<rect x="213.9" y="6.1" class="st3" width="88.1" height="38.6"/>
<text transform="matrix(1 0 0 1 213.9133 12.2333)" class="st8 st9">Do the benefits realized </text>
<text transform="matrix(1 0 0 1 213.9133 23.0333)" class="st8 st9">by stakeholders lead to </text>
<text transform="matrix(1 0 0 1 213.9133 33.8333)" class="st8 st9">positive changes in </text>
<text transform="matrix(1 0 0 1 213.9133 44.6333)" class="st8 st9">attitudes and behaviors?</text>
<rect x="291.5" y="165.7" class="st3" width="112.4" height="39.6"/>
<text transform="matrix(1 0 0 1 291.4999 171.8275)" class="st8 st9">Do positive changes in </text>
<text transform="matrix(1 0 0 1 291.4999 182.6275)" class="st8 st9">stakeholders’ behaviors lead </text>
<text transform="matrix(1 0 0 1 291.4999 193.4275)" class="st8 st9">to a reduction in threats to </text>
<text transform="matrix(1 0 0 1 291.4999 204.2275)" class="st8 st9">biodiversity (or restoration)?</text>
<rect x="137" y="165.7" class="st3" width="88.1" height="32.2"/>
<text transform="matrix(1 0 0 1 136.9765 171.8275)" class="st8 st9">Does the enterprise </text>
<text transform="matrix(1 0 0 1 136.9765 182.6275)" class="st8 st9">lead to benefits for </text>
<text transform="matrix(1 0 0 1 136.9765 193.4275)" class="st8 st9">stakeholders?</text>
<line class="st10" x1="90.5" y1="50" x2="90.5" y2="85.6"/>
<line class="st10" x1="255.1" y1="50" x2="255.1" y2="85.6"/>
<line class="st10" x1="173" y1="126.1" x2="173" y2="161.7"/>
<line class="st10" x1="336" y1="126.1" x2="336" y2="161.7"/>
<line class="st10" x1="419.8" y1="50" x2="419.8" y2="85.6"/>
<rect x="89.3" y="101.2" class="st3" width="9.9" height="7.6"/>
<text transform="matrix(1 0 0 1 91.6174 107.6749)" class="st11 st12 st5">1</text>
<rect x="171.3" y="101.2" class="st3" width="9.9" height="7.6"/>
<text transform="matrix(1 0 0 1 173.6442 107.6749)" class="st11 st12 st5">2</text>
<rect x="252" y="101.2" class="st3" width="9.9" height="7.6"/>
<text transform="matrix(1 0 0 1 254.3408 107.6749)" class="st11 st12 st5">3</text>
<rect x="332.7" y="101.2" class="st3" width="9.9" height="7.6"/>
<text transform="matrix(1 0 0 1 335.0374 107.6749)" class="st11 st12 st5">4</text>
<rect x="414.4" y="101.2" class="st3" width="9.9" height="7.6"/>
<text transform="matrix(1 0 0 1 416.7348 107.6749)" class="st11 st12 st5">5</text>
</svg>
