<?xml version="1.0" encoding="UTF-8"?>
<svg width="512pt" height="512pt" version="1.1" viewBox="0 0 512 512" xmlns="http://www.w3.org/2000/svg">
 <path d="m241.22 65.801c-35.863 0.95312-64.328 31.781-64.328 68.477v-0.003906c-0.015625 4.0156 1.5742 7.8711 4.4102 10.707 2.8398 2.8398 6.6953 4.4297 10.711 4.4141 3.9961-0.007812 7.8281-1.6094 10.648-4.4453 2.8203-2.8359 4.3945-6.6758 4.3789-10.676 0-21.773 16.309-38.355 35.887-38.355s35.797 16.582 35.797 38.355c0 21.773-16.219 38.473-35.797 38.473h-182.75c-3.9727 0.015625-7.7773 1.6016-10.59 4.4141-2.8086 2.8086-4.3945 6.6133-4.4102 10.59-0.015625 3.9922 1.5586 7.8281 4.3711 10.664 2.8125 2.8359 6.6367 4.4375 10.629 4.4531h182.75c36.668 0 65.945-31.316 65.945-68.594 0-37.277-29.277-68.477-65.945-68.477-0.57422 0-1.1367-0.015625-1.707 0zm159.57 68.238c-36.668 0-65.918 31.199-65.918 68.477h0.003906c-0.015625 3.9922 1.5547 7.8281 4.3672 10.664 2.8125 2.8359 6.6367 4.4375 10.633 4.4531 4.0156 0.015626 7.8672-1.5703 10.707-4.4102 2.8398-2.8398 4.4258-6.6953 4.4102-10.707 0-21.773 16.219-38.328 35.797-38.328 19.578 0 35.914 16.555 35.914 38.328s-16.336 38.473-35.914 38.473h-340.61c-3.9727 0.015625-7.7773 1.6016-10.59 4.4102-2.8086 2.8086-4.3945 6.6172-4.4102 10.59-0.015625 3.9961 1.5586 7.832 4.3711 10.668 2.8125 2.832 6.6367 4.4336 10.629 4.4492h340.61c36.668 0 66.035-31.316 66.035-68.594 0-37.277-29.367-68.477-66.035-68.477zm-340.61 175.1c-3.9922 0.015625-7.8164 1.6172-10.629 4.4531-2.8125 2.832-4.3867 6.6719-4.3711 10.664 0.015625 3.9727 1.6016 7.7812 4.4102 10.59 2.8125 2.8086 6.6172 4.3945 10.59 4.4102h212.78c19.578 0 35.914 16.699 35.914 38.473 0 21.773-16.34 38.355-35.914 38.355-19.578 0-35.797-16.582-35.797-38.355 0.015625-4.0117-1.5703-7.8672-4.4102-10.707-2.8398-2.8359-6.6953-4.4258-10.707-4.4102-3.9961 0.015625-7.8203 1.6172-10.633 4.4531-2.8125 2.8359-4.3867 6.6719-4.3711 10.664 0 37.277 29.25 68.477 65.918 68.477s66.035-31.199 66.035-68.477c0-36.965-28.883-68.047-65.121-68.562h-0.003906c-0.30078-0.019531-0.60547-0.027344-0.91016-0.027344z" fill="#fff"/>
</svg>
