<?xml version="1.0" encoding="UTF-8"?>
<svg width="512pt" height="512pt" version="1.1" viewBox="0 0 512 512" xmlns="http://www.w3.org/2000/svg">
 <g fill="#fff">
  <path d="m113.98 120.78c1.4844-23.754 18.043-44.84 42.262-50.914 19.73-4.9492 39.641 1.293 53.074 14.746 1.5586 1.5586 4.0781 1.5547 5.6289-0.007813 1.5547-1.5625 1.5508-4.0938-0.007812-5.6523-15.328-15.348-38.074-22.496-60.625-16.84-27.684 6.9414-46.582 31.039-48.277 58.168-0.13672 2.2031 1.5273 4.1016 3.7227 4.2383 2.1953 0.14062 4.0859-1.5352 4.2227-3.7383z"/>
  <path d="m62.977 251.44c3.2578 15.566 16.188 26.613 31.164 28.125 2.1875 0.22266 3.7852 2.1797 3.5625 4.375-0.21875 2.1953-2.1719 3.7969-4.3594 3.5781-18.328-1.8516-34.164-15.363-38.16-34.434-3.2539-15.539 2.1719-30.879 12.953-40.945 1.6094-1.5039 4.1289-1.4102 5.625 0.20312 1.5 1.6172 1.4062 4.1445-0.20312 5.6484-8.8242 8.2383-13.238 20.766-10.582 33.449z"/>
  <path d="m336.88 232.13c0.89453-27.938-7.4531-88.375-48.016-106.62 5.8711-16.156-8.9922-46.293-28.141-46.293-18.016-47.793-49.629-69.113-100.26-69.113-41.25 0-77.352 22.117-97.18 55.18-24.199 0.53906-43.652 20.398-43.652 44.816 0 10.078 3.3125 19.379 8.9023 26.863-18.332 20.215-28.535 65.672-28.535 95.168 0 43.805 34.586 95.793 86.535 106.17 13.812 18.102 35.562 30.441 60.031 30.441 0.35547 0.03125 0.71875 0.066406 1.0898 0.097656v132.21h39.809v-132.61c20.879-2.1406 43.637-7.7227 60.113-19.891 5.0234 9.168 11.707 17.375 19.742 24.176l-41.176 129.16h13.523l48.297-101.52 0.60938-1.2656 17.027 101.5h13.164v-99.883c0-13.242 10.691-23.977 23.883-23.977h79.355l0.015625 0.13672h-0.16797l5.7812 45.781-26.766 78.457h14.562l31.875-70.906c0.81641-1.8164 1.5469-3.6719 2.1914-5.5586l0.58984-1.3047 0.42187-1.9375c0.39063-1.3789 0.73828-2.7734 1.0352-4.1758l5.1094-24.074 1.1484-5.2852 19.793 35.473-11.355 77.254h14.656l14.523-65.961c1.6445-7.4688 1.9414-15.172 0.875-22.746l-7.3555-52.27v-47.934c3.4297 5.0938 6.0977 10.449 7.3672 15.641 1.0469 4.2891 5.3594 6.9102 9.6289 5.8555 4.2734-1.0508 6.8828-5.3789 5.8359-9.668-2.6836-10.961-9.2305-21.125-15.879-29.039-4.6875-5.5859-9.7344-10.414-14.148-13.957-4.4609-4.4883-10.625-7.2617-17.441-7.2617l-138.99-0.007812c5.4688-11.398 9.4492-25.16 11.57-41.129zm-20.453 41.129c5.8477-10.941 10.215-24.828 12.508-41.785 0.375-13.227-1.4375-34.113-8.0547-53.723-6.7266-19.934-17.902-37.137-35.273-44.949l-6.7656-3.043 2.543-6.9883c1.8242-5.0156 0.63672-14.047-4.1367-22.535-4.8086-8.5469-11.199-13.027-16.523-13.027h-5.4961l-1.9492-5.1641c-8.5977-22.809-20.148-38.562-34.945-48.707-14.805-10.152-33.66-15.242-57.867-15.242-38.34 0-71.91 20.547-90.359 51.312l-2.2617 3.7695-4.3828 0.097656c-19.883 0.44141-35.867 16.758-35.867 36.824 0 8.2891 2.7188 15.918 7.3125 22.07l3.9492 5.2852-4.4336 4.8867c-7.9102 8.7227-14.629 23.699-19.355 40.855-4.6719 16.961-7.1055 34.98-7.1055 48.934 0 40.438 32.324 88.785 80.129 98.336l2.9414 0.58594 1.8242 2.3906c12.465 16.336 31.973 27.305 53.711 27.305h0.37891l0.37891 0.039062c15.719 1.5078 43.176 1.4688 67.527-5.5742 11.164-3.2266 21.188-7.7578 29.164-13.965-0.84766-1.9609-1.6172-3.957-2.3164-5.9844l-27.93-81.141h-40.52c-19.938 0-12.5-17.465-12.5-17.465 12.875-7.4648 29.609-17.496 41.938-24.941 10.016-6.043 21.328-9.5391 32.957-10.152 1.457-1.3281 3.1328-2.9453 4.9609-4.8281 0.8125-0.83203 1.6406-1.707 2.4844-2.6133-0.375-0.32031-0.71484-0.69141-1.0078-1.1133-3.7812-5.4023-8.3711-15.488-7.8477-27.41 0.14453-3.3047 2.9297-5.8711 6.2266-5.7227 3.293 0.14453 5.8477 2.9414 5.7031 6.25-0.34375 7.8203 2.4023 14.703 4.8828 18.754 1.0234-1.2773 2.0312-2.582 3.0234-3.9023 4.4062-5.8867 8.2578-11.961 10.742-17.496 2.582-5.7422 3.2578-9.9492 2.6719-12.566-0.72656-3.2305 1.293-6.4375 4.5117-7.1641 3.2188-0.72656 6.4141 1.3008 7.1367 4.5312 1.3789 6.1445-0.33594 12.91-2.9648 19.059 6.4258-1.168 11.668-4.1328 14.547-6.4414 2.5742-2.0625 6.332-1.6445 8.3906 0.94141 2.0586 2.5859 1.6367 6.3594-0.9375 8.4258-5.1367 4.1211-14.883 9.3438-26.766 9.5586-0.63281 0.011719-1.2461-0.078125-1.8203-0.25-1.8672 2.9336-3.8867 5.8242-5.9648 8.6016-3.3633 4.4922-6.9414 8.7812-10.387 12.582l14.926-4.4297h20.375s-1.4375 4.0469-4 8.6367c-0.94141 1.8828-2.1836 3.8633-3.7656 5.7695-1.7617 2.2695-3.7812 4.2969-6.0234 5.6133-0.375 0.22266-0.75391 0.43359-1.1367 0.63281-4.4727 2.7461-10.227 4.5508-17.48 4.332v4.8359c0 10.672 3.4922 21.051 9.9414 29.535 8.4141 11.074 21.492 17.57 35.363 17.574zm-119.25-45.867c0-2.207 1.7812-3.9961 3.9805-3.9961h1.5391c2.1953 0 3.9805 1.7891 3.9805 3.9961s-1.7852 3.9961-3.9805 3.9961h-1.5391c-2.1992 0-3.9805-1.7891-3.9805-3.9961zm247.49 62.07c-2.1992 0-3.9805 1.7891-3.9805 3.9961 0 2.207 1.7812 3.9961 3.9805 3.9961h8.2852c2.1992 0 3.9844-1.7891 3.9844-3.9961 0-2.207-1.7852-3.9961-3.9844-3.9961zm-102.49 11.988c0-2.207 1.7812-3.9961 3.9805-3.9961h8.2891c2.1953 0 3.9805 1.7891 3.9805 3.9961s-1.7852 3.9961-3.9805 3.9961h-8.2891c-2.1992 0-3.9805-1.7891-3.9805-3.9961zm40.133-11.988c-2.1992 0-3.9805 1.7891-3.9805 3.9961 0 2.207 1.7812 3.9961 3.9805 3.9961h23.883c2.1992 0 3.9805-1.7891 3.9805-3.9961 0-2.207-1.7812-3.9961-3.9805-3.9961zm-23.883 23.977c-2.1992 0-3.9805 1.7891-3.9805 3.9961s1.7812 3.9961 3.9805 3.9961h23.883c2.1992 0 3.9805-1.7891 3.9805-3.9961s-1.7812-3.9961-3.9805-3.9961zm59.328 0c-2.1992 0-3.9805 1.7891-3.9805 3.9961s1.7812 3.9961 3.9805 3.9961h12.32c2.1992 0 3.9805-1.7891 3.9805-3.9961s-1.7812-3.9961-3.9805-3.9961zm-27.484 23.977c-2.1992 0-3.9805 1.7891-3.9805 3.9961 0 2.207 1.7812 3.9961 3.9805 3.9961h23.883c2.1992 0 3.9844-1.7891 3.9844-3.9961 0-2.207-1.7852-3.9961-3.9844-3.9961z" fill-rule="evenodd"/>
 </g>
</svg>
