<?xml version="1.0" encoding="UTF-8"?>
<svg width="512pt" height="512pt" version="1.1" viewBox="0 0 512 512" xmlns="http://www.w3.org/2000/svg">
 <g fill="#fff">
  <path d="m84.504 100.25c1.2461 1.3359 2.9531 2.0312 4.6797 2.0312 1.1641 0 2.3281-0.31641 3.3672-0.96094 2.5977-1.6094 3.6914-4.8281 2.6211-7.6836-0.035156-0.097656-3.6055-10.023 6.207-19.184l-8.7344-9.3555c-6.5742 6.1406-9.3906 12.688-10.402 18.328-8.8125-3.4414-17.137-1.5117-21.309 0.71875l5.9453 11.336c0.92188-0.46484 9.2383-4.2188 17.625 4.7695z"/>
  <path d="m122.28 68.398c-0.64844 2.9844 0.89453 6.0117 3.6953 7.2344 0.82813 0.35938 1.6953 0.53125 2.5547 0.53125 2.043 0 4.0312-0.98437 5.2578-2.75 0.0625-0.085937 6.1797-8.6484 19.309-5.7969l2.7344-12.504c-8.793-1.9219-15.781-0.51172-20.992 1.8516-2.1875-9.1992-8.5-14.957-12.703-17.125l-5.9492 11.336c0.90234 0.5 8.7188 5.2148 6.0938 17.223z"/>
  <path d="m301.07 96.68h10.188v12.801h-10.188z"/>
  <path d="m301.07 112.34h10.188v12.801h-10.188z"/>
  <path d="m301.07 128.01h10.188v12.801h-10.188z"/>
  <path d="m301.07 143.68h10.188v12.801h-10.188z"/>
  <path d="m357.82 92.645c-2.8945 2.1211-7.7422 5.668-7.7422 12.66h12.801c0-0.39453 0.53906-0.89453 2.5-2.3398 2.8945-2.1211 7.7422-5.668 7.7422-12.66 0-6.9922-4.8438-10.543-7.7422-12.66-1.9609-1.4375-2.5-1.9414-2.5-2.3398 0-0.39063 0.53125-0.89063 2.5-2.3242 2.8945-2.1211 7.7422-5.6562 7.7422-12.652h-12.801c0 0.39062-0.53125 0.88672-2.4922 2.3242-2.8984 2.1211-7.7461 5.6641-7.7461 12.656 0 6.9922 4.8438 10.543 7.7422 12.66 1.9609 1.4375 2.5 1.9414 2.5 2.3398-0.003906 0.40234-0.54297 0.89844-2.5039 2.3359z"/>
  <path d="m438.93 239.7-6.7109-10.895-21.316 13.133v-20.812l40.426-27.145-7.1406-10.625-9.9219 6.6602v-24.562h-12.801v33.156l-10.562 7.0977v-27.59h-12.801v33.758l-4.418-5.8477-10.211 7.7227 14.629 19.359v16.953c-5.2617-10.055-11.566-19.48-18.789-28.117v-106.36h-35.273v75.082c-3.2969-2.1406-6.6562-4.1875-10.117-6.0859v-108.16h-55.527v90.105c-4.543-0.58203-9.1289-0.98438-13.777-1.1719v-128.66h-12.801v128.66c-15.996 0.64062-31.371 3.6758-45.809 8.75v-28.242c2.6328 0.90234 5.4023 1.3945 8.2266 1.3945 14.219 0 25.785-11.566 25.785-25.785 0-4.0391-0.95313-7.9453-2.7734-11.52 1.7969-2.8828 2.7734-6.2227 2.7734-9.6719 0-9.6445-7.4258-17.586-16.852-18.418-4.0234-13.449-16.398-22.965-30.984-22.965-16.359 0-29.922 12.195-32.078 27.969-15.906-0.88672-29.551 12.016-29.547 27.98 0 15.453 12.57 28.016 28.023 28.016 3.4297 0 6.8203-0.64844 9.9883-1.8633v52.207c-15.625 10.824-29.203 24.391-40.047 40.004-7.8398-9.1289-8.6875-21.789-8.5859-27.852 2.668-1.3203 5.1953-2.9492 7.3789-5.0703 17.207 1.668 31.559-12.008 31.559-28.836 0-15.391-12.074-28.016-27.25-28.906-3.3125-11.652-13.973-20.07-26.582-20.07-12.676 0-23.492 8.6523-26.676 20.516-13.457 2.5195-23.676 14.355-23.676 28.535 0 16.004 13.023 29.031 29.031 29.031 0.86719 0 1.75-0.10156 2.6367-0.19531 0.1875 12.047 2.7188 47.656 25.02 64.891-7.0664 17.906-10.992 37.383-10.992 57.766 0 87.031 70.805 157.84 157.84 157.84s157.84-70.805 157.84-157.84c0-13.82-1.8008-27.219-5.1523-40.004v-26.051zm-35.676 83.324c0 0.92188-0.054687 1.8281-0.070312 2.7461-2.5156-0.67969-4.3984-1.8594-6.6094-3.375-4.0664-2.7734-9.125-6.2344-18.59-6.2344-9.4688 0-14.527 3.4609-18.59 6.2344-3.3945 2.3242-5.8516 4.0039-11.359 4.0039-5.5 0-7.957-1.6797-11.352-4-4.0664-2.7812-9.1133-6.2422-18.582-6.2422-9.457 0-14.512 3.4609-18.566 6.2422-3.3906 2.3203-5.8438 4-11.336 4-5.5 0-7.9531-1.6797-11.348-4-3.043-2.082-6.6445-4.5508-12.242-5.6523v-16.312c1.7773 0.71094 3.2773 1.7188 5.0117 2.9023 4.0586 2.7812 9.1133 6.2422 18.574 6.2422 9.457 0 14.512-3.4609 18.566-6.2422 3.3906-2.3203 5.8438-4 11.336-4 5.5 0 7.957 1.6797 11.352 4 4.0664 2.7812 9.1133 6.2422 18.582 6.2422s14.527-3.4609 18.586-6.2344c3.3984-2.3242 5.8555-4.0039 11.367-4.0039 5.5078 0 7.9648 1.6797 11.359 4.0039 3.2148 2.1953 7.0859 4.793 13.23 5.7891 0.43359 4.5703 0.67969 9.2031 0.67969 13.891zm-11.062 55.5c-3.4297-1.8906-7.793-3.4883-14.207-3.4883-9.4688 0-14.527 3.4609-18.59 6.2344-3.3945 2.3242-5.8516 4.0039-11.359 4.0039-5.5 0-7.957-1.6797-11.352-4-4.0664-2.7812-9.1133-6.2422-18.582-6.2422-9.457 0-14.512 3.4609-18.566 6.2422-3.3906 2.3203-5.8438 4-11.336 4-5.5 0-7.9531-1.6797-11.348-4-3.043-2.082-6.6445-4.5508-12.242-5.6523v-16.312c1.7773 0.71094 3.2773 1.7188 5.0117 2.9023 4.0586 2.7812 9.1133 6.2422 18.574 6.2422 9.457 0 14.512-3.4609 18.566-6.2422 3.3906-2.3203 5.8438-4 11.336-4 5.5 0 7.957 1.6797 11.352 4 4.0664 2.7812 9.1133 6.2422 18.582 6.2422s14.527-3.4609 18.586-6.2344c3.3984-2.3242 5.8555-4.0039 11.367-4.0039 5.5078 0 7.9648 1.6797 11.359 4.0039 2.0312 1.3867 4.3203 2.9492 7.2852 4.1641-1.3008 4.1289-2.7852 8.1719-4.4375 12.141zm-17.906 21.934c-9.4688 0-14.527 3.4609-18.59 6.2344-3.3945 2.3242-5.8516 4.0039-11.359 4.0039-5.5 0-7.957-1.6797-11.352-4-4.0664-2.7812-9.1133-6.2422-18.582-6.2422-9.457 0-14.512 3.4609-18.566 6.2422-3.3906 2.3203-5.8438 4-11.336 4-5.5 0-7.9531-1.6797-11.348-4-2.3047-1.582-4.9648-3.3594-8.5391-4.6172v-13.145c1.7773 0.71094 3.2773 1.7188 5.0117 2.9023 4.0586 2.7812 9.1133 6.2422 18.574 6.2422 9.457 0 14.512-3.4609 18.566-6.2422 3.3906-2.3203 5.8438-4 11.336-4 5.5 0 7.957 1.6797 11.352 4 4.0664 2.7812 9.1133 6.2422 18.582 6.2422s14.527-3.4609 18.586-6.2344c3.3984-2.3242 5.8555-4.0039 11.367-4.0039 4.0312 0 6.4219 0.91016 8.7461 2.3047-1.9609 3.7344-4.0742 7.3633-6.3398 10.891-1.8242-0.35156-3.8242-0.57812-6.1094-0.57812zm-156.83 23.648c11.09-3.2344 22.59-5.1289 34.367-5.6367v49.422c-0.89453-0.039062-1.7852-0.10156-2.6719-0.15234-12.531-13.285-23.129-27.953-31.695-43.633zm12.473 41.16c-19.262-3.8242-37.168-11.457-52.879-22.113 8.8789-6.0273 18.289-10.973 28.109-14.836 6.9531 13.02 15.234 25.387 24.77 36.949zm161.16-200.31h-64.285c-3.1914-11.902-7.3164-23.512-12.41-34.684 12.617-4.8086 24.613-11.27 35.789-19.316 17.559 14.434 31.66 32.922 40.906 54zm-88.867-30.613c4.5781 9.8711 8.3008 20.121 11.293 30.613h-48.895v-24.562c12.887-0.51172 25.473-2.5391 37.602-6.0508zm-37.598-6.7422v-48.887c12.473 13.312 23.141 28.098 31.738 44-10.273 2.7852-20.887 4.418-31.738 4.8867zm44.074-8.8477c-7.207-13.68-15.805-26.641-25.727-38.609 20.609 3.5586 39.762 11.449 56.434 22.75-9.6641 6.5547-19.941 11.855-30.707 15.859zm-56.875 92.234h-59.734c1.5273-27.059 8.168-53.289 19.465-77.434 12.949 4 26.441 6.2891 40.27 6.8359zm0 12.801v81.879c-13.836 0.54297-27.324 2.8359-40.277 6.8359-12.863-27.469-19.711-57.617-19.824-88.715zm12.801 122.22c0.43359 0.28516 0.85547 0.55469 1.3125 0.86719 4.0586 2.7812 9.1133 6.2422 18.574 6.2422 9.457 0 14.512-3.4609 18.566-6.2422 3.3906-2.3203 5.8438-4 11.336-4 5.5 0 7.957 1.6797 11.352 4 1.1328 0.77344 2.4062 1.582 3.7695 2.3711-19.328 10.961-41.391 17.617-64.906 18.652zm131.95-94.355c-4.0664-2.7734-9.125-6.2344-18.59-6.2344-9.4688 0-14.527 3.4609-18.59 6.2344-3.3945 2.3242-5.8516 4.0039-11.359 4.0039-5.5 0-7.957-1.6797-11.352-4-4.0664-2.7812-9.1133-6.2422-18.582-6.2422-9.457 0-14.512 3.4609-18.566 6.2422-3.3906 2.3203-5.8438 4-11.336 4-5.5 0-7.9531-1.6797-11.348-4-3.043-2.082-6.6445-4.5508-12.242-5.6523v-15.949c1.7773 0.71094 3.2773 1.7188 5.0117 2.9023 4.0586 2.7812 9.1133 6.2422 18.574 6.2422 9.457 0 14.512-3.4609 18.566-6.2422 3.3906-2.3203 5.8438-4 11.336-4 5.5 0 7.957 1.6797 11.352 4 4.0664 2.7812 9.1133 6.2422 18.582 6.2422s14.527-3.4609 18.586-6.2344c3.3984-2.3242 5.8555-4.0039 11.367-4.0039 5.5078 0 7.9648 1.6797 11.359 4.0039 3.1797 2.1719 7.0078 4.7422 13.047 5.7656-0.54688 5.0898-1.3789 10.102-2.4414 15.023-1.1172-0.61719-2.1953-1.2969-3.375-2.1016zm0-58.879c-4.0664-2.7734-9.125-6.2344-18.59-6.2344-9.4688 0-14.527 3.4609-18.59 6.2344-3.3945 2.3242-5.8516 4.0039-11.359 4.0039-5.5 0-7.957-1.6797-11.352-4-4.0664-2.7812-9.1133-6.2422-18.582-6.2422-9.457 0-14.512 3.4609-18.566 6.2422-3.3906 2.3203-5.8438 4-11.336 4-5.5 0-7.9531-1.6797-11.348-4-3.043-2.082-6.6445-4.5508-12.242-5.6523l0.003906-9.3672h131.36c1.8633 5.6562 3.3945 11.469 4.5625 17.414-1.332-0.66797-2.582-1.457-3.9648-2.3984zm-39.73-164.39h9.6719v79.98c-3.1094-2.9375-6.3281-5.7539-9.6719-8.4336zm-65.645-39.16h29.93v89.09c-5.3828-2.3438-10.906-4.418-16.566-6.1641h6.7031v-12.801h-10.188v11.809c-3.25-0.92188-6.5312-1.7578-9.8711-2.4688v-79.465zm-39.379 138.38c-11.781-0.50781-23.281-2.4023-34.371-5.6367 8.5742-15.715 19.191-30.387 31.688-43.66 0.89062-0.054687 1.7812-0.10938 2.6797-0.14844v49.445zm-21.895-46.816c-9.5117 11.551-17.828 23.914-24.785 36.965-9.8203-3.8711-19.227-8.8164-28.105-14.844 15.711-10.652 33.621-18.297 52.891-22.121zm-71.34-50.707c-8.3906 0-15.223-6.8242-15.223-15.215s6.832-15.223 15.223-15.223c1.8789 0 3.7461 0.35938 5.5508 1.0664 2.1133 0.82812 4.5 0.48047 6.2812-0.91797 1.7812-1.3945 2.6914-3.6289 2.4023-5.8789-0.11328-0.85938-0.20312-1.7344-0.20312-2.6328 0-10.789 8.7812-19.57 19.574-19.57 10.137 0 18.508 7.5977 19.465 17.68 0.18359 1.9141 1.2148 3.6445 2.8164 4.7148 1.5977 1.0703 3.5898 1.3633 5.4336 0.79688 0.66406-0.20312 1.2031-0.30078 1.6445-0.30078 3.1289 0 5.6797 2.5508 5.6797 5.6836 0 2.2227-1.2734 3.6367-2.0312 4.2812-2.6367 2.2422-3.0156 6.168-0.85938 8.8672 1.3203 1.6523 2.8945 4.3945 2.8945 8.0352 0 7.1562-5.8281 12.984-12.984 12.984-3.7695 0-7.2383-1.6211-9.7773-4.5781-1.1094-1.2852-2.6875-2.082-4.3867-2.207-0.15234-0.011718-0.3125-0.015625-0.46094-0.015625-1.5352 0-3.0273 0.55469-4.1992 1.5664-1.6758 1.4531-4.4766 3.1914-8.3203 3.1914-3.8086 0-7.4141-1.7578-9.8828-4.8125-1.0703-1.3203-2.6211-2.1641-4.3164-2.3438-1.6914-0.17969-3.3906 0.32812-4.707 1.4023-2.7578 2.2422-6.0742 3.4258-9.6133 3.4258zm22.789 14.375c3.875 0.875 7.9453 0.82812 11.836-0.10938v34.918c-4.0391 1.832-7.9883 3.8203-11.836 5.9766zm-15.109 66.512c10.41 7.4961 21.523 13.625 33.188 18.312-11.766 25.512-18.664 53.188-20.18 81.727h-65.547c3.3164-40.203 23.066-75.812 52.539-100.04zm-98.77-39.426c0-8.8711 7.1562-16.109 16.004-16.227 0.12109 0.003906 0.24609 0.011718 0.35938 0.011718 3.3828 0 6.1836-2.6367 6.3906-6.0117 0.47656-7.8633 6.9805-14.02 14.801-14.02 7.9609 0 14.48 6.2734 14.836 14.273 0.082031 1.8281 0.94141 3.5312 2.3672 4.6914 1.4219 1.1562 3.2812 1.6602 5.0781 1.3398 0.84375-0.13672 1.7031-0.28125 2.5898-0.28125 8.9102 0 16.16 7.25 16.16 16.16 0 8.9141-7.25 16.164-16.16 16.164-1.1016 0-2.2734-0.14453-3.5859-0.44141-2.3945-0.53125-4.8984 0.33203-6.4258 2.2617-3.1133 3.9258-7.6836 6.1797-12.551 6.1797-4.9258 0-9.5352-2.2891-12.637-6.2891-1.2344-1.582-3.1094-2.4688-5.0547-2.4688-0.5625 0-1.1328 0.078125-1.6953 0.22656-1.6484 0.44922-2.9961 0.66016-4.25 0.66016-8.9453 0-16.227-7.2812-16.227-16.23zm32.031 35.672c2.457 0.70312 4.9922 1.1836 7.6133 1.2031 0.28125 9.3867 2.7227 24.848 14.324 35.953-1.6445 2.8477-3.207 5.7344-4.6758 8.6836-12.629-11.859-16.262-33.098-17.262-45.84zm13.68 116.59h65.703c0.10938 32.578 7.168 64.18 20.48 93.023-11.637 4.6914-22.727 10.805-33.121 18.285-32.195-26.465-52.824-66.52-53.062-111.31zm230.27 116.46c-4.8477-0.18359-7.3008-1.7461-10.496-3.9336-4.0664-2.7734-9.1133-6.2383-18.582-6.2383-9.457 0-14.512 3.4609-18.566 6.2422-3.3867 2.3203-5.8359 4-11.332 4-5.5 0-7.9531-1.6797-11.348-4-2.3047-1.582-4.9648-3.3594-8.5391-4.6172v-15.305c0.43359 0.28516 0.85547 0.55469 1.3125 0.86719 4.0586 2.7812 9.1133 6.2422 18.574 6.2422 9.457 0 14.512-3.4609 18.566-6.2422 3.3906-2.3203 5.8438-4 11.336-4 5.5 0 7.957 1.6797 11.352 4 4.0664 2.7812 9.1133 6.2422 18.582 6.2422s14.527-3.4609 18.586-6.2344c2.7344-1.8672 4.9414-3.2773 8.5391-3.7695-8.0977 10.098-17.508 19.105-27.984 26.746z"/>
 </g>
</svg>
