<?xml version="1.0" encoding="UTF-8"?>
<svg width="512pt" height="512pt" version="1.1" viewBox="0 0 512 512" xmlns="http://www.w3.org/2000/svg">
 <g fill="#fff">
  <path d="m391.66 222.3c-3.2227-45.086-28.633-85.621-67.809-108.17-39.176-22.547-86.992-24.16-127.59-4.3047-40.605 19.859-68.691 58.59-74.949 103.36-6.2539 44.766 10.137 89.715 43.746 119.94 11.902 10.539 18.785 25.629 18.945 41.527v1.3516c0 5.9141 2.1992 11.613 6.1602 16-3.9648 4.3867-6.1602 10.086-6.1602 16s2.1953 11.613 6.1602 16c-4.1602 4.6172-6.3633 10.672-6.1445 16.883 0.21875 6.2109 2.8438 12.094 7.3164 16.41 4.4766 4.3125 10.453 6.7188 16.668 6.707h12.234c1.3203 11.836 8.4102 22.254 18.938 27.824 10.527 5.5703 23.129 5.5703 33.656 0 10.527-5.5703 17.617-15.988 18.938-27.824h12.234c6.2148 0.011719 12.191-2.3945 16.668-6.707 4.4766-4.3125 7.1016-10.199 7.3164-16.41 0.21875-6.2109-1.9844-12.266-6.1445-16.883 3.9648-4.3867 6.1641-10.086 6.1641-16s-2.1992-11.613-6.1641-16c3.9648-4.3867 6.1602-10.09 6.1602-16v-1.3398c0.20703-15.977 7.1523-31.121 19.125-41.703 31.152-28.02 47.594-68.871 44.535-110.66zm-90.004 48.043c-3.125-3.125-8.1875-3.125-11.312 0l-26.344 26.344v-12.688c0.011719-10.605 4.2305-20.773 11.73-28.27 7.4961-7.5 17.664-11.719 28.27-11.73h24v24c-0.011719 10.605-4.2305 20.773-11.73 28.27-7.4961 7.5-17.664 11.719-28.27 11.73h-12.688l26.344-26.344c3.125-3.125 3.125-8.1875 0-11.312zm-53.656 26.344-26.344-26.344c-3.1367-3.0586-8.1445-3.0234-11.242 0.070312-3.0938 3.0977-3.1289 8.1055-0.070312 11.242l26.344 26.344h-12.688c-10.605-0.011719-20.773-4.2305-28.27-11.73-7.5-7.4961-11.719-17.664-11.73-28.27v-24h24c10.605 0.011719 20.773 4.2305 28.27 11.73 7.5 7.4961 11.719 17.664 11.73 28.27zm56 103.31c4.418 0 8 3.582 8 8s-3.582 8-8 8h-96c-4.418 0-8-3.582-8-8s3.582-8 8-8zm-48 80c-4.6094-0.007812-9.0742-1.6016-12.645-4.5156-3.5703-2.9141-6.0234-6.9688-6.9531-11.484h39.195c-0.92969 4.5156-3.3828 8.5703-6.9531 11.484-3.5703 2.9141-8.0352 4.5078-12.645 4.5156zm48-32h-96c-4.418 0-8-3.582-8-8s3.582-8 8-8h96c4.418 0 8 3.582 8 8s-3.582 8-8 8zm32.398-126.91c-15.328 13.613-24.188 33.074-24.398 53.574v1.3398c-0.003906 4.418-3.582 7.9961-8 8h-40v-60h24c14.848-0.015625 29.082-5.9219 39.578-16.422 10.5-10.496 16.406-24.73 16.422-39.578v-32c0-2.1211-0.84375-4.1562-2.3438-5.6562s-3.5352-2.3438-5.6562-2.3438h-32c-19.688 0.023438-37.918 10.395-48 27.305-10.082-16.91-28.312-27.281-48-27.305h-32c-4.418 0-8 3.582-8 8v32c0.015625 14.848 5.9219 29.082 16.422 39.578 10.496 10.5 24.73 16.406 39.578 16.422h24v60h-40c-4.418-0.003906-7.9961-3.582-8-8v-1.3516c-0.16016-20.434-8.9688-39.844-24.238-53.422-25.016-22.492-39.438-54.453-39.758-88.09-0.31641-33.641 13.504-65.867 38.09-88.828 22.137-20.84 51.418-32.406 81.82-32.312 2.8047 0 5.6328 0.09375 8.4648 0.28906 31.496 2.2031 60.852 16.727 81.711 40.422 20.855 23.699 31.535 54.66 29.723 86.18-1.8125 31.516-15.973 61.051-39.414 82.199z"/>
  <path d="m256 64c2.1211 0 4.1562-0.84375 5.6562-2.3438s2.3438-3.5352 2.3438-5.6562v-32c0-4.418-3.582-8-8-8s-8 3.582-8 8v32c0 2.1211 0.84375 4.1562 2.3438 5.6562s3.5352 2.3438 5.6562 2.3438z"/>
  <path d="m460 220h-32c-4.418 0-8 3.582-8 8s3.582 8 8 8h32c4.418 0 8-3.582 8-8s-3.582-8-8-8z"/>
  <path d="m383.28 343.97c-3.1328-3.0742-8.1562-3.0508-11.262 0.050781-3.1016 3.1055-3.125 8.1289-0.050781 11.262l22.625 22.629v-0.003906c3.1367 3.0586 8.1445 3.0273 11.242-0.070312 3.0938-3.0977 3.1289-8.1055 0.070312-11.242z"/>
  <path d="m84 220h-32c-4.418 0-8 3.582-8 8s3.582 8 8 8h32c4.418 0 8-3.582 8-8s-3.582-8-8-8z"/>
  <path d="m128.72 343.97-22.629 22.625h0.003906c-1.5312 1.4922-2.4023 3.5391-2.418 5.6758-0.011719 2.1406 0.83203 4.1953 2.3438 5.7109 1.5156 1.5117 3.5703 2.3555 5.707 2.3398 2.1406-0.011718 4.1875-0.88281 5.6797-2.4141l22.625-22.625c1.5273-1.4961 2.3906-3.5391 2.3984-5.6719 0.011718-2.1367-0.83203-4.1875-2.3438-5.6953-1.5078-1.5117-3.5586-2.3555-5.6953-2.3438-2.1328 0.007813-4.1758 0.87109-5.6719 2.3984z"/>
  <path d="m128.72 112.03c1.4961 1.5273 3.5391 2.3906 5.6719 2.3984 2.1367 0.011718 4.1875-0.83203 5.6953-2.3438 1.5117-1.5078 2.3555-3.5586 2.3438-5.6953-0.007813-2.1328-0.87109-4.1758-2.3984-5.6719l-22.625-22.629v0.003906c-3.1367-3.0586-8.1445-3.0273-11.242 0.070312-3.0938 3.0977-3.1289 8.1055-0.070312 11.242z"/>
  <path d="m394.59 78.094-22.625 22.625c-1.5273 1.4961-2.3906 3.5391-2.3984 5.6719-0.011718 2.1367 0.83203 4.1875 2.3438 5.6953 1.5078 1.5117 3.5586 2.3555 5.6953 2.3438 2.1328-0.007813 4.1758-0.87109 5.6719-2.3984l22.629-22.625h-0.003906c3.0586-3.1367 3.0273-8.1445-0.070312-11.242-3.0977-3.0938-8.1055-3.1289-11.242-0.070312z"/>
 </g>
</svg>
