<?xml version="1.0" encoding="UTF-8"?>
<svg width="512pt" height="512pt" version="1.1" viewBox="0 0 512 512" xmlns="http://www.w3.org/2000/svg">
 <g fill="#fff">
  <path d="m77.676 156.2c-2.832 0-5.6758-0.27344-8.4883-0.84375-11.945-2.4023-21.605-9.6367-27.934-20.922-7.043-12.562-9.6016-29.516-7.6133-50.379 2.5039-26.328 3.1289-36.75 3.4023-41.199 0.22656-3.8125 0.27344-4.4961 1.1367-6.6562 0.57031-1.4219 1.6953-2.5586 3.1055-3.1406 1.4102-0.58984 3.0156-0.58203 4.4141 0.035156 31.566 13.535 54.141 28.977 67.113 45.871 14.371 18.727 13.629 34.703 10.492 44.805-5.9102 18.98-25.648 32.43-45.629 32.43zm-29.469-109.56c-0.375 5.7578-1.1719 16.77-3.2422 38.492-3.1953 33.52 6.4531 55.047 26.465 59.074 16.84 3.3906 36.012-7.7383 41.004-23.801 7.6016-24.418-16.312-51.715-64.227-73.766z"/>
  <path d="m112.73 190.49c-0.26172 0-0.52344-0.023437-0.79688-0.058593-3.1055-0.43359-5.2773-3.3125-4.8477-6.418 0.023437-0.17188 2.1289-15.883-1.3438-32.652-4.4023-21.312-15.43-34.383-32.781-38.855-3.0391-0.78516-4.8711-3.8906-4.0859-6.9297 0.78516-3.0391 3.8906-4.8711 6.9297-4.0859 21.688 5.5977 35.91 22.152 41.141 47.879 3.7891 18.66 1.5 35.52 1.3984 36.227-0.37891 2.832-2.8125 4.8945-5.6133 4.8945z"/>
  <path d="m192.48 156.2c-19.992 0-39.719-13.449-45.625-32.414-3.1523-10.102-3.8789-26.078 10.492-44.805 12.969-16.906 35.543-32.348 67.117-45.887 1.4102-0.60156 3.0039-0.61328 4.4141-0.035156 1.4102 0.58203 2.5391 1.7188 3.1055 3.1406 0.86328 2.1602 0.91016 2.8555 1.1367 6.6562 0.26172 4.4492 0.88672 14.871 3.4023 41.199 1.9922 20.855-0.58203 37.809-7.6133 50.379-6.3242 11.285-15.973 18.523-27.934 20.922-2.8047 0.57031-5.6484 0.84375-8.4961 0.84375zm29.469-109.56c-47.91 22.051-71.84 49.344-64.227 73.75 5.0078 16.066 24.168 27.191 41.004 23.801 20.004-4.0273 29.652-25.555 26.465-59.074-2.0703-21.703-2.8672-32.719-3.2422-38.477z"/>
  <path d="m157.41 190.48c-2.7891 0-5.2227-2.0469-5.6211-4.8906-0.10156-0.70703-2.3906-17.566 1.3984-36.227 5.2344-25.727 19.457-42.281 41.141-47.879 3.0391-0.78516 6.1445 1.0469 6.9297 4.0859 0.78516 3.0391-1.0469 6.1445-4.0859 6.9297-17.352 4.4727-28.375 17.543-32.781 38.855-3.4688 16.781-1.3555 32.496-1.3438 32.652 0.43359 3.1055-1.7422 5.9844-4.8477 6.418-0.25391 0.042969-0.52734 0.054687-0.78906 0.054687z"/>
  <path d="m255.73 506.63h-241.3c-3.1406 0-5.6875-2.5469-5.6875-5.6875v-316.16c0-3.1406 2.5469-5.6875 5.6875-5.6875h241.3c3.1406 0 5.6875 2.5469 5.6875 5.6875v316.14c0 3.1523-2.5469 5.6992-5.6875 5.6992zm-235.61-11.379h229.92v-304.77h-229.92z"/>
  <path d="m207.22 506.63c-3.1406 0-5.6875-2.5469-5.6875-5.6875v-97.691h-132.91v97.691c0 3.1406-2.5469 5.6875-5.6875 5.6875s-5.6875-2.5469-5.6875-5.6875v-103.38c0-3.1406 2.5469-5.6875 5.6875-5.6875h144.29c3.1406 0 5.6875 2.5469 5.6875 5.6875v103.38c0 3.1406-2.5508 5.6875-5.6914 5.6875z"/>
  <path d="m135.08 506.63c-3.1406 0-5.6875-2.5469-5.6875-5.6875v-97.062c0-3.1406 2.5469-5.6875 5.6875-5.6875s5.6875 2.5469 5.6875 5.6875v97.062c0 3.1406-2.5469 5.6875-5.6875 5.6875z"/>
  <path d="m212.12 357.61h-154.08c-3.1406 0-5.6875-2.5469-5.6875-5.6875v-42.395c0-3.1406 2.5469-5.6875 5.6875-5.6875h154.08c3.1406 0 5.6875 2.5469 5.6875 5.6875v42.395c0 3.1367-2.5469 5.6875-5.6875 5.6875zm-148.39-11.379h142.7v-31.016h-142.7z"/>
  <path d="m212.12 278.53h-154.08c-3.1406 0-5.6875-2.5469-5.6875-5.6875v-42.395c0-3.1406 2.5469-5.6875 5.6875-5.6875h154.08c3.1406 0 5.6875 2.5469 5.6875 5.6875v42.395c0 3.1406-2.5469 5.6875-5.6875 5.6875zm-148.39-11.379h142.7v-31.016h-142.7z"/>
  <path d="m497.03 506.63h-241.3c-3.1406 0-5.6875-2.5469-5.6875-5.6875s2.5469-5.6875 5.6875-5.6875h235.61l0.003906-250.96h-235.61c-3.1406 0-5.6875-2.5469-5.6875-5.6875s2.5469-5.6875 5.6875-5.6875h241.3c3.1406 0 5.6875 2.5469 5.6875 5.6875v262.34c0 3.1406-2.5469 5.6875-5.6875 5.6875z"/>
  <path d="m353.04 319.7h-47.457c-3.1406 0-5.6875-2.5469-5.6875-5.6875v-49.836c0-3.1406 2.5469-5.6875 5.6875-5.6875h47.457c3.1406 0 5.6875 2.5469 5.6875 5.6875v49.836c0 3.1406-2.5391 5.6875-5.6875 5.6875zm-41.77-11.375h36.078v-38.457h-36.078z"/>
  <path d="m447.17 319.7h-47.457c-3.1406 0-5.6875-2.5469-5.6875-5.6875v-49.836c0-3.1406 2.5469-5.6875 5.6875-5.6875h47.457c3.1406 0 5.6875 2.5469 5.6875 5.6875v49.836c0.003906 3.1406-2.5469 5.6875-5.6875 5.6875zm-41.766-11.375h36.078v-38.457h-36.078z"/>
  <path d="m353.04 400.37h-47.457c-3.1406 0-5.6875-2.5469-5.6875-5.6875v-49.836c0-3.1406 2.5469-5.6875 5.6875-5.6875h47.457c3.1406 0 5.6875 2.5469 5.6875 5.6875v49.836c0 3.1406-2.5391 5.6875-5.6875 5.6875zm-41.77-11.375h36.078v-38.457h-36.078z"/>
  <path d="m447.17 400.37h-47.457c-3.1406 0-5.6875-2.5469-5.6875-5.6875v-49.836c0-3.1406 2.5469-5.6875 5.6875-5.6875h47.457c3.1406 0 5.6875 2.5469 5.6875 5.6875v49.836c0.003906 3.1406-2.5469 5.6875-5.6875 5.6875zm-41.766-11.375h36.078v-38.457h-36.078z"/>
  <path d="m353.04 481.05h-47.457c-3.1406 0-5.6875-2.5469-5.6875-5.6875v-49.824c0-3.1406 2.5469-5.6875 5.6875-5.6875h47.457c3.1406 0 5.6875 2.5469 5.6875 5.6875v49.824c0 3.1406-2.5391 5.6875-5.6875 5.6875zm-41.77-11.375h36.078v-38.445h-36.078z"/>
  <path d="m447.17 481.05h-47.457c-3.1406 0-5.6875-2.5469-5.6875-5.6875v-49.824c0-3.1406 2.5469-5.6875 5.6875-5.6875h47.457c3.1406 0 5.6875 2.5469 5.6875 5.6875v49.824c0.003906 3.1406-2.5469 5.6875-5.6875 5.6875zm-41.766-11.375h36.078v-38.445h-36.078z"/>
  <path d="m397.32 244.29c-3.1406 0-5.6875-2.5469-5.6875-5.6875v-108.36c0-3.1406 2.5469-5.6875 5.6875-5.6875s5.6875 2.5469 5.6875 5.6875v108.36c0 3.1367-2.5469 5.6875-5.6875 5.6875zm-41.895 0c-3.1406 0-5.6875-2.5469-5.6875-5.6875v-108.36c0-3.1406 2.5469-5.6875 5.6875-5.6875 3.1406 0 5.6875 2.5469 5.6875 5.6875v108.36c0.003906 3.1367-2.5469 5.6875-5.6875 5.6875z"/>
  <path d="m481.96 135.93h-211.17c-1.7617 0-3.4375-0.82031-4.5039-2.2188-1.0703-1.3984-1.4453-3.2188-0.98828-4.9258l31.625-118.65c0.66016-2.4922 2.9258-4.2227 5.4961-4.2227h147.91c2.582 0 4.8359 1.7305 5.4961 4.2227l31.629 118.64c0.45703 1.707 0.089844 3.5273-0.98828 4.9258-1.0703 1.4102-2.7305 2.2305-4.5078 2.2305zm-203.76-11.379h196.37l-28.602-107.26h-139.18z"/>
  <path d="m460.88 56.844h-169c-3.1406 0-5.6875-2.5469-5.6875-5.6875s2.5469-5.6875 5.6875-5.6875h168.99c3.1406 0 5.6875 2.5469 5.6875 5.6875 0.003906 3.1367-2.5352 5.6875-5.6758 5.6875z"/>
  <path d="m471.41 96.383h-190.07c-3.1406 0-5.6875-2.5469-5.6875-5.6875 0-3.1406 2.5469-5.6875 5.6875-5.6875h190.09c3.1406 0 5.6875 2.5469 5.6875 5.6875 0 3.1367-2.5508 5.6875-5.7031 5.6875z"/>
  <path d="m341.18 135.93c-0.17188 0-0.33984-0.011719-0.51172-0.023438-3.1289-0.27344-5.4375-3.0391-5.1641-6.168l10.547-118.64c0.27344-3.1289 3.0508-5.4375 6.168-5.1641 3.1289 0.28516 5.4375 3.0391 5.1641 6.168l-10.547 118.64c-0.26172 2.9688-2.7422 5.1875-5.6562 5.1875z"/>
  <path d="m411.57 135.93c-2.9141 0-5.3945-2.2305-5.668-5.1875l-10.547-118.64c-0.27344-3.1289 2.0352-5.8945 5.1641-6.168 3.1172-0.27344 5.8945 2.0352 6.168 5.1641l10.547 118.64c0.27344 3.1289-2.0352 5.8945-5.1641 6.168-0.15625 0.023438-0.32812 0.023438-0.5 0.023438z"/>
 </g>
</svg>
