<?xml version="1.0" encoding="UTF-8"?>
<svg width="512pt" height="512pt" version="1.1" viewBox="0 0 512 512" xmlns="http://www.w3.org/2000/svg">
 <g fill="#fff">
  <path d="m157.29 373.95h62.16c3.125 0 5.6719-2.543 5.6719-5.6797 0-3.1289-2.5508-5.6641-5.6719-5.6641l-62.16 0.003906c-3.125 0-5.668 2.5352-5.668 5.6641-0.007812 3.1328 2.5391 5.6758 5.668 5.6758z"/>
  <path d="m157.29 342.71h62.16c3.125 0 5.6719-2.543 5.6719-5.6797 0-3.1172-2.5508-5.6797-5.6719-5.6797l-62.16 0.003906c-3.125 0-5.668 2.5586-5.668 5.6797-0.007812 3.1328 2.5391 5.6758 5.668 5.6758z"/>
  <path d="m157.29 311.45h62.16c3.125 0 5.6719-2.5273 5.6719-5.6641 0-3.1328-2.5508-5.6797-5.6719-5.6797l-62.16 0.003907c-3.125 0-5.668 2.543-5.668 5.6797 0 3.1289 2.5391 5.6602 5.668 5.6602z"/>
  <path d="m157.29 280.2h62.16c3.125 0 5.6719-2.543 5.6719-5.6797 0-3.1172-2.5508-5.6641-5.6719-5.6641l-62.16 0.003906c-3.125 0-5.668 2.543-5.668 5.6641-0.007812 3.125 2.5391 5.6758 5.668 5.6758z"/>
  <path d="m157.29 248.94h62.16c3.125 0 5.6719-2.5273 5.6719-5.6641 0-3.1328-2.5508-5.6797-5.6719-5.6797h-62.16c-3.125 0-5.668 2.543-5.668 5.6797 0 3.1328 2.5391 5.6641 5.668 5.6641z"/>
  <path d="m142.24 430.28h-0.77344c-0.69141 0-1.2891-0.47266-1.4609-1.1328-2.5703-9.9883-11.562-16.957-21.867-16.957-10.441 0-19.723 7.3711-22.074 17.535-0.12891 0.5625-0.5625 1-1.1328 1.1328-10.152 2.3438-17.527 11.598-17.527 22.012v6.0664c0 2.4844 2.0391 4.5 4.5508 4.5h6.0117c0.82812 0 1.5117 0.6875 1.5117 1.5117v4.5h9.0625l0.007812-4.5039c0-0.82422 0.67578-1.5117 1.5039-1.5117h42.188c0.82812 0 1.5039 0.6875 1.5039 1.5117v4.5h9.0625l0.003906-4.5c0-0.82422 0.67969-1.5117 1.5117-1.5117h6.0117c2.5078 0 4.5586-2.0156 4.5586-4.5v-6.0664c-0.011719-12.449-10.168-22.586-22.652-22.586zm12.078 24.094h-66.34c-0.82812 0-1.5117-0.67188-1.5117-1.5039 0-7.4609 6.0938-13.531 13.582-13.531 2.4766 0 4.5039-2.0469 4.5039-4.5625 0-7.4531 6.0859-13.527 13.582-13.527 7.4609 0 13.531 6.0742 13.531 13.527 0 2.5078 2.043 4.5625 4.5625 4.5625h6.0117c7.4922 0 13.582 6.0742 13.582 13.531 0.007812 0.83203-0.67188 1.5039-1.5039 1.5039z"/>
  <path d="m72.109 411.04h-4.4336c-3.1289 0-5.6719 2.543-5.6719 5.668 0 3.1328 2.543 5.6641 5.6719 5.6641h4.4336c3.1289 0 5.6719-2.5273 5.6719-5.6641 0-3.125-2.543-5.668-5.6719-5.668z"/>
  <path d="m210.69 411.04h-40.406c-3.1172 0-5.6719 2.543-5.6719 5.668 0 3.1328 2.5547 5.6641 5.6719 5.6641h40.406c3.1289 0 5.6719-2.5273 5.6719-5.6641 0.007813-3.125-2.5391-5.668-5.6719-5.668z"/>
  <path d="m321.41 298.45c-4.6992-2.3672-9.7383-3.5703-14.977-3.5703-5.8828 0-11.406 1.4375-16.398 4.2891-4.7422 2.6992-8.7539 6.4805-11.617 10.945-3.5547 5.4219-5.4375 11.727-5.4375 18.219 0 6.457 1.8789 12.734 5.4492 18.191 2.8984 4.5156 6.9062 8.293 11.598 10.926 3.4883 1.9805 7.2656 3.3008 11.285 3.9102 1.6602 0.28516 3.3789 0.42578 5.1211 0.42578 3.7617 0 7.4453-0.63672 10.977-1.9219 9.4258-3.25 17.055-10.805 20.41-20.168 1.2656-3.4648 1.9141-6.9883 1.9648-10.477l0.015626-0.6875 0.03125-0.19922c0-7.0352-2.1211-13.715-6.1484-19.332-3.2031-4.5039-7.4375-8.1523-12.273-10.551zm9.1211 30.906c-0.16797 4.5938-1.6211 8.9805-4.2031 12.668-4.5273 6.5469-11.961 10.449-19.891 10.449-7.8281 0-15.227-3.8125-19.77-10.227-2.9023-4.0742-4.4297-8.8945-4.4297-13.918 0-5.0742 1.5312-9.8984 4.4297-13.926 3.7109-5.2422 9.1992-8.7539 15.469-9.875l0.17578-0.035156c1.2695-0.24609 2.625-0.36328 4.1328-0.36328 2.3203 0 4.5273 0.30859 6.4961 0.90625 10.395 2.8984 17.648 12.484 17.648 23.297-0.011719 0.44922-0.015625 0.88281-0.058594 1.0234z"/>
  <path d="m447.9 184.3c0-18.453-15.012-33.461-33.449-33.461-18.453 0-33.453 15.012-33.453 33.461 0 18.418 15.008 33.387 33.453 33.387 18.441 0.007813 33.449-14.969 33.449-33.387zm-57.652 0c0-13.348 10.863-24.211 24.207-24.211 13.312 0 24.152 10.859 24.152 24.211 0 13.316-10.84 24.141-24.152 24.141-13.344 0-24.207-10.824-24.207-24.141z"/>
  <path d="m392.74 234.89c0.26953 0.097656 0.54688 0.19922 1.0078 0.39844l1.6367 0.64844v13.16c0 2.543 2.0938 4.6172 4.668 4.6172h28.781c2.543 0 4.625-2.0742 4.625-4.6172v-11.406l0.45703-1.8945 2.1406-0.875 1.5977-0.51562 9.207 9.1914c0.84375 0.87109 1.9961 1.3398 3.2344 1.3398 1.2305 0 2.4102-0.47266 3.2812-1.3555l20.371-20.414c0.86719-0.85156 1.3516-1.9961 1.3516-3.207 0.003906-1.2578-0.47656-2.4414-1.3672-3.3242l-8.0703-8.0586-1.2852-1.793 1.0234-1.7188 0.58203-1.7578h13.266c2.5508 0 4.6133-2.0742 4.6133-4.6172v-28.832c0-2.5547-2.0625-4.6172-4.6133-4.6172h-13.27l-0.57812-1.7656c-0.0625-0.1875-0.12109-0.33984-0.22656-0.53125l-0.82031-1.6602 9.4102-9.4141c0.84375-0.8125 1.3203-1.9727 1.3203-3.2305 0-1.2695-0.47656-2.418-1.3555-3.2773l-20.316-20.363c-0.9375-0.90625-2.1094-1.3867-3.3086-1.3867-1.2305 0-2.3945 0.48828-3.2734 1.3555l-8.0703 8.0703-1.1992 1.0938-1.5156-0.51562c-0.39453-0.12891-0.78516-0.26953-1.1836-0.47266l-1.4023-0.71094v-12.984c0-2.5547-2.0781-4.6289-4.625-4.6289h-28.781c-2.5742 0-4.668 2.0742-4.668 4.6289v12.848l-1.2383 0.75391c-0.48047 0.29688-0.94531 0.44531-1.3789 0.59766l-1.5156 0.52344-9.207-9.207c-0.78516-0.79688-1.9727-1.25-3.25-1.25-1.2812 0-2.4844 0.46094-3.2852 1.25l-20.383 20.43c-0.85156 0.82422-1.3203 1.9727-1.3203 3.2422 0 1.2578 0.47266 2.418 1.3555 3.2656l8.0625 8.0703 1.043 1.9922-0.83984 1.6641-0.64062 1.6094h-13.148c-2.5742 0-4.668 2.0625-4.668 4.6172v28.832c0 0.66016 0.12891 1.25 0.39844 1.8398 0.74609 1.7188 2.3906 2.7812 4.2695 2.7812h11.414l1.9766 0.375 0.58984 1.7461 1.0273 1.7188-9.4883 9.4883c-0.89062 0.88672-1.3711 2.0625-1.3672 3.3242 0.003907 1.207 0.48047 2.3555 1.3672 3.2148l20.352 20.402c0.875 0.88672 2.0391 1.3555 3.2734 1.3555s2.3867-0.47266 3.2656-1.3555l9.1836-9.1758zm-5.5586-9.5195-8.4023 8.4023-13.797-13.855 8.418-8.4258c1.4375-1.3984 1.7617-3.6523 0.75391-5.4727-1.5273-2.8867-2.7305-5.8008-3.5859-8.6719-0.55859-1.9648-2.3359-3.2773-4.418-3.2773h-11.863v-19.578h11.863c2.082 0 3.8594-1.3125 4.4219-3.3008 0.85938-2.8828 2.0391-5.7148 3.5977-8.6562 0.98828-1.8125 0.67188-4.0156-0.78906-5.4883l-8.4023-8.3906 13.809-13.809 8.3711 8.3711c0.88672 0.85938 2.0938 1.3555 3.3398 1.3555 0.75781 0 1.5195-0.1875 2.1562-0.53125 2.6406-1.4453 5.5742-2.6641 8.7148-3.6055 1.9883-0.59766 3.3125-2.3789 3.3125-4.4141v-11.926h19.523v11.926c0 2.0312 1.3359 3.8125 3.3086 4.4141 3.1445 0.94531 6.082 2.1602 8.6992 3.5938 0.67578 0.36328 1.4453 0.55469 2.2227 0.55469 1.2461 0 2.4102-0.47266 3.2734-1.3477l8.4023-8.3906 13.809 13.809-8.3984 8.3906c-1.4648 1.4727-1.793 3.6758-0.78516 5.5156 1.4453 2.7188 2.6172 5.5508 3.5938 8.7031 0.54688 1.9102 2.3711 3.2305 4.4102 3.2305h11.875v19.578l-11.867-0.007812c-2.0742 0-3.875 1.3359-4.4766 3.3008-0.91797 3.0781-2.0938 5.9961-3.5469 8.7461-0.98438 1.7656-0.64844 4.0039 0.79297 5.4531l8.4062 8.3398-13.809 13.863-8.4023-8.4023c-0.85938-0.85938-2.0586-1.3555-3.2852-1.3555-0.76953 0-1.5156 0.1875-2.2109 0.57813-2.6797 1.4219-5.6133 2.6172-8.6836 3.5312-1.957 0.58984-3.3164 2.418-3.3164 4.4297v11.91l-19.531 0.003907v-11.91c0-2.0156-1.3672-3.8398-3.3086-4.4297-3.1758-0.94531-6.1094-2.1602-8.6992-3.5938-0.67969-0.35156-1.4375-0.53906-2.2031-0.53906-1.2383 0-2.4062 0.48438-3.293 1.3789z"/>
  <path d="m342.08 388.98c1.2383 0 2.4102-0.48828 3.293-1.3711l20.367-20.402c0.87109-0.85938 1.3477-1.9922 1.3477-3.2148 0.015625-1.25-0.47656-2.4336-1.3633-3.3086l-8.0703-8.0742-1.2852-1.7773 1.0234-1.7344 0.58984-1.7461h13.254c2.5508 0 4.6172-2.082 4.6172-4.6289v-28.832c0-2.543-2.0703-4.6172-4.6172-4.6172h-13.262l-0.58203-1.7578c-0.066406-0.19922-0.12891-0.34766-0.22656-0.53906l-0.82031-1.6484 9.4062-9.4141c0.85547-0.82422 1.3242-1.9648 1.3242-3.2422 0-1.2578-0.47266-2.418-1.3633-3.2656l-20.305-20.371c-0.94141-0.89453-2.1094-1.3867-3.3086-1.3867-1.2344 0-2.3945 0.48828-3.2734 1.3555l-8.0625 8.0703-1.207 1.1094-1.5039-0.52344c-0.40625-0.12891-0.78906-0.26953-1.1875-0.47266l-1.4062-0.72266v-12.984c0-2.543-2.0742-4.6133-4.6172-4.6133h-28.773c-2.582 0-4.6797 2.0703-4.6797 4.6133v12.855l-1.2344 0.74609c-0.48047 0.29688-0.95312 0.46094-1.3828 0.59766l-1.5156 0.52344-9.1953-9.207c-0.79297-0.78906-1.9805-1.25-3.25-1.25-1.2852 0-2.4883 0.46094-3.293 1.25l-18.812 18.867 0.003907-74.383c0-3.1328-2.5703-4.2188-5.6523-4.2188h0.21875-5.6523-23.996v-25.488c0-7.6602-6.2227-13.926-13.926-13.926h-22.668c-7.6602 0-13.926 6.2656-13.926 13.926v25.488h-29.648c-3.1289 0-5.6523 2.5703-5.6523 5.7031v48.961c0 3.1328 2.5195 5.6992 5.6523 5.6992 3.1328 0 5.6523-2.5664 5.6523-5.6992l-0.003906-43.301h98.504v167.66h-130.05v-43.785c10.938-3.332 18.543-16.027 18.543-31.129 0-14.488-8.2734-48.348-24.254-48.348-16.855 0-24.301 34.988-24.301 48.348 0 15.156 7.6484 27.844 18.648 31.191v43.727h-25.426v-242.79c0-1.4492 1.1758-2.625 2.6172-2.625l51.789-0.003906c1.4336 0 2.6211 1.1719 2.6211 2.625v33.91c0 3.1328 2.5195 5.6992 5.6523 5.6992 3.1328 0 5.6523-2.5664 5.6523-5.6992v-33.91c0-7.7148-6.2148-13.984-13.926-13.984l-51.793 0.003907c-7.707 0-13.977 6.2734-13.977 13.984v243.35h-28.16c-3.1406 0-5.6523 2.5195-5.6523 5.6562s2.5156 5.6992 5.6523 5.6992h240.93c3.293 0 5.9609-2.6719 5.9609-5.9609 0-3.0508-2.3242-5.4766-5.2891-5.8203 0.42578-0.22656 0.83984-0.46094 1.1914-0.8125l9.1797-9.1758 1.5 0.49609c0.26953 0.082031 0.54688 0.19922 1.0156 0.39844l1.6289 0.64453v13.148c0 2.5547 2.0977 4.6289 4.6797 4.6289h28.773c2.543 0 4.6172-2.0742 4.6172-4.6289v-11.406l0.46484-1.8828 2.1406-0.88672 1.5977-0.51562 9.1953 9.1914c0.85156 0.88281 2.0039 1.3594 3.2383 1.3594zm-139.82-179.72h-27.848v-25.488c0-1.4336 1.1875-2.625 2.6211-2.625h22.668c1.4297 0 2.5664 1.1875 2.5664 2.625l-0.003906 25.488zm-100.3 124.76h-0.21094c-6.9336-0.0625-12.848-9.5039-12.848-20.711 0-16.805 9.2578-36.949 12.898-36.949 3.6562 0 12.953 20.148 12.953 36.949 0 11.094-5.8633 20.602-12.488 20.762zm153.26-30.008 1.043 1.9961-0.82812 1.6484-0.64844 1.6094h-6.082v-11.781zm-6.5234 43.336h4.3555l1.9648 0.36328 0.59375 1.7617 1.0234 1.7188-7.9414 7.9414zm0 40.934v-19.523l18.812 18.852c0.29297 0.29688 0.64844 0.47656 0.99219 0.67578h-19.805zm81.715-20.246c-0.76172 0-1.5195 0.19922-2.2188 0.58984-2.6797 1.4219-5.6055 2.6055-8.6797 3.5234-1.9492 0.59766-3.3164 2.418-3.3164 4.4297v11.918h-19.527v-11.918c0-2.0156-1.3672-3.8281-3.2969-4.418-3.1758-0.95703-6.1133-2.1719-8.7031-3.5938-0.67578-0.36328-1.4336-0.54688-2.2031-0.54688-1.25 0-2.4102 0.48047-3.3008 1.3867l-8.4023 8.4023-13.797-13.871 8.4219-8.4141c1.4375-1.4141 1.7578-3.6562 0.75391-5.4883-1.5273-2.8789-2.7344-5.7852-3.5938-8.6719-0.55469-1.957-2.3242-3.2773-4.4141-3.2773h-9.4375v-19.57h9.4375c2.0898 0 3.8594-1.3203 4.4297-3.3008 0.85938-2.8945 2.0273-5.707 3.5898-8.668 0.98828-1.8125 0.67578-4.0156-0.78906-5.4766l-8.3984-8.4023 13.809-13.793 8.3711 8.3672c0.87891 0.85937 2.0977 1.3555 3.3398 1.3555 0.75781 0 1.5156-0.1875 2.1602-0.54297 2.6328-1.4453 5.5703-2.6523 8.7109-3.5898 1.9805-0.59766 3.3086-2.3789 3.3086-4.4297v-11.914h19.527v11.914c0 2.0469 1.3398 3.8281 3.3086 4.4297 3.1523 0.94141 6.082 2.1445 8.7109 3.5898 0.67578 0.35156 1.4336 0.55469 2.2188 0.55469 1.2461 0 2.418-0.48047 3.2773-1.3398l8.3984-8.3906 13.805 13.793-8.3984 8.4023c-1.4609 1.4648-1.7852 3.6641-0.77344 5.5039 1.4453 2.7305 2.6094 5.5586 3.5938 8.7188 0.53906 1.8945 2.3594 3.2266 4.4102 3.2266h11.867v19.57h-11.867c-2.0781 0-3.8828 1.3359-4.4766 3.3086-0.91797 3.0781-2.1055 6-3.5547 8.7461-0.98438 1.7578-0.64453 4.0039 0.79297 5.4531l8.4141 8.332-13.809 13.879-8.4023-8.4023c-0.875-0.87891-2.0781-1.375-3.2969-1.375z"/>
  <path d="m359.57 451.18 4.1719 13.781c4.5859-1.3828 9.1562-2.9844 13.566-4.7266l-5.3164-13.398c-4.0391 1.6211-8.2188 3.0703-12.422 4.3438z"/>
  <path d="m333.82 456.66 1.8125 14.297c4.7188-0.59766 9.4883-1.4141 14.168-2.4062l-2.9961-14.09c-4.2891 0.92188-8.668 1.6641-12.984 2.1992z"/>
  <path d="m456.65 367.72 12.988 6.2305c2.0469-4.2734 3.957-8.7305 5.668-13.242l-13.477-5.0781c-1.5547 4.1016-3.2969 8.1914-5.1797 12.09z"/>
  <path d="m471.83 290.96 14.398-0.75391c-0.26172-4.7891-0.72656-9.5898-1.3555-14.316l-14.281 1.957c0.59375 4.3203 1.0078 8.7383 1.2383 13.113z"/>
  <path d="m472 304.14c-0.12109 4.3828-0.44141 8.8164-0.92578 13.148l14.309 1.6133c0.53906-4.75 0.87109-9.5625 1.0156-14.34z"/>
  <path d="m384.02 441.49 6.4297 12.906c4.2656-2.1367 8.4922-4.4688 12.566-6.9336l-7.4453-12.324c-3.7422 2.2656-7.6328 4.4062-11.551 6.3516z"/>
  <path d="m406.51 427.85 8.4727 11.664c3.8672-2.832 7.6562-5.8203 11.254-8.9102l-9.3711-10.93c-3.3047 2.8516-6.7812 5.6016-10.355 8.1758z"/>
  <path d="m443.37 390.46 11.77 8.293c2.7383-3.8828 5.3516-7.957 7.7812-12.113l-12.441-7.2695c-2.2227 3.8203-4.6211 7.5352-7.1094 11.09z"/>
  <path d="m465.98 343.12 13.84 3.957c1.3125-4.5625 2.4414-9.2617 3.375-13.973l-14.133-2.7891c-0.85547 4.3203-1.8945 8.6211-3.082 12.805z"/>
  <path d="m426.51 410.69 10.266 10.105c3.3594-3.4141 6.6094-7.0078 9.6406-10.648l-11.059-9.2148c-2.7969 3.332-5.7695 6.625-8.8477 9.7578z"/>
  <path d="m276.18 168.89-13.84-3.957c-1.3125 4.5508-2.4492 9.2617-3.375 13.973l14.125 2.7812c0.85547-4.3086 1.8906-8.6133 3.0898-12.797z"/>
  <path d="m315.65 101.31-10.27-10.105c-3.3633 3.4258-6.6055 7.0078-9.6523 10.648l11.07 9.2148c2.7891-3.332 5.7695-6.6094 8.8516-9.7578z"/>
  <path d="m271.1 194.71-14.32-1.6016c-0.53125 4.7422-0.875 9.5547-1.0078 14.332l14.406 0.42578c0.12891-4.3906 0.4375-8.8164 0.92188-13.156z"/>
  <path d="m291.68 132.63c2.2188-3.793 4.6133-7.5195 7.1172-11.074l-11.781-8.293c-2.7383 3.9023-5.3555 7.9648-7.7773 12.109h0.003907z"/>
  <path d="m285.52 144.28-12.988-6.2227c-2.0469 4.2812-3.9609 8.7188-5.668 13.23l13.48 5.0898c1.5508-4.1094 3.2891-8.1758 5.1758-12.098z"/>
  <path d="m408.32 55.344-1.8164-14.297c-4.7148 0.59766-9.4883 1.4023-14.16 2.4062l2.9961 14.078c4.2891-0.91016 8.6602-1.6523 12.98-2.1875z"/>
  <path d="m358.15 70.512v-0.007813l-6.4219-12.891c-4.2617 2.125-8.5 4.4531-12.586 6.9336l7.4492 12.324c3.7656-2.2734 7.6523-4.4141 11.559-6.3594z"/>
  <path d="m382.6 60.816-4.1797-13.77c-4.5938 1.3789-9.1562 2.9688-13.562 4.7344l5.3164 13.375c4.0391-1.6055 8.2109-3.0664 12.426-4.3398z"/>
  <path d="m255.93 221.81c0.26562 4.7812 0.72656 9.5898 1.3555 14.301l14.273-1.9414c-0.59375-4.3281-1.0156-8.7344-1.25-13.117z"/>
  <path d="m335.64 84.156-8.4688-11.652c-3.8672 2.8047-7.6484 5.8125-11.258 8.8945l9.3867 10.938c3.3008-2.8477 6.7773-5.5977 10.34-8.1797z"/>
 </g>
</svg>
