<?xml version="1.0" encoding="UTF-8"?>
<svg width="512pt" height="512pt" version="1.1" viewBox="0 0 512 512" xmlns="http://www.w3.org/2000/svg">
 <g fill="#fff">
  <path d="m309.25 211.97c-1.0234-3.5859-4.6094-6.1445-8.1914-5.6328-1.5352 0-33.281 3.5859-55.297 37.375-7.6797-5.6328-20.992-11.777-39.426-7.168-3.0703 0.51172-5.6328 3.0703-5.6328 6.6562-5.6328 38.91 27.648 76.289 43.52 91.648 1.0234 2.5586 2.5586 5.1211 3.0703 6.6562 0.51172 11.266 1.5352 18.945 2.0469 19.969 0.51172 3.5859 4.0977 6.1445 7.6797 6.1445h1.5352c4.0977-0.51172 7.168-4.6094 6.1445-8.7031 0 0-1.0234-6.1445-1.5352-15.871 6.6562-7.168 28.16-31.742 38.91-53.246 17.93-37.383 7.1758-76.293 7.1758-77.828zm-94.207 38.91c11.777-1.0234 19.457 3.5859 23.551 7.168-0.51172 1.5352-1.5352 3.5859-2.0469 5.6328 0 0 0-0.51172-0.51172-0.51172-2.5586-3.5859-7.168-4.0977-10.754-2.0469-3.5859 2.5586-4.0977 7.168-2.0469 10.754 2.0469 3.0703 5.6328 9.2148 9.2148 19.969v0.51172c0 2.5586 0.51172 5.1211 0.51172 7.6797-9.7266-14.34-18.43-31.746-17.918-49.156zm72.703 31.234c-6.1445 12.289-16.383 26.113-25.09 36.352 2.0469-19.969 7.6797-44.543 23.039-65.535 2.5586-3.5859 2.0469-8.1914-1.5352-10.754-3.5859-2.5586-8.1914-2.0469-10.754 1.5352-13.824 18.434-20.992 39.426-24.574 58.367-2.5586-13.312-2.0469-28.16 4.6094-41.984 12.801-24.574 31.23-33.281 41.473-36.352 2.5625 11.266 4.0977 35.844-7.168 58.371z"/>
  <path d="m153.6 386.56c-4.0977 0-7.6797-3.5859-7.6797-7.6797v-194.56c0-4.0977 3.5859-7.6797 7.6797-7.6797 4.0977 0 7.6797 3.5859 7.6797 7.6797v194.56c0 4.0977-3.5859 7.6797-7.6797 7.6797z"/>
  <path d="m102.4 386.56c-4.0977 0-7.6797-3.5859-7.6797-7.6797v-194.56c0-4.0977 3.5859-7.6797 7.6797-7.6797 4.0977 0 7.6797 3.5859 7.6797 7.6797v194.56c0 4.0977-3.582 7.6797-7.6797 7.6797z"/>
  <path d="m358.4 386.56c-4.0977 0-7.6797-3.5859-7.6797-7.6797v-194.56c0-4.0977 3.5859-7.6797 7.6797-7.6797 4.0977 0 7.6797 3.5859 7.6797 7.6797v194.56c0 4.0977-3.582 7.6797-7.6797 7.6797z"/>
  <path d="m409.6 386.56c-4.0977 0-7.6797-3.5859-7.6797-7.6797v-194.56c0-4.0977 3.5859-7.6797 7.6797-7.6797 4.0977 0 7.6797 3.5859 7.6797 7.6797v194.56c0 4.0977-3.5859 7.6797-7.6797 7.6797z"/>
  <path d="m427.52 166.4h-343.04c-3.5859 0-6.6562-2.5586-7.168-5.6328-1.0234-3.5859 0.51172-6.6562 3.5859-8.7031l171.52-102.4c2.5586-1.5352 5.6328-1.5352 7.6797 0l171.01 101.89c2.5586 1.0234 4.6094 4.0977 4.6094 7.168-0.51562 4.0977-4.0977 7.6797-8.1953 7.6797zm-315.39-15.359h287.23l-143.36-86.016z"/>
  <path d="m427.52 412.16h-343.04c-4.0977 0-7.6797-3.5859-7.6797-7.6797 0-4.0977 3.5859-7.6797 7.6797-7.6797h343.04c4.0977 0 7.6797 3.5859 7.6797 7.6797s-3.582 7.6797-7.6797 7.6797z"/>
  <path d="m453.12 437.76h-394.24c-4.0977 0-7.6797-3.5859-7.6797-7.6797 0-4.0977 3.5859-7.6797 7.6797-7.6797h394.24c4.0977 0 7.6797 3.5859 7.6797 7.6797s-3.5859 7.6797-7.6797 7.6797z"/>
  <path d="m478.72 463.36h-445.44c-4.0938 0-7.6758-3.582-7.6758-7.6797 0-4.0977 3.5859-7.6797 7.6797-7.6797h445.44c4.0977 0 7.6797 3.5859 7.6797 7.6797-0.003906 4.0977-3.5859 7.6797-7.6836 7.6797z"/>
 </g>
</svg>
