<?xml version="1.0" encoding="UTF-8"?>
<svg width="512pt" height="512pt" version="1.1" viewBox="0 0 512 512" xmlns="http://www.w3.org/2000/svg">
 <g fill="#fff">
  <path d="m186.84 493h-0.003907c-7.2422 0-14.434-2.7383-20.805-7.9219-4.6875-3.8125-7.3789-9.4531-7.3789-15.469v-47.227h-98.922c-2.6328 0-5.043-1.4766-6.2383-3.8242-1.1953-2.3477-0.97266-5.1641 0.57812-7.293l48.406-66.559h-21.559c-2.6328 0-5.043-1.4766-6.2383-3.8242-1.1953-2.3477-0.97266-5.1641 0.57812-7.293l48.406-66.559h-21.559c-2.7422 0-5.2305-1.6016-6.3672-4.0938s-0.71875-5.4219 1.0781-7.4922l91.797-105.92c1.3594-1.5703 3.3594-2.4609 5.4297-2.4141 2.0781 0.039063 4.0312 1.0039 5.3281 2.625l63.008 78.762c2.1094 2.6367 2.0352 6.4062-0.17578 8.957l-14.699 16.965c0.5625 0.41797 1.0625 0.92188 1.4844 1.5l12.676 17.426c1.7852 2.4531 1.7852 5.7812 0 8.2344l-35.73 49.129h17.641c3.4023 0 6.4727 1.8828 8.0156 4.9141 1.543 3.0312 1.2578 6.6211-0.74219 9.3711l-46.102 63.387h7.7031c3.8672 0 7 3.1328 7 7 0 2.957-1.8359 5.4883-4.4297 6.5117v42.918c0 7.5273-2.9336 14.605-8.2539 19.93-5.3203 5.3281-12.398 8.2617-19.926 8.2617zm-113.36-84.613h87.742c6.3008 0 11.43 5.1289 11.43 11.43v49.797c0 1.7852 0.80859 3.4648 2.2148 4.6055 3.8438 3.1289 7.9844 4.7812 11.973 4.7812 3.7891 0 7.3516-1.4766 10.027-4.1523 2.6797-2.6797 4.1523-6.2422 4.1523-10.031v-42.43h-10.016c-2.6328 0-5.043-1.4766-6.2383-3.8242-1.1953-2.3477-0.97266-5.1641 0.57812-7.293l48.406-66.559h-21.559c-2.6328 0-5.043-1.4766-6.2383-3.8242-1.1953-2.3477-0.97266-5.1641 0.57812-7.293l40.82-56.129-7.582-10.426h-6.3945c-2.7422 0-5.2305-1.6016-6.3672-4.0938-1.1367-2.4922-0.71875-5.4219 1.0781-7.4922l19.719-22.754-54.117-67.645-76.254 87.984h19.977c2.6328 0 5.043 1.4766 6.2383 3.8242 1.1953 2.3477 0.97266 5.1641-0.57812 7.293l-48.406 66.559h17.641c3.4023 0 6.4727 1.8828 8.0156 4.9141 1.543 3.0312 1.2578 6.6211-0.74219 9.3711z"/>
  <path d="m481 117h-26.668c-3.8672 0-7-3.1328-7-7 0-8.6836-5.9375-16.172-14.125-17.812-2.4805-0.49609-4.5039-2.2969-5.2852-4.7031-2.8086-8.6641-10.613-14.484-19.422-14.484-9.6719 0-18.113 7.125-20.074 16.938-0.44922 2.2617-1.9883 4.1562-4.1055 5.0625-2.1172 0.90625-4.5508 0.71484-6.5-0.51953-2.7188-1.7188-5.8438-2.6289-9.043-2.6289-9.6172 0-17.445 8.1406-17.445 18.145 0 3.8672-3.1328 7-7 7-3.8672 0-7-3.1328-7-7 0-17.723 14.105-32.145 31.445-32.145 2.9219 0 5.8125 0.41406 8.5898 1.2188 5.6289-11.996 17.664-20.07 31.133-20.07 13.598 0 25.746 8.0938 31.328 20.504 10.496 3.5703 18.359 12.578 20.75 23.496h20.422c3.8672 0 7 3.1328 7 7s-3.1328 7-7 7z"/>
  <path d="m318.11 493c-7.2383 0-14.434-2.7383-20.805-7.9219-4.6875-3.8125-7.3789-9.4531-7.3789-15.469v-47.227l-98.922 0.003907c-2.6328 0-5.043-1.4766-6.2383-3.8242-1.1953-2.3477-0.97266-5.1641 0.57812-7.293l48.406-66.559h-21.559c-2.6328 0-5.043-1.4766-6.2383-3.8242-1.1953-2.3477-0.97266-5.1641 0.57812-7.293l48.406-66.559h-21.562c-2.7422 0-5.2305-1.6016-6.3672-4.0938-1.1367-2.4922-0.71875-5.4219 1.0781-7.4922l91.797-105.92c1.3594-1.5703 3.3359-2.4766 5.4297-2.4141 2.0781 0.039063 4.0312 1.0039 5.3281 2.625l84.453 105.57c1.1406 1.2461 1.8398 2.9062 1.8398 4.7305 0 3.8672-3.1328 7-7 7h-0.019532-21.562l48.133 66.18c1.0195 1.2148 1.6328 2.7812 1.6328 4.4922 0 3.8672-3.1328 7-7 7h-0.019531-21.562l48.406 66.559c1.5508 2.1289 1.7695 4.9453 0.57812 7.293-1.1953 2.3477-3.6055 3.8242-6.2383 3.8242h-105.98v42.43c-0.007813 15.543-12.652 28.188-28.191 28.188zm-113.36-84.613h87.742c6.3047 0 11.43 5.1289 11.43 11.43v49.797c0 1.7852 0.80859 3.4648 2.2148 4.6055 3.8477 3.1289 7.9844 4.7812 11.973 4.7812 7.8203 0 14.184-6.3633 14.184-14.184v-45c0-6.3047 5.1289-11.43 11.43-11.43h94.805l-46.102-63.391c-2-2.75-2.2852-6.3438-0.74219-9.3711 1.543-3.0312 4.6133-4.9141 8.0156-4.9141h17.645l-48.406-66.559c-1.5508-2.1289-1.7695-4.9453-0.57812-7.293 1.1953-2.3477 3.6055-3.8242 6.2383-3.8242h20.742l-70.387-87.984-76.254 87.984h19.977c2.6328 0 5.043 1.4766 6.2383 3.8242 1.1953 2.3477 0.97266 5.1641-0.57812 7.293l-48.406 66.559h17.641c3.4023 0 6.4727 1.8828 8.0156 4.9141s1.2578 6.6211-0.74219 9.3711z"/>
  <path d="m461 493h-420c-3.8672 0-7-3.1328-7-7s3.1328-7 7-7h420c3.8672 0 7 3.1328 7 7s-3.1328 7-7 7z"/>
  <path d="m81 173c-20.402 0-37-16.598-37-37s16.598-37 37-37 37 16.598 37 37-16.598 37-37 37zm0-60c-12.684 0-23 10.316-23 23s10.316 23 23 23 23-10.316 23-23-10.316-23-23-23z"/>
  <path d="m71 243h-40c-3.8672 0-7-3.1328-7-7s3.1328-7 7-7h40c3.8672 0 7 3.1328 7 7s-3.1328 7-7 7z"/>
  <path d="m61 283h-10c-3.8672 0-7-3.1328-7-7s3.1328-7 7-7h10c3.8672 0 7 3.1328 7 7s-3.1328 7-7 7z"/>
  <path d="m451 203h-40c-3.8672 0-7-3.1328-7-7s3.1328-7 7-7h40c3.8672 0 7 3.1328 7 7s-3.1328 7-7 7z"/>
  <path d="m471 233h-20c-3.8672 0-7-3.1328-7-7s3.1328-7 7-7h20c3.8672 0 7 3.1328 7 7s-3.1328 7-7 7z"/>
  <path d="m216 83h-70c-11.457 0-20.895-8.8008-21.91-20h-18.09c-12.133 0-22-9.8672-22-22s9.8672-22 22-22h70c11.457 0 20.895 8.8008 21.91 20h18.09c12.133 0 22 9.8672 22 22s-9.8672 22-22 22zm-110-50c-4.4102 0-8 3.5898-8 8s3.5898 8 8 8h25.871c2.2734 0 4.4023 1.1055 5.7148 2.9609 1.3125 1.8555 1.6406 4.2344 0.88281 6.375-0.3125 0.88281-0.46875 1.7773-0.46875 2.6641 0 4.4102 3.5898 8 8 8h70c4.4102 0 8-3.5898 8-8s-3.5898-8-8-8h-25.871c-2.2734 0-4.4023-1.1055-5.7148-2.9609-1.3125-1.8555-1.6406-4.2344-0.88281-6.375 0.3125-0.88281 0.46875-1.7773 0.46875-2.6641 0-4.4102-3.5898-8-8-8z"/>
  <path d="m301.01 303c-2.5664 0-5.0391-1.418-6.2656-3.8711-1.7305-3.457-0.32813-7.6641 3.1289-9.3906l40-20c3.457-1.7305 7.6641-0.32813 9.3906 3.1289 1.7305 3.457 0.32812 7.6641-3.1289 9.3906l-40 20c-1.0078 0.50391-2.0742 0.74219-3.125 0.74219z"/>
  <path d="m281.01 363c-2.5664 0-5.0391-1.418-6.2656-3.8711-1.7305-3.457-0.32813-7.6641 3.1289-9.3906l80-40c3.457-1.7305 7.6641-0.32813 9.3906 3.1289 1.7305 3.457 0.32812 7.6641-3.1289 9.3906l-80 40c-1.0078 0.50391-2.0742 0.74219-3.125 0.74219z"/>
  <path d="m163.5 283c-2.5664 0-5.0391-1.418-6.2656-3.8711-1.7305-3.457-0.32812-7.6641 3.1328-9.3906l25-12.5c3.4609-1.7305 7.6602-0.32813 9.3906 3.1289 1.7305 3.457 0.32812 7.6641-3.1328 9.3906l-25 12.5c-1.0039 0.50391-2.0703 0.74219-3.125 0.74219z"/>
  <path d="m151 333c-2.5664 0-5.0391-1.418-6.2656-3.8711-1.7305-3.457-0.32812-7.6641 3.1328-9.3906l50-25c3.457-1.7305 7.6641-0.32813 9.3906 3.1289 1.7305 3.457 0.32812 7.6641-3.1328 9.3906l-50 25c-1.0039 0.50391-2.0703 0.74219-3.125 0.74219z"/>
 </g>
</svg>
