<?xml version="1.0" encoding="UTF-8"?>
<svg width="512pt" height="512pt" version="1.1" viewBox="0 0 512 512" xmlns="http://www.w3.org/2000/svg">
 <g fill="#fff">
  <path d="m412.16 437.25c3.0703 0 5.1211-2.0469 5.1211-5.1211 0-3.0703-2.0469-5.1211-5.1211-5.1211h-12.289v-307.2c0-3.0703-2.0469-5.1211-5.1211-5.1211l-63.484 0.003906c-3.0703 0-5.1211 2.0469-5.1211 5.1211v307.2h-31.742v-0.51172-23.039h17.918c1.5352 0 3.0703-1.0234 4.0977-2.0469 1.0234-1.0234 1.0234-3.0703 1.0234-4.6094l-23.039-74.754c-0.51172-2.0469-2.5586-3.5859-5.1211-3.5859-2.5586 0-4.0977 1.5352-5.1211 3.5859l-23.039 74.754c-0.51172 1.5352 0 3.0703 1.0234 4.6094 1.0234 1.5352 2.5586 2.0469 4.0977 2.0469h17.922v23.039 0.51172h-35.328l-0.003907-208.38c0-1.5352-1.0234-3.0703-2.0469-4.0977l-74.238-49.664c-1.5352-1.0234-3.5859-1.0234-5.1211-0.51172-1.5352 1.0234-2.5586 2.5586-2.5586 4.6094v258.05h-34.816v-19.457h17.922c1.5352 0 3.0703-1.0234 4.0977-2.0469 1.0234-1.0234 1.0234-3.0703 1.0234-4.6094l-23.039-74.754c-0.51172-2.0469-2.5586-3.5859-5.1211-3.5859-2.5586 0-4.0977 1.5352-5.1211 3.5859l-23.039 74.754c-0.51172 1.5352 0 3.0703 1.0234 4.6094 1.0234 1.5352 2.5586 2.0469 4.0977 2.0469h17.922v19.457h-19.457c-3.0703 0-5.1211 2.0469-5.1211 5.1211 0 3.0703 2.0469 5.1211 5.1211 5.1211zm-122.88-96.254 15.871 52.223h-32.258zm-164.87 4.0977 15.871 52.223h-32.258zm211.97-89.602h53.246v52.223h-53.246zm53.25-10.242h-53.25v-52.223h53.246zm-53.25 72.707h53.246v52.223h-53.246zm53.25-192.51v57.344h-53.25v-57.344zm-53.25 254.97h53.246v46.594h-53.246zm-161.79-201.73 64 42.496v205.82h-64z"/>
  <path d="m196.1 235.01c-3.0703 0-5.1211 2.0469-5.1211 5.1211v8.7031c0 3.0703 2.0469 5.1211 5.1211 5.1211 3.0703 0 5.1211-2.0469 5.1211-5.1211v-8.7031c-0.003906-3.0742-2.0508-5.1211-5.1211-5.1211z"/>
  <path d="m220.67 235.01c-3.0703 0-5.1211 2.0469-5.1211 5.1211v8.7031c0 3.0703 2.0469 5.1211 5.1211 5.1211 3.0703 0 5.1211-2.0469 5.1211-5.1211v-8.7031c0-3.0742-2.5625-5.1211-5.1211-5.1211z"/>
  <path d="m196.1 270.34c-3.0703 0-5.1211 2.0469-5.1211 5.1211v8.7031c0 3.0703 2.0469 5.1211 5.1211 5.1211 3.0703 0 5.1211-2.0469 5.1211-5.1211v-8.7031c-0.003906-2.5625-2.0508-5.1211-5.1211-5.1211z"/>
  <path d="m220.67 270.34c-3.0703 0-5.1211 2.0469-5.1211 5.1211v8.7031c0 3.0703 2.0469 5.1211 5.1211 5.1211 3.0703 0 5.1211-2.0469 5.1211-5.1211v-8.7031c0-2.5625-2.5625-5.1211-5.1211-5.1211z"/>
  <path d="m196.1 306.18c-3.0703 0-5.1211 2.0469-5.1211 5.1211v8.7031c0 3.0703 2.0469 5.1211 5.1211 5.1211 3.0703 0 5.1211-2.0469 5.1211-5.1211v-8.7031c-0.003906-3.0742-2.0508-5.1211-5.1211-5.1211z"/>
  <path d="m220.67 306.18c-3.0703 0-5.1211 2.0469-5.1211 5.1211v8.7031c0 3.0703 2.0469 5.1211 5.1211 5.1211 3.0703 0 5.1211-2.0469 5.1211-5.1211v-8.7031c0-3.0742-2.5625-5.1211-5.1211-5.1211z"/>
  <path d="m196.1 342.02c-3.0703 0-5.1211 2.0469-5.1211 5.1211v8.7031c0 3.0703 2.0469 5.1211 5.1211 5.1211 3.0703 0 5.1211-2.0469 5.1211-5.1211v-8.7031c-0.003906-3.0742-2.0508-5.1211-5.1211-5.1211z"/>
  <path d="m220.67 342.02c-3.0703 0-5.1211 2.0469-5.1211 5.1211v8.7031c0 3.0703 2.0469 5.1211 5.1211 5.1211 3.0703 0 5.1211-2.0469 5.1211-5.1211v-8.7031c0-3.0742-2.5625-5.1211-5.1211-5.1211z"/>
  <path d="m196.1 377.34c-3.0703 0-5.1211 2.0469-5.1211 5.1211v8.7031c0 3.0703 2.0469 5.1211 5.1211 5.1211 3.0703 0 5.1211-2.0469 5.1211-5.1211v-8.7031c-0.003906-3.0742-2.0508-5.1211-5.1211-5.1211z"/>
  <path d="m220.67 377.34c-3.0703 0-5.1211 2.0469-5.1211 5.1211v8.7031c0 3.0703 2.0469 5.1211 5.1211 5.1211 3.0703 0 5.1211-2.0469 5.1211-5.1211v-8.7031c0-3.0742-2.5625-5.1211-5.1211-5.1211z"/>
 </g>
</svg>
