<?xml version="1.0" encoding="UTF-8"?>
<svg width="200px" height="20px" viewBox="0 0 200 20" version="1.1" xmlns="http://www.w3.org/2000/svg" xmlns:xlink="http://www.w3.org/1999/xlink">
    <g id="Page-1" stroke="none" stroke-width="1" fill="none" fill-rule="evenodd">
        <g id="Links-Component-Dark---Hover" transform="translate(-771.000000, -216.000000)">
            <g id="USAID-EducationLinks-(1)" transform="translate(771.000000, 216.000000)">
                <path d="M188.974684,14.7679325 C189.613911,15.4481806 190.375392,16.0021157 191.219409,16.4008439 C192.054465,16.8060922 192.97054,17.0167174 193.898734,17.0168776 C194.881037,17.0774808 195.853368,16.7907104 196.64557,16.2067511 C197.282139,15.6939655 197.643936,14.9142309 197.624473,14.0970464 C197.635974,13.6949615 197.55665,13.2954595 197.392405,12.92827 C197.245498,12.606433 197.032767,12.3189593 196.767932,12.0843882 C196.482399,11.8410628 196.167755,11.634135 195.831224,11.4683544 C195.468354,11.2855134 195.078762,11.092827 194.662447,10.8902954 L192.105485,9.76371308 C191.671004,9.56931052 191.248334,9.34952173 190.839662,9.10548523 C190.4077,8.85182982 190.014142,8.53783554 189.670886,8.17299578 C189.315643,7.79098806 189.030036,7.34972515 188.827004,6.86919831 C188.363,5.69414031 188.398045,4.38070995 188.924051,3.23206751 C189.203222,2.64842105 189.60133,2.12958658 190.092827,1.70886076 C190.613364,1.26537983 191.21327,0.924621551 191.860759,0.70464135 C192.583351,0.459072264 193.34235,0.337803589 194.105485,0.345991561 C195.12284,0.336740815 196.130239,0.546855519 197.059072,0.962025316 C197.925145,1.34577816 198.709951,1.89141915 199.371308,2.56962025 L198.147679,4.05063291 C197.622771,3.52632274 197.010154,3.09791967 196.337553,2.78481013 C195.630698,2.47396824 194.864894,2.31994373 194.092827,2.33333333 C193.23542,2.29170787 192.388752,2.53828113 191.687764,3.03375527 C191.084306,3.49044536 190.743629,4.21438579 190.776371,4.97046414 C190.76322,5.35789683 190.851971,5.74199741 191.033755,6.08438819 C191.210501,6.39258294 191.44553,6.66343946 191.725738,6.88185654 C192.02257,7.11444034 192.342039,7.31658263 192.679325,7.48523207 C193.022504,7.65963432 193.375527,7.81997187 193.738397,7.96624473 L196.270042,9.06329114 C196.769419,9.27828658 197.251809,9.5307656 197.71308,9.8185654 C198.149458,10.0879275 198.543357,10.4206801 198.881857,10.8059072 C199.216966,11.1949997 199.479885,11.6408187 199.658228,12.1223629 C199.858377,12.6811264 199.955589,13.2715419 199.945148,13.8649789 C199.956482,15.257302 199.360233,16.5853796 198.312236,17.5021097 C197.754538,17.987001 197.108367,18.3595163 196.409283,18.5991561 C195.594453,18.8758222 194.738038,19.0099939 193.877637,18.9957806 C192.679915,19.0070668 191.493437,18.7640185 190.396624,18.2827004 C189.352079,17.8238243 188.409621,17.1610914 187.624473,16.3333333 L188.974684,14.7679325 Z" id="Path" fill="#FFFFFF"></path>
                <polygon id="Path" fill="#FFFFFF" points="174.236287 0.696202532 176.493671 0.696202532 176.493671 9.72995781 176.57384 9.72995781 184 0.696202532 186.556962 0.696202532 180.983122 7.56118143 187.42616 18.7130802 184.898734 18.7130802 179.565401 9.34599156 176.493671 13 176.493671 18.7130802 174.236287 18.7130802"></polygon>
                <path d="M157.320675,0.696202532 L159.658228,0.696202532 L166.105485,12.0084388 L168.037975,15.742616 L168.147679,15.742616 C168.094233,14.8284107 168.035162,13.8804501 167.970464,12.8987342 C167.905767,11.9170183 167.873418,10.9507736 167.873418,10 L167.873418,0.696202532 L170.042194,0.696202532 L170.042194,18.7088608 L167.704641,18.7088608 L161.232068,7.36708861 L159.299578,3.65822785 L159.189873,3.65822785 C159.26301,4.57243319 159.33052,5.5021097 159.392405,6.44725738 C159.45429,7.39240506 159.486639,8.34036568 159.489451,9.29113924 L159.489451,18.7088608 L157.341772,18.7088608 L157.320675,0.696202532 Z" id="Path" fill="#FFFFFF"></path>
                <rect id="Rectangle" fill="#FFFFFF" fill-rule="nonzero" x="150.848101" y="0.696202532" width="2.25738397" height="18.0126582"></rect>
                <polygon id="Path" fill="#FFFFFF" points="138.312236 0.696202532 140.56962 0.696202532 140.56962 16.7637131 148.375527 16.7637131 148.375527 18.7130802 138.312236 18.7130802"></polygon>
                <path d="M130.126582,0.843881857 L130.126582,6.00421941 C130.126582,6.56680731 130.149086,7.13924051 130.194093,7.72151899 C130.2391,8.30379747 130.288326,8.89873418 130.341772,9.50632911 C130.395218,10.1026723 130.458509,10.6835443 130.531646,11.2489451 C130.604782,11.814346 130.668073,12.3361463 130.721519,12.814346 L130.611814,12.814346 L128.924051,8.80590717 L125.012658,0.843881857 L120.227848,0.843881857 L120.227848,18.6919831 L124.687764,18.6919831 L124.687764,13.5485232 C124.683551,12.3918792 124.610284,11.2365184 124.468354,10.0886076 C124.322082,8.8790436 124.195499,7.76230661 124.088608,6.73839662 L124.198312,6.73839662 L125.886076,10.721519 L129.801688,18.7130802 L134.599156,18.7130802 L134.599156,0.843881857 L130.126582,0.843881857 Z" id="Path" fill="#BA1F31" fill-rule="nonzero"></path>
                <path d="M115.481013,2.92405063 C114.764019,2.13645199 113.874402,1.5255621 112.881857,1.13924051 C110.719621,0.333381744 108.339451,0.333381744 106.177215,1.13924051 C105.193591,1.52721803 104.31071,2.13311697 103.594937,2.91139241 C102.839691,3.74538521 102.265071,4.72654879 101.907173,5.79324895 C101.489685,7.05426024 101.287144,8.37648087 101.308017,9.70464135 C101.288515,11.0423727 101.49098,12.3740788 101.907173,13.6455696 C102.262781,14.734749 102.837106,15.7398185 103.594937,16.5991561 C104.30806,17.3938026 105.19053,18.0181644 106.177215,18.4261603 C108.332739,19.2684238 110.726332,19.2684238 112.881857,18.4261603 C113.875102,18.0212675 114.763724,17.3966354 115.481013,16.5991561 C116.238843,15.7398185 116.813169,14.734749 117.168776,13.6455696 C117.58497,12.3740788 117.787435,11.0423727 117.767932,9.70464135 C117.789639,8.38056484 117.587059,7.06236623 117.168776,5.80590717 C116.806629,4.74114474 116.232489,3.76080203 115.481013,2.92405063 Z M112.054852,13.5654008 C111.517163,14.4382887 110.565288,14.9699181 109.540084,14.9699181 C108.514881,14.9699181 107.563006,14.4382887 107.025316,13.5654008 C106.417722,12.6230661 106.113924,11.3375527 106.113924,9.70886076 C106.113924,8.08016878 106.417722,6.82137834 107.025316,5.93248945 C107.591843,5.10030745 108.533368,4.60227875 109.540084,4.60227875 C110.546801,4.60227875 111.488326,5.10030745 112.054852,5.93248945 C112.662447,6.82137834 112.966245,8.08016878 112.966245,9.70886076 C112.966245,11.3375527 112.662447,12.6216596 112.054852,13.5611814 L112.054852,13.5654008 Z" id="Shape" fill="#BA1F31" fill-rule="nonzero"></path>
                <rect id="Rectangle" fill="#BA1F31" fill-rule="nonzero" x="94.1729958" y="0.860759494" width="4.67932489" height="17.8481013"></rect>
                <polygon id="Path" fill="#BA1F31" fill-rule="nonzero" points="78.2109705 4.8185654 82.8860759 4.8185654 82.8860759 18.7130802 87.5654008 18.7130802 87.5654008 4.8185654 92.2447257 4.8185654 92.2447257 0.860759494 78.2109705 0.860759494"></polygon>
                <path d="M68.556962,0.843881857 L63.1729958,18.6919831 L67.9578059,18.6919831 L68.8270042,14.8945148 L73.7763713,14.8945148 L74.6455696,18.6919831 L79.5949367,18.6919831 L74.2109705,0.843881857 L68.556962,0.843881857 Z M69.6708861,11.2489451 L69.9704641,10.0126582 C70.1870605,9.15189873 70.3994374,8.22222222 70.6075949,7.22362869 C70.8157525,6.22503516 71.0196906,5.26863572 71.2194093,4.35443038 L71.3291139,4.35443038 C71.5457103,5.25175809 71.7637131,6.20393812 71.9831224,7.21097046 C72.2025316,8.21800281 72.4205345,9.15189873 72.6371308,10.0126582 L72.9367089,11.2489451 L69.6708861,11.2489451 Z" id="Shape" fill="#BA1F31" fill-rule="nonzero"></path>
                <path d="M58.4936709,14.5780591 C57.9419394,14.8551072 57.3302391,14.9913627 56.7130802,14.9746835 C55.6289186,15.0022773 54.5992696,14.5000479 53.9535865,13.628692 C53.2559775,12.7313643 52.907173,11.440225 52.907173,9.75527426 C52.8966897,9.02043607 53.0020607,8.28853538 53.2194093,7.58649789 C53.400139,6.9997153 53.6860863,6.45069655 54.0632911,5.96624473 C54.4049467,5.53795267 54.8372457,5.19067246 55.3291139,4.94936709 C55.7979244,4.71407443 56.3151193,4.59127675 56.8396624,4.5907173 C57.3555048,4.57733949 57.8672355,4.68575701 58.3333333,4.907173 C58.7914187,5.1505915 59.216758,5.45116463 59.5991561,5.80168776 L62.1561181,2.89029536 C61.474934,2.21551227 60.690018,1.65424746 59.8312236,1.2278481 C58.8821842,0.753194825 57.833172,0.51300721 56.7721519,0.52742616 C55.6486413,0.524002329 54.5351731,0.738957585 53.4936709,1.16033755 C52.4596449,1.57625577 51.5208452,2.19781584 50.7341772,2.98734177 C49.9060614,3.83258331 49.2586074,4.83750085 48.8312236,5.94092827 C48.3385431,7.2144211 48.097802,8.5714562 48.1223629,9.93670886 C48.0947499,11.2995609 48.3252454,12.6553321 48.8016878,13.9324895 C49.2077728,15.0051592 49.8378,15.9789683 50.649789,16.7890295 C51.4255687,17.5400985 52.3536949,18.1156807 53.371308,18.4767932 C54.4269743,18.8553404 55.5409859,19.0452937 56.6624473,19.0379747 C58.8641572,19.0519821 60.9579181,18.085512 62.3755274,16.4008439 L59.8185654,13.5443038 C59.4408939,13.9638328 58.9924441,14.313738 58.4936709,14.5780591 L58.4936709,14.5780591 Z" id="Path" fill="#BA1F31" fill-rule="nonzero"></path>
                <path d="M41.2362869,10.6371308 C41.2362869,12.2292546 41.0140647,13.3544304 40.5696203,14.0126582 C40.1022779,14.6745762 39.3230453,15.0441916 38.5147679,14.9873418 C37.7139065,15.0481755 36.9415686,14.6764879 36.4894515,14.0126582 C36.0646976,13.3628692 35.8523207,12.2376934 35.8523207,10.6371308 L35.8523207,0.843881857 L31.1729958,0.843881857 L31.1729958,10.07173 C31.1729958,13.1293952 31.7763713,15.3797468 32.9831224,16.8227848 C34.1898734,18.2658228 36.0351617,18.9929677 38.5189873,19.0042194 C40.9859353,19.0042194 42.814346,18.2770745 44.0042194,16.8227848 C45.1940928,15.3684951 45.7834037,13.1181435 45.7721519,10.07173 L45.7721519,0.843881857 L41.257384,0.843881857 L41.2362869,10.6371308 Z" id="Path" fill="#BA1F31" fill-rule="nonzero"></path>
                <path d="M26.278481,2.92405063 C25.4514389,2.19388164 24.4708826,1.65890167 23.4092827,1.35864979 C22.2125526,1.01093424 20.9719443,0.837561707 19.7257384,0.843715108 L14.5063291,0.843715108 L14.5063291,18.6919831 L19.9915612,18.6919831 C21.1861026,18.7029645 22.3749676,18.5264145 23.5147679,18.1687764 C25.6749266,17.5131068 27.3966892,15.8727366 28.1561181,13.7468354 C28.6172839,12.4502055 28.8388896,11.0805395 28.8101266,9.70464135 C28.8442746,8.3286703 28.6180836,6.9586399 28.1434599,5.66666667 C27.7445933,4.61932031 27.1058609,3.68000797 26.278481,2.92405063 Z M23.6708861,12.2869198 C23.4816402,12.8872498 23.1501545,13.4329708 22.7046414,13.8776371 C22.2937638,14.2637595 21.7936379,14.5420905 21.2489451,14.6877637 C20.664427,14.8457903 20.0611858,14.9238568 19.4556962,14.9198312 L19.185654,14.9198312 L19.185654,4.64125074 L19.4556962,4.64125074 C20.0595662,4.63824924 20.6616244,4.70766301 21.2489451,4.84810127 C21.7897538,4.9740256 22.2902886,5.2337234 22.7046414,5.60337553 C23.1497523,6.02675095 23.4819114,6.55472439 23.6708861,7.13924051 C23.9312823,7.96427262 24.0510961,8.8272175 24.0253165,9.69198312 C24.0510659,10.570588 23.931306,11.4474015 23.6708861,12.2869198 Z" id="Shape" fill="#BA1F31" fill-rule="nonzero"></path>
                <polygon id="Path" fill="#BA1F31" fill-rule="nonzero" points="4.74261603 11.5738397 10.5063291 11.5738397 10.5063291 7.61603376 4.74261603 7.61603376 4.74261603 4.8185654 11.4852321 4.8185654 11.4852321 0.860759494 0.0632911392 0.860759494 0.0632911392 18.7130802 11.7594937 18.7130802 11.7594937 14.7552743 4.74261603 14.7552743"></polygon>
            </g>
        </g>
    </g>
</svg>
